<svg id="iconAppStoreEN_noinline.a731d99c8218d6faa0e83a6d038d08e8" xmlns="http://www.w3.org/2000/svg" width="135" height="40" viewBox="0 0 135 40">
  <path id="Path_219024" data-name="Path 219024" d="M130.2,40H4.73A4.74,4.74,0,0,1,0,35.27V4.73A4.733,4.733,0,0,1,4.73,0H130.2A4.8,4.8,0,0,1,135,4.731V35.27A4.8,4.8,0,0,1,130.2,40Z" fill="#a6a6a6"/>
  <path id="Path_219025" data-name="Path 219025" d="M134.03,35.27a3.83,3.83,0,0,1-3.83,3.83H4.73A3.83,3.83,0,0,1,.89,35.27V4.72A3.84,3.84,0,0,1,4.73.9H130.2a3.83,3.83,0,0,1,3.83,3.84V35.28Z" transform="translate(0)"/>
  <g id="Group_73153" data-name="Group 73153" transform="translate(12.791 6.22)">
    <path id="Path_219026" data-name="Path 219026" d="M30.13,19.78a5.789,5.789,0,0,1,2.76-4.86,5.94,5.94,0,0,0-4.68-2.53c-1.96-.2-3.87,1.18-4.87,1.18-1.03,0-2.57-1.16-4.23-1.12a6.23,6.23,0,0,0-5.24,3.2c-2.27,3.91-.58,9.68,1.6,12.85,1.08,1.55,2.35,3.29,4,3.23,1.63-.07,2.24-1.04,4.2-1.04s2.52,1.04,4.2,1c1.75-.03,2.85-1.56,3.9-3.13a12.83,12.83,0,0,0,1.78-3.62,5.6,5.6,0,0,1-3.42-5.16Zm-3.2-9.48a5.7,5.7,0,0,0,1.3-4.08,5.81,5.81,0,0,0-3.75,1.94,5.43,5.43,0,0,0-1.34,3.94,4.8,4.8,0,0,0,3.79-1.8Z" transform="translate(-12.791 -6.22)" fill="#fff"/>
  </g>
  <g id="Group_73154" data-name="Group 73154" transform="translate(42.41 18)">
    <path id="Path_219027" data-name="Path 219027" d="M53.65,31.5H51.37l-1.24-3.9H45.81l-1.19,3.9H42.41l4.28-13.3h2.65l4.3,13.3Zm-3.9-5.55-1.12-3.47c-.12-.35-.34-1.2-.67-2.5h-.04c-.13.56-.34,1.4-.63,2.5l-1.1,3.48h3.57Zm14.91.64a5.472,5.472,0,0,1-1.32,3.87,3.87,3.87,0,0,1-2.94,1.26,2.946,2.946,0,0,1-2.73-1.36h-.04v5.05H55.5V25.07c0-1.03-.03-2.08-.08-3.16H57.3l.12,1.52h.04a3.793,3.793,0,0,1,6.07-.38,5.35,5.35,0,0,1,1.13,3.54Zm-2.17.08a3.96,3.96,0,0,0-.63-2.31A2.18,2.18,0,0,0,60,23.4a2.212,2.212,0,0,0-1.43.52,2.444,2.444,0,0,0-.84,1.37,3.228,3.228,0,0,0-.1.65v1.6a2.543,2.543,0,0,0,.65,1.77,2.155,2.155,0,0,0,1.66.72,2.187,2.187,0,0,0,1.88-.92,4.084,4.084,0,0,0,.67-2.45Zm13.21-.08a5.431,5.431,0,0,1-1.33,3.87,3.86,3.86,0,0,1-2.94,1.26,2.929,2.929,0,0,1-2.72-1.36h-.04v5.05H66.54V25.07c0-1.03-.03-2.08-.08-3.16h1.87l.12,1.52h.04a3.55,3.55,0,0,1,3.24-1.72,3.594,3.594,0,0,1,2.84,1.34,5.3,5.3,0,0,1,1.13,3.54Zm-2.17.08a3.891,3.891,0,0,0-.64-2.31,2.256,2.256,0,0,0-3.28-.43,2.391,2.391,0,0,0-.84,1.37,2.64,2.64,0,0,0-.1.65v1.6a2.536,2.536,0,0,0,.64,1.77,2.129,2.129,0,0,0,1.67.72,2.187,2.187,0,0,0,1.88-.92A4.154,4.154,0,0,0,73.53,26.67Zm14.51,1.1a3.6,3.6,0,0,1-1.18,2.77,5.24,5.24,0,0,1-3.63,1.16,6.35,6.35,0,0,1-3.45-.83l.5-1.78a5.784,5.784,0,0,0,3.08.85,2.942,2.942,0,0,0,1.88-.54,1.794,1.794,0,0,0,.67-1.45,1.871,1.871,0,0,0-.56-1.37,5.14,5.14,0,0,0-1.83-1.03q-3.5-1.305-3.5-3.81a3.388,3.388,0,0,1,1.23-2.7A4.867,4.867,0,0,1,84.51,18a6.523,6.523,0,0,1,3.02.63l-.54,1.74a5.327,5.327,0,0,0-2.54-.61,2.578,2.578,0,0,0-1.76.55,1.559,1.559,0,0,0-.53,1.2,1.646,1.646,0,0,0,.6,1.31,6.868,6.868,0,0,0,1.94,1.03,6.5,6.5,0,0,1,2.53,1.62,3.341,3.341,0,0,1,.8,2.3Zm7.05-4.27H92.74v4.67c0,1.18.41,1.77,1.24,1.77a3.637,3.637,0,0,0,.95-.1l.06,1.62a4.741,4.741,0,0,1-1.66.24,2.591,2.591,0,0,1-1.98-.77,3.805,3.805,0,0,1-.7-2.59V23.51h-1.4v-1.6h1.4V20.15l2.09-.63v2.39h2.35v1.6Zm10.61,3.13a5.283,5.283,0,0,1-1.27,3.63,4.51,4.51,0,0,1-3.52,1.46,4.3,4.3,0,0,1-3.36-1.4,5.119,5.119,0,0,1-1.26-3.53,5.205,5.205,0,0,1,1.3-3.66,4.9,4.9,0,0,1,6.88-.02,5.093,5.093,0,0,1,1.22,3.52Zm-2.22.07a4.335,4.335,0,0,0-.57-2.28,2.1,2.1,0,0,0-1.92-1.15,2.134,2.134,0,0,0-1.95,1.15,4.4,4.4,0,0,0-.57,2.32,4.231,4.231,0,0,0,.57,2.27,2.177,2.177,0,0,0,3.85-.02,4.256,4.256,0,0,0,.59-2.3Zm9.14-2.92a3.7,3.7,0,0,0-.67-.06,2.037,2.037,0,0,0-1.74.85,3.2,3.2,0,0,0-.53,1.9V31.5h-2.13l.02-6.57c0-1.1-.03-2.11-.08-3.02h1.85l.08,1.83h.06a3.348,3.348,0,0,1,1.07-1.52,2.554,2.554,0,0,1,1.54-.5,2.914,2.914,0,0,1,.53.03v2.03Zm9.54,2.47a5,5,0,0,1-.08.97h-6.4a2.806,2.806,0,0,0,.93,2.17,3.169,3.169,0,0,0,2.1.67,7.132,7.132,0,0,0,2.58-.45l.33,1.48a8,8,0,0,1-3.21.6,4.66,4.66,0,0,1-3.5-1.32,4.85,4.85,0,0,1-1.28-3.53,5.51,5.51,0,0,1,1.18-3.6,4.09,4.09,0,0,1,3.36-1.55,3.591,3.591,0,0,1,3.14,1.54A5.218,5.218,0,0,1,122.16,26.25Zm-2.04-.55a2.9,2.9,0,0,0-.41-1.64,1.855,1.855,0,0,0-1.7-.89,2.034,2.034,0,0,0-1.7.87,3.18,3.18,0,0,0-.63,1.66h4.44Z" transform="translate(-42.41 -18)" fill="#fff"/>
  </g>
  <g id="Group_73155" data-name="Group 73155" transform="translate(43.68 6.56)">
    <path id="Path_219028" data-name="Path 219028" d="M49.05,10a3.283,3.283,0,0,1-1.06,2.67,4.2,4.2,0,0,1-2.78.82,13.227,13.227,0,0,1-1.53-.08V6.98a11.2,11.2,0,0,1,1.8-.13,3.99,3.99,0,0,1,2.6.74,3.068,3.068,0,0,1,.97,2.42Zm-1.1.04a2.385,2.385,0,0,0-.61-1.76,2.416,2.416,0,0,0-1.77-.6,4.291,4.291,0,0,0-.85.06v4.89a5.557,5.557,0,0,0,.71.03,2.52,2.52,0,0,0,1.86-.67,2.66,2.66,0,0,0,.66-1.95Zm6.95,1a2.583,2.583,0,0,1-.61,1.78,2.227,2.227,0,0,1-1.73.72,2.1,2.1,0,0,1-1.65-.69,2.5,2.5,0,0,1-.62-1.73,2.56,2.56,0,0,1,.64-1.8,2.2,2.2,0,0,1,1.7-.7,2.139,2.139,0,0,1,1.68.7,2.452,2.452,0,0,1,.6,1.72Zm-1.08.03a2.241,2.241,0,0,0-.28-1.12,1.03,1.03,0,0,0-.94-.56,1.058,1.058,0,0,0-.96.56,2.166,2.166,0,0,0-.28,1.14,2.241,2.241,0,0,0,.28,1.12,1.065,1.065,0,0,0,.95.56,1.041,1.041,0,0,0,.94-.57,2.1,2.1,0,0,0,.3-1.13Zm8.95-2.35-1.48,4.71h-.96l-.61-2.04a14.85,14.85,0,0,1-.38-1.53h-.02a11.4,11.4,0,0,1-.38,1.53l-.65,2.04h-.97L55.94,8.72H57l.54,2.24c.12.53.23,1.03.32,1.51h.01a14.514,14.514,0,0,1,.4-1.5l.66-2.25h.86l.64,2.2c.15.54.28,1.06.38,1.55h.02c.08-.48.18-1,.32-1.55l.58-2.2h1.02Zm5.43,4.71H67.15v-2.7c0-.83-.32-1.24-.95-1.24a.95.95,0,0,0-.76.34,1.23,1.23,0,0,0-.29.8v2.8H64.1V10.07c0-.42,0-.87-.03-1.35h.92l.05.73h.03a1.519,1.519,0,0,1,.54-.56,1.727,1.727,0,0,1,.95-.27,1.508,1.508,0,0,1,1.1.43,2.081,2.081,0,0,1,.54,1.56Zm2.89,0H70.04V6.56h1.05Zm6.17-2.39a2.542,2.542,0,0,1-.62,1.78,2.227,2.227,0,0,1-1.73.72,2.1,2.1,0,0,1-1.65-.69,2.5,2.5,0,0,1-.62-1.73,2.56,2.56,0,0,1,.64-1.8,2.181,2.181,0,0,1,1.7-.7,2.139,2.139,0,0,1,1.68.7,2.452,2.452,0,0,1,.6,1.72Zm-1.09.03a2.241,2.241,0,0,0-.28-1.12,1.03,1.03,0,0,0-.94-.56,1.058,1.058,0,0,0-.96.56,2.166,2.166,0,0,0-.28,1.14,2.241,2.241,0,0,0,.28,1.12,1.065,1.065,0,0,0,.95.56,1.052,1.052,0,0,0,.94-.57,2.091,2.091,0,0,0,.29-1.13Zm6.16,2.36h-.94l-.08-.54h-.03a1.62,1.62,0,0,1-1.38.65,1.394,1.394,0,0,1-1.07-.43,1.34,1.34,0,0,1-.37-.96,1.483,1.483,0,0,1,.72-1.32,3.794,3.794,0,0,1,2.04-.44V10.3c0-.62-.33-.93-.98-.93a2.191,2.191,0,0,0-1.23.35l-.21-.69a2.982,2.982,0,0,1,1.61-.4c1.23,0,1.85.64,1.85,1.94v1.74a6.7,6.7,0,0,0,.07,1.12Zm-1.09-1.62v-.72c-1.15-.02-1.73.3-1.73.95a.69.69,0,0,0,.2.55.722.722,0,0,0,.51.18,1.067,1.067,0,0,0,.64-.21A.9.9,0,0,0,81.24,11.81Zm7.04,1.62h-.93l-.04-.75h-.03a1.577,1.577,0,0,1-1.52.86,1.742,1.742,0,0,1-1.41-.67,2.63,2.63,0,0,1-.57-1.73,2.682,2.682,0,0,1,.62-1.86,1.87,1.87,0,0,1,1.45-.66,1.431,1.431,0,0,1,1.33.64h.02V6.56h1.05v5.6C88.25,12.62,88.26,13.04,88.28,13.43ZM87.2,11.45v-.8a1.2,1.2,0,0,0-.4-.96,1.143,1.143,0,0,0-1.63.21,2,2,0,0,0-.34,1.2,1.823,1.823,0,0,0,.32,1.13,1.1,1.1,0,0,0,.92.47,1,1,0,0,0,.83-.4,1.27,1.27,0,0,0,.3-.86Zm10.05-.41a2.542,2.542,0,0,1-.62,1.78,2.227,2.227,0,0,1-1.73.72,2.086,2.086,0,0,1-1.65-.69,2.5,2.5,0,0,1-.62-1.73,2.56,2.56,0,0,1,.64-1.8,2.181,2.181,0,0,1,1.7-.7,2.139,2.139,0,0,1,1.68.7,2.452,2.452,0,0,1,.6,1.72Zm-1.09.03a2.241,2.241,0,0,0-.28-1.12,1.04,1.04,0,0,0-.94-.56,1.058,1.058,0,0,0-.96.56,2.166,2.166,0,0,0-.28,1.14,2.241,2.241,0,0,0,.28,1.12,1.065,1.065,0,0,0,.95.56,1.052,1.052,0,0,0,.94-.57,2.1,2.1,0,0,0,.3-1.13Zm6.72,2.36h-1.04v-2.7c0-.83-.32-1.24-.96-1.24a.906.906,0,0,0-.75.34,1.26,1.26,0,0,0-.3.8v2.8H98.8V10.07c0-.42-.01-.87-.04-1.35h.92l.05.73h.03a1.519,1.519,0,0,1,.54-.56,1.751,1.751,0,0,1,.95-.27,1.508,1.508,0,0,1,1.1.43,2.081,2.081,0,0,1,.54,1.56v2.82Zm7.06-3.93h-1.16v2.3c0,.58.2.87.61.87a1.923,1.923,0,0,0,.47-.05l.03.8a2.619,2.619,0,0,1-.82.11,1.28,1.28,0,0,1-.97-.38,1.854,1.854,0,0,1-.35-1.27V9.5h-.68V8.72h.68V7.85l1.03-.3V8.72h1.16Zm5.54,3.93h-1.05V10.75c0-.84-.31-1.26-.94-1.26a.991.991,0,0,0-1,.73,1.061,1.061,0,0,0-.05.38v2.83h-1.05V6.56h1.05V9.4h.02a1.576,1.576,0,0,1,1.41-.78,1.431,1.431,0,0,1,1.08.43,2.112,2.112,0,0,1,.53,1.58v2.8Zm5.72-2.58a2.229,2.229,0,0,1-.03.48h-3.15a1.386,1.386,0,0,0,.46,1.06,1.553,1.553,0,0,0,1.03.33,3.457,3.457,0,0,0,1.27-.22l.16.73a3.807,3.807,0,0,1-1.58.3,2.291,2.291,0,0,1-1.72-.65,2.378,2.378,0,0,1-.62-1.74,2.694,2.694,0,0,1,.58-1.77,2,2,0,0,1,1.65-.76,1.776,1.776,0,0,1,1.54.76,2.531,2.531,0,0,1,.42,1.48Zm-1-.27a1.329,1.329,0,0,0-.2-.8.92.92,0,0,0-.83-.44,1,1,0,0,0-.83.43,1.578,1.578,0,0,0-.32.81h2.19Z" transform="translate(-43.68 -6.56)" fill="#fff"/>
  </g>
</svg>
