<svg xmlns="http://www.w3.org/2000/svg" xmlns:xlink="http://www.w3.org/1999/xlink" width="102" height="102" viewBox="0 0 102 102">
  <defs>
    <clipPath id="clip-path">
      <rect id="Rectangle_11349" data-name="Rectangle 11349" width="102" height="102" fill="#fff" stroke="#707070" stroke-width="1"/>
    </clipPath>
  </defs>
  <g id="Mask_Group_29473" data-name="Mask Group 29473" clip-path="url(#clip-path)">
    <g id="mobile_2" data-name="mobile 2" transform="translate(29.553 9.535)">
      <path id="Path_19737" data-name="Path 19737" d="M50.191,0H15.876a4.29,4.29,0,0,0-4.29,4.29V78.64a4.29,4.29,0,0,0,4.29,4.29H50.191a4.29,4.29,0,0,0,4.29-4.29V4.29A4.29,4.29,0,0,0,50.191,0ZM27.314,5.719a1.43,1.43,0,0,1,1.43-1.43h8.579a1.43,1.43,0,0,1,1.43,1.43h0a1.43,1.43,0,0,1-1.43,1.43H28.744a1.43,1.43,0,0,1-1.43-1.43Zm-4.29-1.43a1.43,1.43,0,1,1-1.43,1.43A1.43,1.43,0,0,1,23.025,4.29ZM33.034,80.07a2.86,2.86,0,1,1,2.86-2.86A2.86,2.86,0,0,1,33.034,80.07ZM51.621,54.333V71.491H14.446V11.439H51.621V54.333Z" transform="translate(-11.586)" fill="#707384"/>
      <path id="Path_19738" data-name="Path 19738" d="M13.241,49.515H24.68a1.43,1.43,0,0,1,2.86,0H30.4a1.43,1.43,0,1,1,2.86,0h2.86a1.43,1.43,0,0,1,2.86,0H50.417V6.621H13.241ZM38.978,13.77a1.43,1.43,0,0,1,1.43-1.43h5.719a1.43,1.43,0,0,1,1.43,1.43v5.719a1.43,1.43,0,0,1-1.43,1.43H40.408a1.43,1.43,0,0,1-1.43-1.43Zm0,11.438a1.43,1.43,0,0,1,1.43-1.43h5.719a1.43,1.43,0,0,1,1.43,1.43v5.719a1.43,1.43,0,0,1-1.43,1.43H40.408a1.43,1.43,0,0,1-1.43-1.43Zm0,11.439a1.43,1.43,0,0,1,1.43-1.43h5.719a1.43,1.43,0,0,1,1.43,1.43v5.719a1.43,1.43,0,0,1-1.43,1.43H40.408a1.43,1.43,0,0,1-1.43-1.43ZM27.54,13.77a1.43,1.43,0,0,1,1.43-1.43h5.719a1.43,1.43,0,0,1,1.43,1.43v5.719a1.43,1.43,0,0,1-1.43,1.43H28.969a1.43,1.43,0,0,1-1.43-1.43Zm0,11.438a1.43,1.43,0,0,1,1.43-1.43h5.719a1.43,1.43,0,0,1,1.43,1.43v5.719a1.43,1.43,0,0,1-1.43,1.43H28.969a1.43,1.43,0,0,1-1.43-1.43Zm0,11.439a1.43,1.43,0,0,1,1.43-1.43h5.719a1.43,1.43,0,0,1,1.43,1.43v5.719a1.43,1.43,0,0,1-1.43,1.43H28.969a1.43,1.43,0,0,1-1.43-1.43ZM16.1,13.77a1.43,1.43,0,0,1,1.43-1.43H23.25a1.43,1.43,0,0,1,1.43,1.43v5.719a1.43,1.43,0,0,1-1.43,1.43H17.531a1.43,1.43,0,0,1-1.43-1.43Zm0,11.438a1.43,1.43,0,0,1,1.43-1.43H23.25a1.43,1.43,0,0,1,1.43,1.43v5.719a1.43,1.43,0,0,1-1.43,1.43H17.531a1.43,1.43,0,0,1-1.43-1.43Zm0,11.439a1.43,1.43,0,0,1,1.43-1.43H23.25a1.43,1.43,0,0,1,1.43,1.43v5.719a1.43,1.43,0,0,1-1.43,1.43H17.531a1.43,1.43,0,0,1-1.43-1.43Z" transform="translate(-10.382 4.818)" fill="#63afdb"/>
      <path id="Path_19739" data-name="Path 19739" d="M37.548,32.878a1.43,1.43,0,0,1-1.43-1.43h-2.86a1.43,1.43,0,0,1-2.86,0H27.54a1.43,1.43,0,0,1-2.86,0H13.241V48.606H50.416V31.448H38.978A1.429,1.429,0,0,1,37.548,32.878ZM24.68,42.887a1.43,1.43,0,0,1-1.43,1.43H17.531a1.43,1.43,0,0,1-1.43-1.43V37.168a1.43,1.43,0,0,1,1.43-1.43H23.25a1.43,1.43,0,0,1,1.43,1.43Zm11.439,0a1.43,1.43,0,0,1-1.43,1.43H28.97a1.43,1.43,0,0,1-1.43-1.43V37.168a1.43,1.43,0,0,1,1.43-1.43h5.719a1.43,1.43,0,0,1,1.43,1.43Zm4.29-7.149h5.719a1.43,1.43,0,0,1,1.43,1.43v5.719a1.43,1.43,0,0,1-1.43,1.43H40.408a1.43,1.43,0,0,1-1.43-1.43V37.168A1.43,1.43,0,0,1,40.408,35.738Z" transform="translate(-10.382 22.885)" fill="#468cbe"/>
      <g id="Group_29811" data-name="Group 29811" transform="translate(10.009 4.289)">
        <path id="Path_19740" data-name="Path 19740" d="M22.119,5.342H30.7a1.43,1.43,0,0,0,1.43-1.43h0a1.43,1.43,0,0,0-1.43-1.43H22.119a1.43,1.43,0,0,0-1.43,1.43h0A1.43,1.43,0,0,0,22.119,5.342Z" transform="translate(-14.97 -2.483)" fill="#464655"/>
        <circle id="Ellipse_663" data-name="Ellipse 663" cx="1.43" cy="1.43" r="1.43" fill="#464655"/>
        <circle id="Ellipse_664" data-name="Ellipse 664" cx="2.86" cy="2.86" r="2.86" transform="translate(8.579 70.061)" fill="#464655"/>
      </g>
      <path id="Path_19741" data-name="Path 19741" d="M28.666,33.931H22.947a1.43,1.43,0,0,0-1.43,1.43V41.08a1.43,1.43,0,0,0,1.43,1.43h5.719a1.43,1.43,0,0,0,1.43-1.43V35.361A1.43,1.43,0,0,0,28.666,33.931Zm-2.86,7.149a2.86,2.86,0,1,1,2.86-2.86A2.86,2.86,0,0,1,25.807,41.08Z" transform="translate(-4.359 24.692)" fill="#63afdb"/>
      <path id="Path_19742" data-name="Path 19742" d="M28.138,41.08a1.43,1.43,0,0,0,1.43,1.43h5.719a1.43,1.43,0,0,0,1.43-1.43V35.361a1.43,1.43,0,0,0-1.43-1.43H29.568a1.43,1.43,0,0,0-1.43,1.43Z" transform="translate(0.459 24.692)" fill="#ff6469"/>
      <path id="Path_19743" data-name="Path 19743" d="M22.046,33.931H16.326a1.43,1.43,0,0,0-1.43,1.43V41.08a1.43,1.43,0,0,0,1.43,1.43h5.719a1.43,1.43,0,0,0,1.43-1.43V35.361A1.43,1.43,0,0,0,22.046,33.931Z" transform="translate(-9.177 24.692)" fill="#00dccd"/>
      <path id="Path_19744" data-name="Path 19744" d="M22.947,31.751h5.719a1.43,1.43,0,0,0,1.43-1.43V24.6a1.43,1.43,0,0,0-1.43-1.43H22.947a1.43,1.43,0,0,0-1.43,1.43v5.719A1.43,1.43,0,0,0,22.947,31.751Z" transform="translate(-4.359 16.863)" fill="#ffdc69"/>
      <path id="Path_19745" data-name="Path 19745" d="M29.568,31.751h5.719a1.43,1.43,0,0,0,1.43-1.43V24.6a1.43,1.43,0,0,0-1.43-1.43H29.568a1.43,1.43,0,0,0-1.43,1.43v5.719A1.43,1.43,0,0,0,29.568,31.751Zm0-4.29A1.43,1.43,0,0,1,31,26.032h2.86a1.43,1.43,0,0,1,1.43,1.43h0a1.43,1.43,0,0,1-1.43,1.43H31a1.43,1.43,0,0,1-1.43-1.43Z" transform="translate(0.459 16.863)" fill="#fff"/>
      <path id="Path_19746" data-name="Path 19746" d="M16.326,31.751h5.719a1.43,1.43,0,0,0,1.43-1.43V24.6a1.43,1.43,0,0,0-1.43-1.43H16.326A1.43,1.43,0,0,0,14.9,24.6v5.719A1.43,1.43,0,0,0,16.326,31.751Zm0-4.29a1.43,1.43,0,0,1,1.43-1.43h2.86a1.43,1.43,0,0,1,1.43,1.43h0a1.43,1.43,0,0,1-1.43,1.43h-2.86a1.43,1.43,0,0,1-1.43-1.43Z" transform="translate(-9.177 16.863)" fill="#468cbe"/>
      <path id="Path_19747" data-name="Path 19747" d="M22.947,25.131h5.719A1.43,1.43,0,0,0,30.1,23.7V17.982a1.43,1.43,0,0,0-1.43-1.43H22.947a1.43,1.43,0,0,0-1.43,1.43V23.7A1.43,1.43,0,0,0,22.947,25.131Zm0-4.29a1.43,1.43,0,0,1,1.43-1.43h2.86a1.43,1.43,0,0,1,1.43,1.43h0a1.43,1.43,0,0,1-1.43,1.43h-2.86a1.43,1.43,0,0,1-1.43-1.43Z" transform="translate(-4.359 12.045)" fill="#464655"/>
      <path id="Path_19748" data-name="Path 19748" d="M29.568,25.131h5.719a1.43,1.43,0,0,0,1.43-1.43V17.982a1.43,1.43,0,0,0-1.43-1.43H29.568a1.43,1.43,0,0,0-1.43,1.43V23.7A1.43,1.43,0,0,0,29.568,25.131Z" transform="translate(0.459 12.045)" fill="#ffa055"/>
      <path id="Path_19749" data-name="Path 19749" d="M16.326,25.131h5.719a1.43,1.43,0,0,0,1.43-1.43V17.982a1.43,1.43,0,0,0-1.43-1.43H16.326a1.43,1.43,0,0,0-1.43,1.43V23.7A1.43,1.43,0,0,0,16.326,25.131Zm2.86-7.149a2.86,2.86,0,1,1-2.86,2.86A2.86,2.86,0,0,1,19.186,17.982Z" transform="translate(-9.177 12.045)" fill="#a0d778"/>
      <path id="Path_19750" data-name="Path 19750" d="M22.947,18.51h5.719a1.43,1.43,0,0,0,1.43-1.43V11.361a1.43,1.43,0,0,0-1.43-1.43H22.947a1.43,1.43,0,0,0-1.43,1.43V17.08A1.43,1.43,0,0,0,22.947,18.51Z" transform="translate(-4.359 7.227)" fill="#ff6469"/>
      <path id="Path_19751" data-name="Path 19751" d="M29.568,18.51h5.719a1.43,1.43,0,0,0,1.43-1.43V11.361a1.43,1.43,0,0,0-1.43-1.43H29.568a1.43,1.43,0,0,0-1.43,1.43V17.08A1.43,1.43,0,0,0,29.568,18.51Zm2.86-7.149a2.86,2.86,0,1,1-2.86,2.86A2.86,2.86,0,0,1,32.427,11.361Z" transform="translate(0.459 7.227)" fill="#00dccd"/>
      <g id="Group_29812" data-name="Group 29812" transform="translate(5.719 17.158)">
        <path id="Path_19752" data-name="Path 19752" d="M16.326,18.51h5.719a1.43,1.43,0,0,0,1.43-1.43V11.361a1.43,1.43,0,0,0-1.43-1.43H16.326a1.43,1.43,0,0,0-1.43,1.43V17.08A1.43,1.43,0,0,0,16.326,18.51Z" transform="translate(-14.896 -9.931)" fill="#ffdc69"/>
        <circle id="Ellipse_665" data-name="Ellipse 665" cx="2.86" cy="2.86" r="2.86" transform="translate(1.43 12.868)" fill="#ffdc69"/>
        <circle id="Ellipse_666" data-name="Ellipse 666" cx="2.86" cy="2.86" r="2.86" transform="translate(12.869 42.895)" fill="#ffdc69"/>
      </g>
      <circle id="Ellipse_667" data-name="Ellipse 667" cx="2.86" cy="2.86" r="2.86" transform="translate(30.026 18.588)" fill="#ff6469"/>
      <path id="Path_19753" data-name="Path 19753" d="M23.775,21.067h2.86a1.43,1.43,0,0,0,1.43-1.43h0a1.43,1.43,0,0,0-1.43-1.43h-2.86a1.43,1.43,0,0,0-1.43,1.43h0A1.43,1.43,0,0,0,23.775,21.067Z" transform="translate(-3.757 13.249)" fill="#468cbe"/>
      <path id="Path_19754" data-name="Path 19754" d="M30.4,27.687h2.86a1.43,1.43,0,0,0,1.43-1.43h0a1.43,1.43,0,0,0-1.43-1.43H30.4a1.43,1.43,0,0,0-1.43,1.43h0A1.43,1.43,0,0,0,30.4,27.687Z" transform="translate(1.061 18.067)" fill="#ff6469"/>
      <path id="Path_19755" data-name="Path 19755" d="M17.154,27.687h2.86a1.43,1.43,0,0,0,1.43-1.43h0a1.43,1.43,0,0,0-1.43-1.43h-2.86a1.43,1.43,0,0,0-1.43,1.43h0A1.43,1.43,0,0,0,17.154,27.687Z" transform="translate(-8.575 18.067)" fill="#fff"/>
      <circle id="Ellipse_668" data-name="Ellipse 668" cx="1.43" cy="1.43" r="1.43" transform="translate(14.298 52.903)" fill="#464655"/>
      <g id="Group_29813" data-name="Group 29813" transform="translate(20.017 52.903)">
        <circle id="Ellipse_669" data-name="Ellipse 669" cx="1.43" cy="1.43" r="1.43" transform="translate(0)" fill="#fff"/>
        <circle id="Ellipse_670" data-name="Ellipse 670" cx="1.43" cy="1.43" r="1.43" transform="translate(5.719)" fill="#fff"/>
      </g>
    </g>
  </g>
</svg>
