<svg xmlns="http://www.w3.org/2000/svg" xmlns:xlink="http://www.w3.org/1999/xlink" width="102" height="102" viewBox="0 0 102 102">
  <defs>
    <clipPath id="clip-path">
      <rect id="Rectangle_11348" data-name="Rectangle 11348" width="102" height="102" fill="#fff" stroke="#707070" stroke-width="1"/>
    </clipPath>
  </defs>
  <g id="Mask_Group_29472" data-name="Mask Group 29472" clip-path="url(#clip-path)">
    <g id="properity_2" data-name="properity 2" transform="translate(14.802 13.333)">
      <path id="Path_19697" data-name="Path 19697" d="M14.495,23.168H5.447a.514.514,0,0,0-.514.514V29.7a.514.514,0,0,0,.514.514h9.048a.514.514,0,0,0,.514-.514V23.682A.514.514,0,0,0,14.495,23.168Z" transform="translate(1.4 13.472)" fill="#55a2f0"/>
      <path id="Path_19698" data-name="Path 19698" d="M12.642,23.168H8.12v7.049h4.521a.514.514,0,0,0,.514-.514V23.682A.514.514,0,0,0,12.642,23.168Z" transform="translate(3.253 13.472)" fill="#4b9ee2"/>
      <path id="Path_19699" data-name="Path 19699" d="M38.206,5.469A1.127,1.127,0,0,0,37.078,6.6V17.953a1.127,1.127,0,1,0,2.255,0V6.6A1.127,1.127,0,0,0,38.206,5.469Z" transform="translate(20.092 3.18)" fill="#2d5872"/>
      <path id="Path_19700" data-name="Path 19700" d="M40.822,18.471H37.027a1.185,1.185,0,0,1-1.185-1.185V13.14a1.185,1.185,0,0,1,1.185-1.185h3.794a1.185,1.185,0,0,1,1.185,1.185v4.146A1.185,1.185,0,0,1,40.822,18.471Z" transform="translate(19.373 6.952)" fill="#ff4c4c"/>
      <path id="Path_19701" data-name="Path 19701" d="M48.124,28.531h-14.5A1.129,1.129,0,0,1,32.492,27.4V16.455a1.129,1.129,0,0,1,1.129-1.129h14.5a1.129,1.129,0,0,1,1.129,1.129V27.4A1.129,1.129,0,0,1,48.124,28.531Z" transform="translate(17.425 8.912)" fill="#f33a3a"/>
      <path id="Path_19702" data-name="Path 19702" d="M54.672,65.012H29.221V18.743H54.047a.625.625,0,0,1,.625.625Z" transform="translate(15.523 10.899)" fill="#ff4c4c"/>
      <path id="Path_19703" data-name="Path 19703" d="M47.46,18.743H40.548a.625.625,0,0,1,.625.625V65.012h6.913V19.368A.625.625,0,0,0,47.46,18.743Z" transform="translate(22.11 10.899)" fill="#f33a3a"/>
      <g id="Group_29807" data-name="Group 29807" transform="translate(49.917 36.64)">
        <path id="Path_19704" data-name="Path 19704" d="M48.01,27.2H33.426a.935.935,0,0,1-.935-.935V24.1a.935.935,0,0,1,.935-.935H48.01a.935.935,0,0,1,.935.935v2.162A.935.935,0,0,1,48.01,27.2Z" transform="translate(-32.492 -23.168)" fill="#e1effb"/>
        <path id="Path_19705" data-name="Path 19705" d="M48.01,33.043H33.426a.935.935,0,0,1-.935-.935V29.947a.935.935,0,0,1,.935-.935H48.01a.935.935,0,0,1,.935.935v2.162A.935.935,0,0,1,48.01,33.043Z" transform="translate(-32.492 -19.77)" fill="#e1effb"/>
        <path id="Path_19706" data-name="Path 19706" d="M48.01,38.886H33.426a.935.935,0,0,1-.935-.935V35.79a.935.935,0,0,1,.935-.935H48.01a.935.935,0,0,1,.935.935v2.162A.935.935,0,0,1,48.01,38.886Z" transform="translate(-32.492 -16.372)" fill="#e1effb"/>
        <path id="Path_19707" data-name="Path 19707" d="M48.01,44.73H33.426a.935.935,0,0,1-.935-.935V41.634a.935.935,0,0,1,.935-.935H48.01a.935.935,0,0,1,.935.935V43.8A.935.935,0,0,1,48.01,44.73Z" transform="translate(-32.492 -12.974)" fill="#e1effb"/>
      </g>
      <path id="Path_19708" data-name="Path 19708" d="M44.524,75.411H15.135a.851.851,0,0,1-.851-.851V1.712a.851.851,0,0,1,.851-.851H44.524a.851.851,0,0,1,.851.851V74.56A.851.851,0,0,1,44.524,75.411Z" transform="translate(6.837 0.501)" fill="#ffb125"/>
      <g id="Group_29808" data-name="Group 29808" transform="translate(19.004)">
        <path id="Path_19709" data-name="Path 19709" d="M35.947.861H29.034a.851.851,0,0,1,.851.851V74.56a.851.851,0,0,1-.851.851h6.913a.851.851,0,0,0,.851-.851V1.712A.851.851,0,0,0,35.947.861Z" transform="translate(-3.59 0.501)" fill="#ff901d"/>
        <path id="Path_19710" data-name="Path 19710" d="M47.489,0H13.368a.422.422,0,0,0-.422.422V3.286a.422.422,0,0,0,.422.422H47.489a.422.422,0,0,0,.422-.422V.422A.422.422,0,0,0,47.489,0Z" transform="translate(-12.945 0)" fill="#ff901d"/>
      </g>
      <g id="Group_29809" data-name="Group 29809" transform="translate(24.985 7.819)">
        <path id="Path_19711" data-name="Path 19711" d="M21.389,11.047H17.254a.527.527,0,0,1-.527-.527V5.471a.527.527,0,0,1,.527-.527h4.135a.527.527,0,0,1,.527.527V10.52A.527.527,0,0,1,21.389,11.047Z" transform="translate(-16.727 -4.944)" fill="#e1effb"/>
        <path id="Path_19712" data-name="Path 19712" d="M27.135,11.047H23a.527.527,0,0,1-.527-.527V5.471A.527.527,0,0,1,23,4.944h4.135a.527.527,0,0,1,.527.527V10.52A.527.527,0,0,1,27.135,11.047Z" transform="translate(-13.386 -4.944)" fill="#e1effb"/>
        <path id="Path_19713" data-name="Path 19713" d="M32.88,11.047H28.746a.527.527,0,0,1-.527-.527V5.471a.527.527,0,0,1,.527-.527H32.88a.527.527,0,0,1,.527.527V10.52A.527.527,0,0,1,32.88,11.047Z" transform="translate(-10.045 -4.944)" fill="#e1effb"/>
        <path id="Path_19714" data-name="Path 19714" d="M21.389,19.658H17.254a.527.527,0,0,1-.527-.527V14.082a.527.527,0,0,1,.527-.527h4.135a.527.527,0,0,1,.527.527v5.049A.527.527,0,0,1,21.389,19.658Z" transform="translate(-16.727 0.063)" fill="#e1effb"/>
        <path id="Path_19715" data-name="Path 19715" d="M27.135,19.658H23a.527.527,0,0,1-.527-.527V14.082A.527.527,0,0,1,23,13.555h4.135a.527.527,0,0,1,.527.527v5.049A.527.527,0,0,1,27.135,19.658Z" transform="translate(-13.386 0.063)" fill="#e1effb"/>
        <path id="Path_19716" data-name="Path 19716" d="M32.88,19.658H28.746a.527.527,0,0,1-.527-.527V14.082a.527.527,0,0,1,.527-.527H32.88a.527.527,0,0,1,.527.527v5.049A.527.527,0,0,1,32.88,19.658Z" transform="translate(-10.045 0.063)" fill="#e1effb"/>
        <path id="Path_19717" data-name="Path 19717" d="M21.389,28.27H17.254a.527.527,0,0,1-.527-.527V22.694a.527.527,0,0,1,.527-.527h4.135a.527.527,0,0,1,.527.527v5.049A.527.527,0,0,1,21.389,28.27Z" transform="translate(-16.727 5.071)" fill="#e1effb"/>
        <path id="Path_19718" data-name="Path 19718" d="M27.135,28.27H23a.527.527,0,0,1-.527-.527V22.694A.527.527,0,0,1,23,22.166h4.135a.527.527,0,0,1,.527.527v5.049A.527.527,0,0,1,27.135,28.27Z" transform="translate(-13.386 5.071)" fill="#e1effb"/>
        <path id="Path_19719" data-name="Path 19719" d="M32.88,28.27H28.746a.527.527,0,0,1-.527-.527V22.694a.527.527,0,0,1,.527-.527H32.88a.527.527,0,0,1,.527.527v5.049A.527.527,0,0,1,32.88,28.27Z" transform="translate(-10.045 5.071)" fill="#e1effb"/>
        <path id="Path_19720" data-name="Path 19720" d="M27.135,36.881H23a.527.527,0,0,1-.527-.527V31.3A.527.527,0,0,1,23,30.778h4.135a.527.527,0,0,1,.527.527v5.049A.527.527,0,0,1,27.135,36.881Z" transform="translate(-13.386 10.078)" fill="#e1effb"/>
        <path id="Path_19721" data-name="Path 19721" d="M32.88,36.881H28.746a.527.527,0,0,1-.527-.527V31.3a.527.527,0,0,1,.527-.527H32.88a.527.527,0,0,1,.527.527v5.049A.527.527,0,0,1,32.88,36.881Z" transform="translate(-10.045 10.078)" fill="#e1effb"/>
        <path id="Path_19722" data-name="Path 19722" d="M27.135,45.492H23a.527.527,0,0,1-.527-.527V39.916A.527.527,0,0,1,23,39.389h4.135a.527.527,0,0,1,.527.527v5.049A.527.527,0,0,1,27.135,45.492Z" transform="translate(-13.386 15.085)" fill="#e1effb"/>
        <path id="Path_19723" data-name="Path 19723" d="M32.88,45.492H28.746a.527.527,0,0,1-.527-.527V39.916a.527.527,0,0,1,.527-.527H32.88a.527.527,0,0,1,.527.527v5.049A.527.527,0,0,1,32.88,45.492Z" transform="translate(-10.045 15.085)" fill="#e1effb"/>
      </g>
      <path id="Path_19724" data-name="Path 19724" d="M34.6,60.658H3.336a.65.65,0,0,1-.65-.65V26.881a.65.65,0,0,1,.65-.65H34.6a.65.65,0,0,1,.65.65V60.008A.65.65,0,0,1,34.6,60.658Z" transform="translate(0.094 15.253)" fill="#61aff6"/>
      <path id="Path_19725" data-name="Path 19725" d="M25.456,26.231H18.418a.65.65,0,0,1,.65.65V60.008a.65.65,0,0,1-.65.65h7.037a.65.65,0,0,0,.65-.65V26.881A.65.65,0,0,0,25.456,26.231Z" transform="translate(9.242 15.253)" fill="#55a2f0"/>
      <g id="Group_29810" data-name="Group 29810" transform="translate(6.629 46.969)">
        <path id="Path_19726" data-name="Path 19726" d="M9.865,33.611H5.773a.652.652,0,0,1-.652-.652V30.352a.652.652,0,0,1,.652-.652H9.865a.652.652,0,0,1,.652.652v2.606A.652.652,0,0,1,9.865,33.611Z" transform="translate(-5.12 -29.699)" fill="#e1effb"/>
        <path id="Path_19727" data-name="Path 19727" d="M15.888,33.611H11.8a.652.652,0,0,1-.652-.652V30.352A.652.652,0,0,1,11.8,29.7h4.092a.652.652,0,0,1,.652.652v2.606A.652.652,0,0,1,15.888,33.611Z" transform="translate(-1.618 -29.699)" fill="#e1effb"/>
        <path id="Path_19728" data-name="Path 19728" d="M21.912,33.611H17.82a.652.652,0,0,1-.652-.652V30.352a.652.652,0,0,1,.652-.652h4.092a.652.652,0,0,1,.652.652v2.606A.652.652,0,0,1,21.912,33.611Z" transform="translate(1.885 -29.699)" fill="#e1effb"/>
        <path id="Path_19729" data-name="Path 19729" d="M9.865,39.395H5.773a.652.652,0,0,1-.652-.652V36.136a.652.652,0,0,1,.652-.652H9.865a.652.652,0,0,1,.652.652v2.606A.652.652,0,0,1,9.865,39.395Z" transform="translate(-5.12 -26.336)" fill="#e1effb"/>
        <path id="Path_19730" data-name="Path 19730" d="M15.888,39.395H11.8a.652.652,0,0,1-.652-.652V36.136a.652.652,0,0,1,.652-.652h4.092a.652.652,0,0,1,.652.652v2.606A.652.652,0,0,1,15.888,39.395Z" transform="translate(-1.618 -26.336)" fill="#e1effb"/>
        <path id="Path_19731" data-name="Path 19731" d="M21.912,39.395H17.82a.652.652,0,0,1-.652-.652V36.136a.652.652,0,0,1,.652-.652h4.092a.652.652,0,0,1,.652.652v2.606A.652.652,0,0,1,21.912,39.395Z" transform="translate(1.885 -26.336)" fill="#e1effb"/>
        <path id="Path_19732" data-name="Path 19732" d="M9.865,45.179H5.773a.652.652,0,0,1-.652-.652V41.92a.652.652,0,0,1,.652-.652H9.865a.652.652,0,0,1,.652.652v2.606A.652.652,0,0,1,9.865,45.179Z" transform="translate(-5.12 -22.972)" fill="#e1effb"/>
        <path id="Path_19733" data-name="Path 19733" d="M15.888,45.179H11.8a.652.652,0,0,1-.652-.652V41.92a.652.652,0,0,1,.652-.652h4.092a.652.652,0,0,1,.652.652v2.606A.652.652,0,0,1,15.888,45.179Z" transform="translate(-1.618 -22.972)" fill="#e1effb"/>
        <path id="Path_19734" data-name="Path 19734" d="M21.912,45.179H17.82a.652.652,0,0,1-.652-.652V41.92a.652.652,0,0,1,.652-.652h4.092a.652.652,0,0,1,.652.652v2.606A.652.652,0,0,1,21.912,45.179Z" transform="translate(1.885 -22.972)" fill="#e1effb"/>
      </g>
      <path id="Path_19735" data-name="Path 19735" d="M72.162,45.8H2.67A1.741,1.741,0,0,0,.928,47.539h0A1.741,1.741,0,0,0,2.67,49.28H72.162A1.741,1.741,0,0,0,73.9,47.539h0A1.742,1.742,0,0,0,72.162,45.8Z" transform="translate(-0.928 26.631)" fill="#2d5872"/>
      <path id="Path_19736" data-name="Path 19736" d="M73.892,47.348c0-.012,0-.023-.005-.034-.007-.053-.016-.1-.027-.156l-.006-.022q-.02-.084-.048-.165l0-.006a1.748,1.748,0,0,0-.07-.17h0a1.74,1.74,0,0,0-1.572-1H66.99v.443a1.549,1.549,0,0,1-1.549,1.549H2.67a1.74,1.74,0,0,1-1.572-1,1.731,1.731,0,0,0-.169.745h0A1.741,1.741,0,0,0,2.67,49.28H72.162A1.741,1.741,0,0,0,73.9,47.539h0A1.765,1.765,0,0,0,73.892,47.348Z" transform="translate(-0.928 26.631)" fill="#1d4859"/>
    </g>
  </g>
</svg>
