<svg xmlns="http://www.w3.org/2000/svg" xmlns:xlink="http://www.w3.org/1999/xlink" width="102" height="102" viewBox="0 0 102 102">
  <defs>
    <clipPath id="clip-path">
      <rect id="Rectangle_11327" data-name="Rectangle 11327" width="102" height="102" fill="#fff" stroke="#707070" stroke-width="1"/>
    </clipPath>
  </defs>
  <g id="Mask_Group_29455" data-name="Mask Group 29455" clip-path="url(#clip-path)">
    <g id="kids" transform="translate(16.695 12.118)">
      <g id="Group_29759" data-name="Group 29759" transform="translate(11.331 17.467)">
        <path id="Path_19521" data-name="Path 19521" d="M10.772,13.829a1.157,1.157,0,0,0-1.157,1.157v43.5a1.157,1.157,0,1,0,2.313,0v-43.5A1.157,1.157,0,0,0,10.772,13.829Z" transform="translate(-9.615 -8.415)" fill="#aa776d"/>
        <path id="Path_19522" data-name="Path 19522" d="M36.842,13.829a1.157,1.157,0,0,0-1.157,1.157v43.5a1.157,1.157,0,1,0,2.313,0v-43.5A1.157,1.157,0,0,0,36.842,13.829Z" transform="translate(7.449 -8.415)" fill="#aa776d"/>
        <path id="Path_19523" data-name="Path 19523" d="M24.084,10.557a1.157,1.157,0,0,0-1.157,1.157V64.53a1.157,1.157,0,0,0,2.313,0V11.713A1.157,1.157,0,0,0,24.084,10.557Z" transform="translate(-0.901 -10.557)" fill="#aa776d"/>
      </g>
      <path id="Path_19524" data-name="Path 19524" d="M14.548,21.793l2.1,6.458a.341.341,0,0,0,.325.236h6.79a.341.341,0,0,1,.2.618L18.468,33.1a.341.341,0,0,0-.124.382l2.1,6.458a.341.341,0,0,1-.525.382l-5.493-3.991a.342.342,0,0,0-.4,0L8.529,40.317A.341.341,0,0,1,8,39.935l2.1-6.458a.341.341,0,0,0-.124-.382L4.484,29.1a.341.341,0,0,1,.2-.618h6.79a.341.341,0,0,0,.325-.236l2.1-6.458A.342.342,0,0,1,14.548,21.793Z" transform="translate(-1.735 14.11)" fill="#c7a0cf"/>
      <circle id="Ellipse_644" data-name="Ellipse 644" cx="3.078" cy="3.078" r="3.078" transform="translate(9.411 62.808)" fill="#f77fa4"/>
      <path id="Path_19525" data-name="Path 19525" d="M38.747,21.412,32.4,30.9a.341.341,0,0,0,0,.38l6.346,9.489a.341.341,0,0,0,.568,0l6.346-9.489a.341.341,0,0,0,0-.38l-6.346-9.489A.341.341,0,0,0,38.747,21.412Z" transform="translate(16.593 13.916)" fill="#73e7e6"/>
      <g id="Group_29760" data-name="Group 29760" transform="translate(30.985 36.861)">
        <circle id="Ellipse_645" data-name="Ellipse 645" cx="3.078" cy="3.078" r="3.078" transform="translate(21.56 25.947)" fill="#f77fa4"/>
        <circle id="Ellipse_646" data-name="Ellipse 646" cx="3.475" cy="3.475" r="3.475" transform="translate(0)" fill="#f77fa4"/>
      </g>
      <path id="Path_19526" data-name="Path 19526" d="M27.442,44.791a10.583,10.583,0,0,1,6.85-9.9,10.581,10.581,0,1,0,0,19.8A10.583,10.583,0,0,1,27.442,44.791Z" transform="translate(8.501 22.392)" fill="#ff9f40"/>
      <path id="Path_19527" data-name="Path 19527" d="M33.008,34.62c-8.326.76-11.065,5.372-11.065,9.9,0,4.373,2.314,9.7,10.611,10.061q.229-.075.454-.159a10.582,10.582,0,0,1,0-19.8Z" transform="translate(9.785 22.661)" fill="#f49138"/>
      <path id="Path_19528" data-name="Path 19528" d="M25.76,47.025c.335.032.674.05,1.018.05a10.584,10.584,0,0,0,1.988-.189C27.841,46.953,26.766,47,25.76,47.025Z" transform="translate(12.284 30.689)" fill="#ff9f40"/>
      <path id="Path_19529" data-name="Path 19529" d="M68.767,25.276a2.61,2.61,0,0,1-1.959-.875c-2.67-2.993-6.763-5.538-11.836-7.359a53.342,53.342,0,0,0-17.92-2.916,53.345,53.345,0,0,0-17.907,2.994c-5.065,1.843-9.147,4.405-11.8,7.41a2.616,2.616,0,1,1-3.92-3.465c6.61-7.477,19.492-12.14,33.618-12.171s27.029,4.577,33.671,12.024a2.616,2.616,0,0,1-1.945,4.357Z" transform="translate(-2.767 5.822)" fill="#5c576b"/>
      <path id="Path_19530" data-name="Path 19530" d="M26.8,15.718a7.859,7.859,0,1,1,7.859-7.859A7.868,7.868,0,0,1,26.8,15.718Zm0-13.405a5.546,5.546,0,1,0,5.546,5.546A5.552,5.552,0,0,0,26.8,2.313Z" transform="translate(7.82)" fill="#f26666"/>
      <path id="Path_19531" data-name="Path 19531" d="M70.726,23.146c.037-.042.072-.084.106-.128l.052-.069c.031-.043.06-.087.088-.132.015-.023.03-.046.043-.069.033-.056.063-.112.091-.17.006-.013.014-.025.02-.038.032-.068.06-.138.086-.208.01-.028.019-.056.028-.084.015-.044.029-.089.041-.134s.017-.066.025-.1.018-.083.025-.124.013-.069.018-.1.01-.087.014-.13.008-.1.009-.156,0-.1,0-.149,0-.081-.008-.122-.005-.068-.009-.1-.011-.084-.018-.126-.011-.064-.018-.1-.018-.086-.029-.128-.017-.058-.025-.088a2.6,2.6,0,0,0-.556-1.005,26.52,26.52,0,0,0-4.29-3.824l-.187.25a3.329,3.329,0,0,1-4.424.845,35.788,35.788,0,0,0-6.84-3.255,53.342,53.342,0,0,0-17.92-2.916,53.345,53.345,0,0,0-17.907,2.994,28.894,28.894,0,0,0-11.777,7.38,2.656,2.656,0,0,1-3.556.39,2.6,2.6,0,0,1-.823-1.041,2.616,2.616,0,0,0,.768,3.106,2.647,2.647,0,0,0,3.606-.341,28.884,28.884,0,0,1,11.783-7.387,53.341,53.341,0,0,1,17.907-2.994,53.343,53.343,0,0,1,17.92,2.916,34.006,34.006,0,0,1,8.322,4.244h0q.265.19.521.384c.093.07.183.141.274.212s.206.162.307.243q.129.1.256.209.184.153.363.309c.057.049.115.1.171.147q.253.224.493.452c.056.053.111.107.166.16q.179.173.351.348l.149.153c.158.164.313.329.462.5a2.616,2.616,0,0,0,3.693.211c.062-.055.119-.113.175-.172C70.693,23.185,70.71,23.165,70.726,23.146Z" transform="translate(-2.766 7.058)" fill="#4f4b5e"/>
      <path id="Path_19532" data-name="Path 19532" d="M36.668,21.412a.339.339,0,0,0-.282-.151V40.921a.339.339,0,0,0,.282-.151l6.346-9.489a.341.341,0,0,0,0-.38Z" transform="translate(19.239 13.916)" fill="#65d1cb"/>
      <path id="Path_19533" data-name="Path 19533" d="M23.6,22.278v6.949a3.475,3.475,0,0,0,0-6.949Z" transform="translate(10.869 14.582)" fill="#e56795"/>
      <path id="Path_19534" data-name="Path 19534" d="M19.86,28.486H13.07a.341.341,0,0,1-.325-.236l-2.1-6.458a.334.334,0,0,0-.345-.233v14.7a.338.338,0,0,1,.221.062l5.493,3.991a.341.341,0,0,0,.525-.382l-2.1-6.458a.341.341,0,0,1,.124-.382L20.061,29.1A.341.341,0,0,0,19.86,28.486Z" transform="translate(2.166 14.111)" fill="#b18cba"/>
      <g id="Group_29761" data-name="Group 29761" transform="translate(12.468 62.807)">
        <path id="Path_19535" data-name="Path 19535" d="M10.322,37.96H10.3v6.153h.02a3.078,3.078,0,1,0,0-6.155Z" transform="translate(-10.302 -37.96)" fill="#e56795"/>
        <path id="Path_19536" data-name="Path 19536" d="M36.388,37.96H36.38v6.154h.008a3.078,3.078,0,1,0,0-6.155Z" transform="translate(6.768 -37.96)" fill="#e56795"/>
      </g>
    </g>
  </g>
</svg>
