<svg xmlns="http://www.w3.org/2000/svg" xmlns:xlink="http://www.w3.org/1999/xlink" width="102" height="102" viewBox="0 0 102 102">
  <defs>
    <clipPath id="clip-path">
      <rect id="Rectangle_11387" data-name="Rectangle 11387" width="102" height="102" fill="#fff" stroke="#707070" stroke-width="1"/>
    </clipPath>
  </defs>
  <g id="Mask_Group_29491" data-name="Mask Group 29491" clip-path="url(#clip-path)">
    <g id="constructions" transform="translate(14.249 14.249)">
      <g id="Group_29932" data-name="Group 29932" transform="translate(0 0)">
        <g id="Group_29931" data-name="Group 29931">
          <g id="Group_29920" data-name="Group 29920" transform="translate(45.226 0)">
            <path id="Path_20017" data-name="Path 20017" d="M323.121,29.089l.621-3.292a11.472,11.472,0,0,0,3.864-2.337l3.011,1.066a1.248,1.248,0,0,0,1.5-.555l1.8-3.115a1.253,1.253,0,0,0-.265-1.576l-2.531-2.18a11.415,11.415,0,0,0-.073-4.521l2.431-2.086a1.256,1.256,0,0,0,.273-1.576L331.965,5.8a1.242,1.242,0,0,0-1.493-.554L327.323,6.36a11.307,11.307,0,0,0-3.94-2.182l-.58-3.155A1.244,1.244,0,0,0,321.58,0H318a1.252,1.252,0,0,0-1.229,1.022l-.621,3.292a11.472,11.472,0,0,0-3.864,2.337L309.27,5.587a1.248,1.248,0,0,0-1.5.555l-1.8,3.115a1.253,1.253,0,0,0,.265,1.576l2.531,2.18a11.415,11.415,0,0,0,.073,4.521l-2.431,2.086a1.256,1.256,0,0,0-.273,1.576l1.784,3.115a1.242,1.242,0,0,0,1.493.554l3.149-1.113a11.308,11.308,0,0,0,3.94,2.182l.58,3.155a1.244,1.244,0,0,0,1.223,1.021h3.584a1.252,1.252,0,0,0,1.229-1.022ZM315.35,17.715a5.336,5.336,0,0,1,1.957-7.263,5.278,5.278,0,0,1,7.231,1.945,5.336,5.336,0,0,1-1.957,7.263A5.278,5.278,0,0,1,315.35,17.715Z" transform="translate(-305.806 -0.001)" fill="#86db7b"/>
          </g>
          <g id="Group_29930" data-name="Group 29930" transform="translate(0)">
            <g id="Group_29926" data-name="Group 29926" transform="translate(0)">
              <g id="Group_29925" data-name="Group 29925">
                <path id="Path_20018" data-name="Path 20018" d="M137.061,65l.131-45.082c4.026-.746,6.9-2.968,6.912-7.6C144.116,7.9,141.52,2.53,137.791.042l-.027,9.219a1.912,1.912,0,0,1-1.905,1.925l-4.678-.023a1.922,1.922,0,0,1-1.894-1.944L129.313,0c-3.744,2.45-6.371,7.794-6.384,12.213-.013,4.63,2.846,6.88,6.867,7.667l-.131,45.082a3.7,3.7,0,1,0,7.395.037Z" transform="translate(-104.749 0)" fill="#bed0e0"/>
                <g id="Group_29921" data-name="Group 29921" transform="translate(24.917 0.042)">
                  <path id="Path_20019" data-name="Path 20019" d="M176.6.287l-.027,9.219c0,.729-.058,2.769-.059,3.293-.013,4.63-3.882,6.579-7.908,7.325l-.131,45.082a8.27,8.27,0,0,1,.112.935,3.69,3.69,0,0,0,7.282-.9l.131-45.082c4.026-.746,6.9-2.968,6.912-7.6.013-4.419-2.583-9.789-6.312-12.276Z" transform="translate(-168.48 -0.287)" fill="#aec2d4"/>
                </g>
                <g id="Group_29924" data-name="Group 29924" transform="translate(0 0)">
                  <path id="Path_20020" data-name="Path 20020" d="M20.159,280.281l-.038,23.172a3.979,3.979,0,1,0,7.955.023l.038-23.218Z" transform="translate(-17.145 -238.81)" fill="#365dca"/>
                  <path id="Path_20021" data-name="Path 20021" d="M33.839,280.271l-.038,23.2a4.113,4.113,0,0,1-1.755,3.385,3.884,3.884,0,0,0,2.231.7,4.029,4.029,0,0,0,3.961-4.08l.038-23.218Z" transform="translate(-27.307 -238.81)" fill="#284eb8"/>
                  <g id="Group_29923" data-name="Group 29923">
                    <g id="Group_29922" data-name="Group 29922">
                      <path id="Path_20022" data-name="Path 20022" d="M20.777,0l0,11.3-2.79,4.8.017,23.1-5.4-.014-.017-23.074L9.792,11.336l0-11.3Z" transform="translate(-8.341)" fill="#e8f4ff"/>
                      <path id="Path_20023" data-name="Path 20023" d="M36.607,11.3,36.6,0l-5.5.016,0,11.288-2.748,4.724.049.084.017,23.074,5.4.014-.017-23.1Z" transform="translate(-24.168)" fill="#dceaf7"/>
                      <path id="Path_20024" data-name="Path 20024" d="M2.529,250.182l8.867-.026a2.574,2.574,0,0,0,2.528-2.608h0a2.558,2.558,0,0,0-2.529-2.594l-8.867-.023A2.618,2.618,0,0,0,0,247.589H0A2.557,2.557,0,0,0,2.529,250.182Z" transform="translate(0 -208.708)" fill="#66a8ff"/>
                      <path id="Path_20025" data-name="Path 20025" d="M24.532,244.955l-8.867-.023c-.066,0-.131.006-.2.011l4.625.012a2.557,2.557,0,0,1,2.529,2.594h0a2.574,2.574,0,0,1-2.528,2.608l-4.679.014c.082.008.165.012.249.012l8.867-.026a2.574,2.574,0,0,0,2.528-2.608h0A2.557,2.557,0,0,0,24.532,244.955Z" transform="translate(-13.138 -208.709)" fill="#4d99ff"/>
                    </g>
                    <path id="Path_20026" data-name="Path 20026" d="M20.728,0,9.74.032,9.732,3.963l11,.051Z" transform="translate(-8.293)" fill="#bed0e0"/>
                  </g>
                </g>
              </g>
            </g>
            <g id="Group_29929" data-name="Group 29929" transform="translate(15.11 30.593)">
              <g id="Group_29928" data-name="Group 29928" transform="translate(2.968)">
                <path id="Path_20027" data-name="Path 20027" d="M179.372,252.339H131.284l0-5.819a24.044,24.044,0,0,1,48.088-.02Z" transform="translate(-129.945 -220.236)" fill="#ffb938"/>
                <path id="Path_20028" data-name="Path 20028" d="M269.41,238.964,269.4,208.11a11.105,11.105,0,0,0-10.245,0l.013,30.85Z" transform="translate(-238.904 -206.86)" fill="#ffe645"/>
                <path id="Path_20029" data-name="Path 20029" d="M281.891,208.11a11.106,11.106,0,0,0-8.076-.849,11.085,11.085,0,0,1,2.161.849l.013,30.854H281.9Z" transform="translate(-251.398 -206.86)" fill="#f5d60c"/>
                <g id="Group_29927" data-name="Group 29927" transform="translate(0 6.316)">
                  <path id="Path_20030" data-name="Path 20030" d="M122.24,269.608l0,5.818H133.31l-.01-24.84a.936.936,0,0,0-1.518-.731A25.215,25.215,0,0,0,122.24,269.608Z" transform="translate(-122.24 -249.637)" fill="#ffe645"/>
                  <path id="Path_20031" data-name="Path 20031" d="M162.945,250.586a.936.936,0,0,0-1.518-.731,25.555,25.555,0,0,0-4.4,4.5l.009,21.073h5.916Z" transform="translate(-151.886 -249.637)" fill="#f5d60c"/>
                  <path id="Path_20032" data-name="Path 20032" d="M390.591,250.5l.01,24.852h11.068l0-5.839a25.214,25.214,0,0,0-9.557-19.745A.937.937,0,0,0,390.591,250.5Z" transform="translate(-350.904 -249.564)" fill="#ffe645"/>
                  <path id="Path_20033" data-name="Path 20033" d="M401.666,269.513a25.214,25.214,0,0,0-9.557-19.745.937.937,0,0,0-1.518.732l0,3.762a25.089,25.089,0,0,1,5.158,15.251l0,5.839h5.916Z" transform="translate(-350.904 -249.564)" fill="#f5d60c"/>
                </g>
              </g>
              <path id="Path_20034" data-name="Path 20034" d="M146.169,432.553l.871-.458a18.97,18.97,0,0,1,8.829-2.183,3,3,0,0,0,3.006-3.1,3.038,3.038,0,0,0-3.088-2.873h-50.53a3.056,3.056,0,0,0-3.085,2.9,3,3,0,0,0,3.009,3.1,18.967,18.967,0,0,1,8.83,2.176l.871.458a18.969,18.969,0,0,0,8.83,2.176l13.628-.006A18.97,18.97,0,0,0,146.169,432.553Z" transform="translate(-102.17 -391.833)" fill="#ffe645"/>
              <path id="Path_20035" data-name="Path 20035" d="M278.965,423.937h-5.916a3.038,3.038,0,0,1,3.088,2.873,3,3,0,0,1-3.006,3.1A18.967,18.967,0,0,0,264.3,432.1l-.871.458a18.969,18.969,0,0,1-8.829,2.183l-7.876,0,.164,0,13.628-.006a18.969,18.969,0,0,0,8.829-2.183l.871-.458a18.968,18.968,0,0,1,8.829-2.183,3,3,0,0,0,3.006-3.1A3.038,3.038,0,0,0,278.965,423.937Z" transform="translate(-225.348 -391.833)" fill="#f5d60c"/>
            </g>
          </g>
        </g>
        <path id="Path_20036" data-name="Path 20036" d="M396.353,19.279l-2.531-2.18a11.417,11.417,0,0,0-.072-4.521l2.431-2.086a1.256,1.256,0,0,0,.273-1.576L394.669,5.8a1.243,1.243,0,0,0-1.493-.554L390.026,6.36a11.312,11.312,0,0,0-3.94-2.182l-.58-3.155A1.244,1.244,0,0,0,384.283,0H380.7a1.252,1.252,0,0,0-1.229,1.022l-.078.415a14.984,14.984,0,0,1,.268,26.954l.128.7a1.244,1.244,0,0,0,1.223,1.021H384.6a1.253,1.253,0,0,0,1.229-1.022l.621-3.292a11.472,11.472,0,0,0,3.864-2.337l3.011,1.066a1.248,1.248,0,0,0,1.5-.555l1.8-3.115A1.253,1.253,0,0,0,396.353,19.279Z" transform="translate(-323.284 -0.001)" fill="#6dd45f"/>
      </g>
    </g>
  </g>
</svg>
