<svg xmlns="http://www.w3.org/2000/svg" xmlns:xlink="http://www.w3.org/1999/xlink" width="102" height="102" viewBox="0 0 102 102">
  <defs>
    <clipPath id="clip-path">
      <rect id="Rectangle_11388" data-name="Rectangle 11388" width="102" height="102" fill="#fff" stroke="#707070" stroke-width="1"/>
    </clipPath>
  </defs>
  <g id="Mask_Group_29492" data-name="Mask Group 29492" clip-path="url(#clip-path)">
    <g id="services" transform="translate(12.49 12.489)">
      <g id="Group_29919" data-name="Group 29919" transform="translate(0 0)">
        <g id="Group_29915" data-name="Group 29915" transform="translate(0.131 0)">
          <path id="Path_20000" data-name="Path 20000" d="M26.9,36.9,15.72,25.724a.623.623,0,0,0-.517-.175A12.828,12.828,0,0,1,1.113,10.327a1.283,1.283,0,0,1,2.167-.668L9.5,15.877a1.282,1.282,0,0,0,1.311.31l4.077-1.359a1.282,1.282,0,0,0,.811-.811L17.057,9.94a1.281,1.281,0,0,0-.31-1.311L10.528,2.409A1.283,1.283,0,0,1,11.2.243,12.81,12.81,0,0,1,26.406,14.322a.623.623,0,0,0,.176.516L62.91,51.166a.623.623,0,0,0,.517.175A12.828,12.828,0,0,1,77.517,66.563a1.283,1.283,0,0,1-2.167.668l-6.219-6.219a1.282,1.282,0,0,0-1.311-.31l-4.077,1.359a1.281,1.281,0,0,0-.811.81L61.573,66.95a1.281,1.281,0,0,0,.31,1.311L68.1,74.481a1.283,1.283,0,0,1-.668,2.166A12.81,12.81,0,0,1,52.224,62.568a.623.623,0,0,0-.176-.516Z" transform="translate(-0.87 0)" fill="#babdce"/>
          <g id="Group_29911" data-name="Group 29911" transform="translate(17.558 17.559)">
            <g id="Group_29910" data-name="Group 29910">
              <path id="Path_20001" data-name="Path 20001" d="M118.839,120.944a1.16,1.16,0,0,1-.82-1.981l1.812-1.812a1.16,1.16,0,0,1,1.641,1.641L119.66,120.6A1.158,1.158,0,0,1,118.839,120.944Z" transform="translate(-117.679 -116.811)" fill="#9da3b3"/>
            </g>
          </g>
          <g id="Group_29914" data-name="Group 29914" transform="translate(55.198 55.199)">
            <g id="Group_29913" data-name="Group 29913">
              <g id="Group_29912" data-name="Group 29912">
                <path id="Path_20002" data-name="Path 20002" d="M369.244,371.348a1.16,1.16,0,0,1-.82-1.98l1.812-1.812a1.16,1.16,0,1,1,1.641,1.641l-1.812,1.812A1.156,1.156,0,0,1,369.244,371.348Z" transform="translate(-368.083 -367.215)" fill="#9da3b3"/>
              </g>
            </g>
          </g>
          <path id="Path_20003" data-name="Path 20003" d="M136.4,55.02a12.777,12.777,0,0,0-10.582-3.675.623.623,0,0,1-.517-.175L88.971,14.841a.624.624,0,0,1-.176-.516A12.808,12.808,0,0,0,74.3.128a12.808,12.808,0,0,1,10.94,14.2.624.624,0,0,0,.176.516L121.741,51.17a.623.623,0,0,0,.517.175,12.826,12.826,0,0,1,14.2,14.6l1.287,1.287a1.284,1.284,0,0,0,2.167-.668A12.8,12.8,0,0,0,136.4,55.02Z" transform="translate(-63.26 -0.004)" fill="#9da3b3"/>
        </g>
        <g id="Group_29918" data-name="Group 29918">
          <path id="Path_20004" data-name="Path 20004" d="M13.225,435.276,2.351,424.4l-.943.943a4.81,4.81,0,0,0,0,6.8l4.071,4.071a4.81,4.81,0,0,0,6.8,0Z" transform="translate(0.001 -360.608)" fill="#ff9259"/>
          <path id="Path_20005" data-name="Path 20005" d="M49.163,482.657l-3.025,2.961a4.933,4.933,0,0,1-1.352.959,4.951,4.951,0,0,0,5.649-.959l.844-.844Z" transform="translate(-38.055 -410.105)" fill="#ff7169"/>
          <path id="Path_20006" data-name="Path 20006" d="M245.782,40.893l-5.437-5.437L273.208,2.593a1.283,1.283,0,0,1,.452-.292L279.5.086a1.281,1.281,0,0,1,1.653,1.653l-2.215,5.84a1.279,1.279,0,0,1-.292.452Z" transform="translate(-204.217 0)" fill="#e6ebef"/>
          <path id="Path_20007" data-name="Path 20007" d="M300.174.086l-1.911.725a1.257,1.257,0,0,1,.005.928l-2.215,5.84a1.282,1.282,0,0,1-.292.452L264.678,39.113l1.779,1.779L299.32,8.03a1.277,1.277,0,0,0,.292-.452l2.215-5.84A1.281,1.281,0,0,0,300.174.086Z" transform="translate(-224.892 0)" fill="#dae2ed"/>
          <path id="Path_20008" data-name="Path 20008" d="M45.933,249.029l-.785,5.5a2.563,2.563,0,0,1-.725,1.45l-5.01,5.01-9.061,5.437-5.614,9.238-3.624,3.625a2.563,2.563,0,0,1-3.624,0L6.616,268.411a2.563,2.563,0,0,1,0-3.625l3.8-3.8,9.061-5.437,5.437-9.061,5.01-5.01a2.561,2.561,0,0,1,1.45-.725l5.5-.785,6.343,3.624Z" transform="translate(-4.984 -203.897)" fill="#ff7169"/>
          <path id="Path_20009" data-name="Path 20009" d="M108.92,263.733l-.107-.061-1.584,10.995a2.564,2.564,0,0,1-.725,1.45L83.2,299.426a2.563,2.563,0,0,0,3.624,0l3.624-3.624,5.614-9.239,9.061-5.437,5.01-5.01a2.563,2.563,0,0,0,.725-1.45l.785-5.5Z" transform="translate(-70.689 -224.038)" fill="#ff5178"/>
          <path id="Path_20010" data-name="Path 20010" d="M166.74,244.63l-.59.084a2.564,2.564,0,0,0-1.45.725l-.216.217,14.5,14.5.216-.216a2.563,2.563,0,0,0,.725-1.45l.084-.59Z" transform="translate(-139.759 -207.858)" fill="#ff5178"/>
          <path id="Path_20011" data-name="Path 20011" d="M210.518,217.857l-12.8-12.8a1.2,1.2,0,0,1,0-1.7l1.924-1.924a1.2,1.2,0,0,1,1.7,0l12.8,12.8a1.2,1.2,0,0,1,0,1.7l-1.924,1.924A1.2,1.2,0,0,1,210.518,217.857Z" transform="translate(-167.701 -170.857)" fill="#ff9259"/>
          <path id="Path_20012" data-name="Path 20012" d="M221.721,214.292l-12.748-12.748a1.238,1.238,0,0,0-1.75,0l-.906.906,11.841,11.841a1.238,1.238,0,0,1,0,1.75l-.968.968.906.906a1.238,1.238,0,0,0,1.75,0l1.874-1.874A1.238,1.238,0,0,0,221.721,214.292Z" transform="translate(-175.304 -170.941)" fill="#ff7169"/>
          <path id="Path_20013" data-name="Path 20013" d="M34.352,296.4a2.563,2.563,0,0,1-3.624-3.624l14.852-14.852a2.563,2.563,0,0,1,3.624,3.625Z" transform="translate(-25.47 -235.507)" fill="#ff9259"/>
          <path id="Path_20014" data-name="Path 20014" d="M106.688,368.733a2.563,2.563,0,0,1-3.624-3.625l14.852-14.852a2.563,2.563,0,0,1,3.624,3.624Z" transform="translate(-86.933 -296.969)" fill="#ff9259"/>
          <g id="Group_29917" data-name="Group 29917" transform="translate(11.345 48.503)">
            <g id="Group_29916" data-name="Group 29916">
              <path id="Path_20015" data-name="Path 20015" d="M76.636,339.844a1.16,1.16,0,0,1-.82-1.981l14.852-14.852a1.16,1.16,0,0,1,1.641,1.641L77.457,339.5A1.158,1.158,0,0,1,76.636,339.844Z" transform="translate(-75.476 -322.671)" fill="#ff5178"/>
            </g>
          </g>
          <path id="Path_20016" data-name="Path 20016" d="M125.784,354.5l-18.477,18.476a2.563,2.563,0,0,0,3.624,0l14.852-14.852A2.563,2.563,0,0,0,125.784,354.5Z" transform="translate(-91.177 -301.213)" fill="#ff7169"/>
        </g>
      </g>
    </g>
  </g>
</svg>
