<svg xmlns="http://www.w3.org/2000/svg" xmlns:xlink="http://www.w3.org/1999/xlink" width="102" height="102" viewBox="0 0 102 102">
  <defs>
    <clipPath id="clip-path">
      <rect id="Rectangle_11352" data-name="Rectangle 11352" width="102" height="102" fill="#fff" stroke="#707070" stroke-width="1"/>
    </clipPath>
  </defs>
  <g id="Mask_Group_29467" data-name="Mask Group 29467" clip-path="url(#clip-path)">
    <g id="electronics_2" data-name="electronics 2" transform="translate(10.937 17.682)">
      <rect id="Rectangle_11354" data-name="Rectangle 11354" width="80.126" height="50.28" rx="1.1" fill="#6d7486"/>
      <path id="Path_19631" data-name="Path 19631" d="M39.23,35.708v7.347h-20.2V35.239h20.2Z" transform="translate(10.935 15.041)" fill="#4a5160"/>
      <path id="Path_19632" data-name="Path 19632" d="M4.379,8.42V47.678h69.1V8.42Z" transform="translate(1.132 -2.909)" fill="#fb6771"/>
      <circle id="Ellipse_651" data-name="Ellipse 651" cx="9.075" cy="9.075" r="9.075" transform="translate(31.124 16.856)" fill="#eadf53"/>
      <path id="Path_19633" data-name="Path 19633" d="M29.591,22.307l-5.247,3.936V18.371Z" transform="translate(14.494 3.752)" fill="#5fa8ed"/>
      <path id="Path_19634" data-name="Path 19634" d="M37.719,42.1h-.131a4.906,4.906,0,0,0,9.811,0Z" transform="translate(23.358 19.631)" fill="#4689d3"/>
      <path id="Path_19635" data-name="Path 19635" d="M45.764,28.384H39.223a1.635,1.635,0,0,0-1.635,1.635V51.277H47.4V30.019A1.635,1.635,0,0,0,45.764,28.384Z" transform="translate(23.358 10.453)" fill="#6994fe"/>
      <path id="Path_19636" data-name="Path 19636" d="M4.379,8.42H9.284V47.678H4.379Z" transform="translate(1.132 -2.909)" fill="#d85561"/>
      <path id="Path_19637" data-name="Path 19637" d="M41.512,42.1H37.588a4.906,4.906,0,0,0,6.868,4.5,4.906,4.906,0,0,1-2.943-4.5Z" transform="translate(23.358 19.631)" fill="#3e7fba"/>
      <path id="Path_19638" data-name="Path 19638" d="M41.512,51.277V30.019a1.635,1.635,0,0,1,1.635-1.635H39.223a1.635,1.635,0,0,0-1.635,1.635V51.277Z" transform="translate(23.358 10.453)" fill="#5987e2"/>
      <path id="Path_19639" data-name="Path 19639" d="M46.62,41.3H16.427a.981.981,0,1,1,0-1.962H46.62a.981.981,0,1,1,0,1.962Z" transform="translate(8.539 17.781)" fill="#6d7486"/>
      <g id="Group_29801" data-name="Group 29801" transform="translate(62.745 46.685)">
        <path id="Path_19640" data-name="Path 19640" d="M39.81,37.726a1.145,1.145,0,1,1,1.145-1.145A1.145,1.145,0,0,1,39.81,37.726Z" transform="translate(-38.665 -31.512)" fill="#50dd5a"/>
        <path id="Path_19641" data-name="Path 19641" d="M39.81,35.375a1.145,1.145,0,1,1,1.145-1.145,1.145,1.145,0,0,1-1.145,1.145Z" transform="translate(-38.665 -33.085)" fill="#50dd5a"/>
        <path id="Path_19642" data-name="Path 19642" d="M39.81,40.273a1.145,1.145,0,1,1,1.145-1.145A1.145,1.145,0,0,1,39.81,40.273Z" transform="translate(-38.665 -29.807)" fill="#50dd5a"/>
        <path id="Path_19643" data-name="Path 19643" d="M42.161,37.726a1.145,1.145,0,1,1,1.145-1.145A1.145,1.145,0,0,1,42.161,37.726Z" transform="translate(-37.092 -31.512)" fill="#50dd5a"/>
        <path id="Path_19644" data-name="Path 19644" d="M42.161,35.375a1.145,1.145,0,1,1,1.145-1.145,1.145,1.145,0,0,1-1.145,1.145Z" transform="translate(-37.092 -33.085)" fill="#50dd5a"/>
        <path id="Path_19645" data-name="Path 19645" d="M42.161,40.273a1.145,1.145,0,1,1,1.145-1.145A1.145,1.145,0,0,1,42.161,40.273Z" transform="translate(-37.092 -29.807)" fill="#50dd5a"/>
      </g>
      <path id="Path_19646" data-name="Path 19646" d="M39.81,32.436a1.145,1.145,0,1,1,1.145-1.145,1.145,1.145,0,0,1-1.145,1.145Z" transform="translate(24.079 11.633)" fill="#fb6771"/>
    </g>
  </g>
</svg>
