<svg xmlns="http://www.w3.org/2000/svg" xmlns:xlink="http://www.w3.org/1999/xlink" width="102" height="102" viewBox="0 0 102 102">
  <defs>
    <clipPath id="clip-path">
      <rect id="Rectangle_11375" data-name="Rectangle 11375" width="102" height="102" fill="#fff" stroke="#707070" stroke-width="1"/>
    </clipPath>
  </defs>
  <g id="Mask_Group_29484" data-name="Mask Group 29484" clip-path="url(#clip-path)">
    <g id="jobs_2" data-name="jobs 2" transform="translate(9.678 14.857)">
      <g id="Group_29851" data-name="Group 29851" transform="translate(0 0)">
        <g id="Group_29850" data-name="Group 29850">
          <path id="Path_19850" data-name="Path 19850" d="M195.7,35.755a16.26,16.26,0,0,0-3.589-1.916,26.422,26.422,0,0,0-18.919,0,16.262,16.262,0,0,0-3.589,1.916,2.716,2.716,0,0,0-1.069,2.16v4.262l2.716,1.453,2.716-1.453V39.453a20.48,20.48,0,0,1,17.371,0v2.723l2.716,1.453,2.716-1.453V37.915A2.715,2.715,0,0,0,195.7,35.755Z" transform="translate(-141.329 -32.088)" fill="#e8834d"/>
          <g id="Group_29849" data-name="Group 29849" transform="translate(27.204 10.089)">
            <path id="Path_19851" data-name="Path 19851" d="M168.533,94.589v3l2.716,1.453,2.716-1.453v-3Z" transform="translate(-168.533 -94.589)" fill="#d66e41"/>
            <path id="Path_19852" data-name="Path 19852" d="M315.237,94.589h-5.432v3l2.716,1.453,2.716-1.453Z" transform="translate(-287.002 -94.589)" fill="#d66e41"/>
          </g>
          <path id="Path_19853" data-name="Path 19853" d="M13.247,298.286v24.13a5.187,5.187,0,0,0,5.187,5.187H86.428a5.187,5.187,0,0,0,5.187-5.187v-24.13Z" transform="translate(-11.109 -255.318)" fill="#365e7d"/>
          <path id="Path_19854" data-name="Path 19854" d="M13.247,279.705v3c4.309,3.422,15.7,10.063,39.184,10.063s34.875-6.642,39.184-10.063v-3H13.247Z" transform="translate(-11.109 -239.736)" fill="#2b4d66"/>
          <path id="Path_19855" data-name="Path 19855" d="M1.913,138.323c4.13,3.362,15.5,10.244,39.409,10.244s35.279-6.882,39.409-10.244c1.211-.986,1.913-3.915,1.913-5.476V118.356a5.187,5.187,0,0,0-5.187-5.187H5.187A5.187,5.187,0,0,0,0,118.356v14.491C0,134.408.7,137.338,1.913,138.323Z" transform="translate(0 -100.081)" fill="#407093"/>
          <path id="Path_19856" data-name="Path 19856" d="M80.731,239.1c-4.13,3.362-15.5,10.244-39.409,10.244S6.043,242.464,1.913,239.1A5.187,5.187,0,0,1,0,235.078v3A5.187,5.187,0,0,0,1.913,242.1c4.13,3.362,15.5,10.244,39.409,10.244S76.6,245.463,80.731,242.1a5.187,5.187,0,0,0,1.913-4.024v-3A5.187,5.187,0,0,1,80.731,239.1Z" transform="translate(0 -202.312)" fill="#365e7d"/>
          <path id="Path_19857" data-name="Path 19857" d="M230.756,315.9c2.683,0,4.859-1.992,4.859-6.311v-2.946a1.729,1.729,0,0,0-1.729-1.729h-6.259a1.729,1.729,0,0,0-1.729,1.729v2.946C225.9,313.907,228.072,315.9,230.756,315.9Z" transform="translate(-189.434 -260.875)" fill="#ffe27a"/>
          <path id="Path_19858" data-name="Path 19858" d="M230.756,338.733a4.858,4.858,0,0,1-4.859-4.859v3a4.859,4.859,0,0,0,9.717,0v-3A4.859,4.859,0,0,1,230.756,338.733Z" transform="translate(-189.434 -285.162)" fill="#f9cf58"/>
        </g>
      </g>
    </g>
  </g>
</svg>
