<svg xmlns="http://www.w3.org/2000/svg" xmlns:xlink="http://www.w3.org/1999/xlink" width="102" height="102" viewBox="0 0 102 102">
  <defs>
    <clipPath id="clip-path">
      <rect id="Rectangle_11372" data-name="Rectangle 11372" width="102" height="102" fill="#fff" stroke="#707070" stroke-width="1"/>
    </clipPath>
  </defs>
  <g id="Mask_Group_29482" data-name="Mask Group 29482" clip-path="url(#clip-path)">
    <g id="fashion_3" data-name="fashion 3" transform="translate(9.555 17.482)">
      <path id="Path_19831" data-name="Path 19831" d="M53.3,28.653H69.448A1.443,1.443,0,0,1,70.89,30.1V44.856a1.442,1.442,0,0,1-1.216,1.425L19.507,54.136h-3V28.653Z" transform="translate(12 12.9)" fill="#017bae"/>
      <path id="Path_19832" data-name="Path 19832" d="M53.3,28.653H16.509V54.136h3l7.77-1.217V44.988a1.636,1.636,0,0,1,1.64-1.635h.017c9.932,0,18.2-1.392,25.269-4.254A5.477,5.477,0,0,0,57.642,34V28.653H53.3Z" transform="translate(12 12.9)" fill="#057399"/>
      <path id="Path_19833" data-name="Path 19833" d="M18.771,42.319a1.252,1.252,0,0,1-.195-2.489l2.061-.327a1.252,1.252,0,0,1,.393,2.473l-2.061.327A1.249,1.249,0,0,1,18.771,42.319Z" transform="translate(12.735 20.776)" fill="#017bae"/>
      <path id="Path_19834" data-name="Path 19834" d="M22.524,43.653a1.252,1.252,0,0,1-.195-2.489l4.421-.7a1.252,1.252,0,0,1,.393,2.473l-4.421.7A1.265,1.265,0,0,1,22.524,43.653Zm8.842-1.4a1.252,1.252,0,0,1-.195-2.489l4.421-.7a1.252,1.252,0,1,1,.393,2.473l-4.421.7a1.247,1.247,0,0,1-.2.016Zm8.842-1.4a1.252,1.252,0,0,1-.195-2.488l4.421-.7a1.252,1.252,0,0,1,.393,2.473l-4.421.7A1.247,1.247,0,0,1,40.208,40.847Zm8.842-1.4a1.252,1.252,0,0,1-.195-2.489l4.421-.7a1.252,1.252,0,1,1,.393,2.473l-4.421.7a1.247,1.247,0,0,1-.2.016Z" transform="translate(15.463 18.414)" fill="#0290cf"/>
      <path id="Path_19835" data-name="Path 19835" d="M23.814,38.954l-1.484.236a1.252,1.252,0,1,0,.393,2.473l1.092-.173V38.954Z" transform="translate(15.463 20.388)" fill="#017bae"/>
      <path id="Path_19836" data-name="Path 19836" d="M43,38.473a1.252,1.252,0,0,1-.195-2.488l2.061-.327a1.252,1.252,0,0,1,.393,2.473l-2.061.327A1.263,1.263,0,0,1,43,38.473Z" transform="translate(30.35 17.981)" fill="#0290cf"/>
      <path id="Path_19837" data-name="Path 19837" d="M49.7,28.653H43.672V47.26l6.257-.98a1.442,1.442,0,0,0,1.216-1.425V30.1A1.442,1.442,0,0,0,49.7,28.653Z" transform="translate(31.745 12.9)" fill="#99e6fc"/>
      <path id="Path_19838" data-name="Path 19838" d="M70.246,32.324,62.372,10.278,55.1,4.91a1.476,1.476,0,0,0-1.834.07q-14.114,12-29.632-.077a1.475,1.475,0,0,0-1.781-.027l-7.315,5.4L10.833,20.659H22.51a1.123,1.123,0,0,1,1.123,1.123V56.094l.174.027c12.4.975,23.636.194,32.894-3.554a1.16,1.16,0,0,0,.726-1.075V41.653L69.72,33.864a1.306,1.306,0,0,0,.526-1.541Z" transform="translate(7.874 -4.59)" fill="#fedf30"/>
      <path id="Path_19839" data-name="Path 19839" d="M28.022,11.414H13.734l-2.9,4.285,8.456,34.788,4.343.646h0l4.389-.553Z" transform="translate(7.874 0.37)" fill="#fedf30"/>
      <path id="Path_19840" data-name="Path 19840" d="M36.6,50.814a8.229,8.229,0,0,1-8.147-8.17l-.126-20.02a7.647,7.647,0,0,0-7.647-7.647h-.408a3.345,3.345,0,0,1-3.15-4.469l1.571-4.4L14.54,9.175,10.833,19.556H22.51a1.123,1.123,0,0,1,1.123,1.123V54.991l.174.027c12.4.975,23.636.194,32.894-3.554a1.16,1.16,0,0,0,.726-1.075V48.274A69.812,69.812,0,0,1,36.6,50.814Z" transform="translate(7.874 -3.487)" fill="#fed402"/>
      <path id="Path_19841" data-name="Path 19841" d="M51.951,22.04c-9.3,3.766-20.6,4.537-33.069,3.54H17.368v4.913l1.514-.039c12.474,1,23.768.225,33.069-3.54a1.16,1.16,0,0,0,.726-1.075V20.965A1.16,1.16,0,0,1,51.951,22.04Z" transform="translate(12.625 7.312)" fill="#fe646f"/>
      <path id="Path_19842" data-name="Path 19842" d="M23.027,23.933q-2.36-.1-4.782-.295v4.874q2.438.195,4.812.3Z" transform="translate(13.262 9.255)" fill="#fd4755"/>
      <path id="Path_19843" data-name="Path 19843" d="M6.966,13.9h5.593L18.707,17.9,24.544,13.9h5.84a1.123,1.123,0,0,1,1.123,1.123V64.863H26.871a.761.761,0,0,1-.457-.152L.839,45.279a2.1,2.1,0,0,1-.791-2.123l5.82-28.376a1.123,1.123,0,0,1,1.1-.885Z" transform="translate(0 2.174)" fill="#0290cf"/>
      <path id="Path_19844" data-name="Path 19844" d="M28.657,13.9h-5.84L16.98,16.4l-6.149-2.5H5.239a1.123,1.123,0,0,0-1.1.885L2.376,23.388h27.4V15.019A1.123,1.123,0,0,0,28.657,13.9Z" transform="translate(1.727 2.174)" fill="#017bae"/>
      <path id="Path_19845" data-name="Path 19845" d="M7.272,13.9H19.258v9.492H7.272Z" transform="translate(5.286 2.174)" fill="#dd7f66"/>
      <path id="Path_19846" data-name="Path 19846" d="M11.238,13.9H7.272v9.492H19.258V19.855H17.2a5.96,5.96,0,0,1-5.96-5.96Z" transform="translate(5.286 2.174)" fill="#d6694b"/>
      <path id="Path_19847" data-name="Path 19847" d="M19.958,35.286,13.467,38.48a.991.991,0,0,1-.875,0L6.1,35.286a.991.991,0,0,1-.553-.889V23.481a.991.991,0,0,1,.991-.991H19.521a.991.991,0,0,1,.991.991V34.4a.991.991,0,0,1-.554.889Z" transform="translate(4.032 8.421)" fill="#017bae"/>
      <path id="Path_19848" data-name="Path 19848" d="M54.055,6.765,51.543,4.91a1.476,1.476,0,0,0-1.834.07q-14.114,12-29.632-.077a1.475,1.475,0,0,0-1.781-.027L15.73,6.77l3.435,2.651c5.411,3.819,10.826,5.727,16.143,5.727,5.278,0,10.458-1.883,15.43-5.646l3.131-2.566Z" transform="translate(11.434 -4.59)" fill="#fe646f"/>
      <path id="Path_19849" data-name="Path 19849" d="M50.633,29.928,42.76,7.885l-4.945,6.094V39.258l12.292-7.789A1.307,1.307,0,0,0,50.633,29.928Z" transform="translate(27.487 -2.195)" fill="#fac600"/>
    </g>
  </g>
</svg>
