<svg xmlns="http://www.w3.org/2000/svg" xmlns:xlink="http://www.w3.org/1999/xlink" width="102" height="102" viewBox="0 0 102 102">
  <defs>
    <clipPath id="clip-path">
      <rect id="Rectangle_11389" data-name="Rectangle 11389" width="102" height="102" fill="#fff" stroke="#707070" stroke-width="1"/>
    </clipPath>
  </defs>
  <g id="Mask_Group_29493" data-name="Mask Group 29493" clip-path="url(#clip-path)">
    <g id="education" transform="translate(9.256 9.682)">
      <g id="Group_29905" data-name="Group 29905">
        <path id="Path_19966" data-name="Path 19966" d="M110.778,225.971a17.01,17.01,0,0,0-.1,12.6l1.388,2.718H52.172s-11.151-6.265,0-17.416l59.375-1.224Z" transform="translate(-39.244 -185.479)" fill="#f1f2f2"/>
        <path id="Path_19967" data-name="Path 19967" d="M112.067,241.286H52.175s-11.15-6.266,0-17.416l59.376-1.224-.77,3.324a16.313,16.313,0,0,0-.846,2.7H55.587a3.817,3.817,0,1,0,0,7.633h54.368a14.666,14.666,0,0,0,.724,2.262Z" transform="translate(-39.246 -185.479)" fill="#dee1e1"/>
        <path id="Path_19968" data-name="Path 19968" d="M96.082,233.819l-54.746-.086c-6.559,0-12.191-4.184-12.191-10.743,0-1.449-.252-3.348.223-4.632A11.88,11.88,0,0,1,40.509,210.6H96.673a2.679,2.679,0,1,1,0,5.357H54.166l-4.151.974-3.61-.974h-5.9a6.518,6.518,0,1,0,0,13.036H96.673a2.681,2.681,0,0,1,2.66,2.994c-.156,1.331-1.878,1.828-3.251,1.828Z" transform="translate(-24.168 -175.469)" fill="#b7e546"/>
        <path id="Path_19969" data-name="Path 19969" d="M97.14,266.794a2.678,2.678,0,0,1-2.659,2.364l-27.747,1.663-28.417-1.663a11.881,11.881,0,0,1-10.863-16.682v2.441A11.876,11.876,0,0,0,39.33,266.794Z" transform="translate(-21.976 -210.272)" fill="#abd641"/>
        <path id="Path_19970" data-name="Path 19970" d="M140.539,250.142v-7.809h-5.566l-1.976.2.119,7.273a.338.338,0,0,0,.461.314l1.4-.341,1.562-.612a.336.336,0,0,1,.246,0l3.3,1.291A.338.338,0,0,0,140.539,250.142Z" transform="translate(-110.541 -201.841)" fill="#ef5227"/>
        <path id="Path_19971" data-name="Path 19971" d="M133.9,242.336v7.444l-1.734.679a.338.338,0,0,1-.461-.314v-7.809Z" transform="translate(-109.465 -201.844)" fill="#d83724"/>
        <path id="Path_19972" data-name="Path 19972" d="M142.437,164.782v3.807l-.169,1.688a1.182,1.182,0,0,1-1.182,1.182l-45-.169a1.181,1.181,0,0,1-1.182-1.182l-.338-5.327,23.1-1.1Z" transform="translate(-78.601 -136.467)" fill="#fdcd08"/>
        <path id="Path_19973" data-name="Path 19973" d="M453.956,94.669A1.266,1.266,0,0,1,452.69,93.4V80.267a1.266,1.266,0,0,1,2.533,0V93.4A1.267,1.267,0,0,1,453.956,94.669Z" transform="translate(-376.256 -66.087)" fill="#77777f"/>
        <path id="Path_19974" data-name="Path 19974" d="M430.27,189.039c-1.057,2.606-2.12,5.176-3.178,7.782a2.365,2.365,0,0,0,2.171,3.264l1.955.169h4.755a2.365,2.365,0,0,0,2.171-3.264l-2.2-5.434-1.386-2.517H430.27Z" transform="translate(-354.833 -157.546)" fill="#fdcd08"/>
        <path id="Path_19975" data-name="Path 19975" d="M431.144,190.325a6.419,6.419,0,0,0,3.967-.96l-1.185-2.962-1.959.586h0l-2.553-.341c-.323.8-.792,1.924-1.114,2.72h0l-2.2,5.432a2.365,2.365,0,0,0,2.17,3.264h2.7a2.365,2.365,0,0,1-2.17-3.264l1.646-4.056A.682.682,0,0,1,431.144,190.325Z" transform="translate(-354.005 -155.355)" fill="#faab18"/>
        <path id="Path_19976" data-name="Path 19976" d="M446.226,152.942a3.933,3.933,0,0,0-2.632-3.722c-.4-.138-.974.107-1.417.107a3.316,3.316,0,0,0-3.477,3.615,3.435,3.435,0,0,0,3.763,3.476c.443,0,.734.383,1.131.246A3.934,3.934,0,0,0,446.226,152.942Z" transform="translate(-364.628 -124.416)" fill="#fdcd08"/>
        <path id="Path_19977" data-name="Path 19977" d="M442.271,155.823a3.841,3.841,0,0,1-1.266.213,3.935,3.935,0,0,1,0-7.87,3.841,3.841,0,0,1,1.266.213,3.949,3.949,0,0,0,0,7.444Z" transform="translate(-363.305 -123.574)" fill="#faab18"/>
        <path id="Path_19978" data-name="Path 19978" d="M82.133,18.052,71,21.907,67.957,21.6,46.34,30.442a7.085,7.085,0,0,1-4.636,0l-21.616-8.5-3.039-.033L5.911,18.052a1.417,1.417,0,0,1,0-2.678L42.127,2.836a5.793,5.793,0,0,1,3.791,0L82.133,15.373A1.417,1.417,0,0,1,82.133,18.052Z" transform="translate(-4.12 -2.517)" fill="#868491"/>
        <path id="Path_19979" data-name="Path 19979" d="M130.515,76.484v1.143l-24.656,8.535a7.085,7.085,0,0,1-4.636,0L76.568,77.627V76.484a4.967,4.967,0,0,1,4.093-4.893,129.677,129.677,0,0,1,45.762,0,4.971,4.971,0,0,1,4.093,4.893Z" transform="translate(-63.64 -58.237)" fill="#77777f"/>
        <path id="Path_19980" data-name="Path 19980" d="M144.1,91.444v10.068H96.737l-.169-9.73a1.932,1.932,0,0,1,1.591-1.9c.482-.086.628-.508,1.111-.589a126.6,126.6,0,0,1,43.24.251,1.934,1.934,0,0,1,1.591,1.9Z" transform="translate(-80.263 -73.198)" fill="#868491"/>
        <path id="Path_19981" data-name="Path 19981" d="M142.437,168.589v1.857a1.182,1.182,0,0,1-1.182,1.182H95.75a1.182,1.182,0,0,1-1.182-1.182v-5.665l1.52-1.1,1.52,1.1v2.963a.844.844,0,0,0,.844.844Z" transform="translate(-78.601 -136.467)" fill="#faab18"/>
        <path id="Path_19982" data-name="Path 19982" d="M97.607,97.846v12.219H94.568V100a1.932,1.932,0,0,1,1.591-1.9C96.641,98.01,97.124,97.925,97.607,97.846Z" transform="translate(-78.601 -81.75)" fill="#77777f"/>
        <path id="Path_19983" data-name="Path 19983" d="M96.464,386.294a15.886,15.886,0,0,1,0-12.159l.514-2.282H27.935s-7.772,8.449.505,16.726l68.987.517Z" transform="translate(-20.468 -309.492)" fill="#f1f2f2"/>
        <path id="Path_19984" data-name="Path 19984" d="M97.427,389.1l-68.986-.517c-8.278-8.277-.5-16.726-.5-16.726l69.374.128-.845,2.153a15.816,15.816,0,0,0-.755,2.3H32.344a3.817,3.817,0,1,0,0,7.633H95.73a16.018,16.018,0,0,0,.734,2.224Z" transform="translate(-20.468 -309.495)" fill="#dee1e1"/>
        <path id="Path_19985" data-name="Path 19985" d="M80.263,374.435l-62.422-.115c-6.559,0-12.329-3.7-12.329-10.26,0-2.081-.509-4.948.432-6.649a11.872,11.872,0,0,1,10.4-6.136H81.436a2.679,2.679,0,1,1,0,5.357H65.308l-4.214.933-3.547-.933h-41.2a6.518,6.518,0,0,0,0,13.036H81.436a2.679,2.679,0,0,1,2.679,2.679,2.706,2.706,0,0,1-.044.484C83.844,374.08,81.578,374.435,80.263,374.435Z" transform="translate(-4.467 -292.389)" fill="#ef5227"/>
        <path id="Path_19986" data-name="Path 19986" d="M79.605,399.886a2.682,2.682,0,0,1-2.636,2.195H11.877A11.878,11.878,0,0,1,1.857,383.826v4.184a11.876,11.876,0,0,0,11.877,11.877Z" transform="translate(0 -319.444)" fill="#d83724"/>
        <path id="Path_19987" data-name="Path 19987" d="M323.184,390.862V382.99h-5.229l-2.319.141.124,7.393a.338.338,0,0,0,.461.314l1.734-.473,1.225-.48a.337.337,0,0,1,.246,0l3.3,1.291A.338.338,0,0,0,323.184,390.862Z" transform="translate(-262.343 -318.749)" fill="#fdcd08"/>
        <path id="Path_19988" data-name="Path 19988" d="M316.9,382.986v7.377l-2.072.811a.338.338,0,0,1-.461-.314v-7.873Z" transform="translate(-261.292 -318.746)" fill="#faab18"/>
      </g>
    </g>
  </g>
</svg>
