<svg xmlns="http://www.w3.org/2000/svg" width="193.89" height="161.069" viewBox="0 0 193.89 161.069">
  <g id="Inbox_cleanup-rafiki" data-name="Inbox cleanup-rafiki" transform="translate(-56.11 -105.422)">
    <g id="freepik--background-simple--inject-1" transform="translate(66.449 105.423)">
      <path id="Path_219339" data-name="Path 219339" d="M137.574,191.931c-20.385-4.735-37.69-2.5-52.23-22.475-13.75-18.88-9.89-35.55,4.2-49.865,36.815-37.38,73.44,10.16,119.35,17.78,40,6.64,51.66,72.675,17.2,95.67-11.1,7.415-32.925,14.24-45.92,4.25C161.979,223.286,165.594,198.431,137.574,191.931Z" transform="translate(-76.788 -105.422)" fill="#53b553"/>
      <path id="Path_219340" data-name="Path 219340" d="M137.574,191.931c-20.385-4.735-37.69-2.5-52.23-22.475-13.75-18.88-9.89-35.55,4.2-49.865,36.815-37.38,73.44,10.16,119.35,17.78,40,6.64,51.66,72.675,17.2,95.67-11.1,7.415-32.925,14.24-45.92,4.25C161.979,223.286,165.594,198.431,137.574,191.931Z" transform="translate(-76.788 -105.422)" fill="#fff" opacity="0.9"/>
    </g>
    <g id="freepik--Shadow--inject-1" transform="translate(56.11 255.171)">
      <ellipse id="freepik--path--inject-1" cx="96.945" cy="5.66" rx="96.945" ry="5.66" fill="#f5f5f5"/>
    </g>
    <g id="freepik--Trash--inject-1" transform="translate(160.86 213.061)">
      <path id="Path_219341" data-name="Path 219341" d="M311.8,365.81a4.22,4.22,0,0,1-3.525,4.165,110.151,110.151,0,0,1-36.65,0,4.215,4.215,0,0,1-3.5-4.165v-40.5h43.7Z" transform="translate(-266.87 -323.005)" fill="#53b553"/>
      <path id="Path_219342" data-name="Path 219342" d="M268.08,326.77v5.685c2.63.975,11.265,1.69,21.85,1.69s19.235-.715,21.85-1.69V326.77Z" transform="translate(-266.845 -323.735)" opacity="0.3"/>
      <path id="Path_219343" data-name="Path 219343" d="M311.365,330.39c0,1.285-9.92,2.325-22.67,2.325s-22.67-1.04-22.67-2.325l-.415-5.05H311.8Z" transform="translate(-265.61 -323.02)" fill="#53b553"/>
      <ellipse id="Ellipse_793" data-name="Ellipse 793" cx="23.085" cy="2.32" rx="23.085" ry="2.32" fill="#53b553"/>
      <ellipse id="Ellipse_794" data-name="Ellipse 794" cx="23.085" cy="2.32" rx="23.085" ry="2.32" opacity="0.3"/>
      <path id="Path_219344" data-name="Path 219344" d="M278.1,374h0a1.7,1.7,0,0,1-1.7-1.7v-23.22a1.7,1.7,0,0,1,1.7-1.7h0a1.705,1.705,0,0,1,1.7,1.7V372.3A1.7,1.7,0,0,1,278.1,374Z" transform="translate(-271.01 -334.045)" opacity="0.2"/>
      <path id="Path_219345" data-name="Path 219345" d="M342.075,374h0a1.7,1.7,0,0,1-1.7-1.7v-23.22a1.7,1.7,0,0,1,1.7-1.7h0a1.705,1.705,0,0,1,1.7,1.7V372.3a1.7,1.7,0,0,1-1.7,1.695Z" transform="translate(-302.995 -334.045)" opacity="0.2"/>
      <path id="Path_219346" data-name="Path 219346" d="M320.745,374h0a1.705,1.705,0,0,1-1.7-1.7v-23.22a1.705,1.705,0,0,1,1.7-1.7h0a1.7,1.7,0,0,1,1.7,1.7V372.3A1.7,1.7,0,0,1,320.745,374Z" transform="translate(-292.33 -334.045)" opacity="0.2"/>
      <path id="Path_219347" data-name="Path 219347" d="M299.425,374h0a1.705,1.705,0,0,1-1.7-1.7v-23.22a1.705,1.705,0,0,1,1.7-1.7h0a1.7,1.7,0,0,1,1.7,1.7V372.3A1.7,1.7,0,0,1,299.425,374Z" transform="translate(-281.67 -334.045)" opacity="0.2"/>
    </g>
    <g id="freepik--Character--inject-1" transform="translate(90.968 116.863)">
      <path id="Path_219348" data-name="Path 219348" d="M188.24,136.84a2.32,2.32,0,1,1-2.32-2.32A2.32,2.32,0,0,1,188.24,136.84Z" transform="translate(-154.713 -131.412)" fill="#263238"/>
      <path id="Path_219349" data-name="Path 219349" d="M184.1,136.155a.12.12,0,0,1-.11-.065,2.442,2.442,0,0,1,4.29-2.335.13.13,0,0,1-.05.17.125.125,0,0,1-.17-.05,2.192,2.192,0,0,0-3.85,2.1.125.125,0,0,1-.05.17.135.135,0,0,1-.06.015Z" transform="translate(-154.761 -130.392)" fill="#263238"/>
      <path id="Path_219350" data-name="Path 219350" d="M177.565,155.5a2.44,2.44,0,0,1-.35-4.855.12.12,0,0,1,.14.105.125.125,0,0,1-.105.14,2.191,2.191,0,1,0,.635,4.335.127.127,0,0,1,.04.25A2.908,2.908,0,0,1,177.565,155.5Z" transform="translate(-150.478 -139.475)" fill="#263238"/>
      <path id="Path_219351" data-name="Path 219351" d="M203.832,163.41a2.415,2.415,0,0,1-1.32-.4.125.125,0,1,1,.135-.21,2.191,2.191,0,1,0,2.385-3.675.125.125,0,1,1,.135-.21,2.445,2.445,0,0,1,.72,3.375,2.41,2.41,0,0,1-1.54,1.06,2.577,2.577,0,0,1-.515.055Z" transform="translate(-164.14 -143.602)" fill="#263238"/>
      <circle id="Ellipse_795" data-name="Ellipse 795" cx="3.28" cy="3.28" r="3.28" transform="translate(26.627 6.103)" fill="#263238"/>
      <circle id="Ellipse_796" data-name="Ellipse 796" cx="4.35" cy="4.35" r="4.35" transform="translate(23.758 13.799) rotate(-45)" fill="#263238"/>
      <circle id="Ellipse_797" data-name="Ellipse 797" cx="4.81" cy="4.81" r="4.81" transform="translate(25.557 14.518)" fill="#263238"/>
      <circle id="Ellipse_798" data-name="Ellipse 798" cx="4.81" cy="4.81" r="4.81" transform="translate(29.393 23.231) rotate(-76.72)" fill="#263238"/>
      <path id="Path_219352" data-name="Path 219352" d="M223.568,187.34c0,.39,0,.885.035,1.335s.035.93.065,1.4c.065.93.13,1.87.23,2.8q.27,2.815.755,5.605c.085.46.16.93.255,1.39l.22,1.135c.055.18,0,.145-.07.14s0,.09.3.09a6.29,6.29,0,0,0,2.17-.625c.4-.18.81-.375,1.22-.585s.825-.45,1.2-.66l1.46,1.685a14.048,14.048,0,0,1-1.11,1.135,12.836,12.836,0,0,1-1.22,1.025,11.046,11.046,0,0,1-1.415.9,6.776,6.776,0,0,1-1.79.67,4.56,4.56,0,0,1-1.175.1,3.82,3.82,0,0,1-1.39-.35,3.67,3.67,0,0,1-1.215-.92,4.4,4.4,0,0,1-.7-1.125,6.326,6.326,0,0,1-.33-.965l-.2-.73c-.14-.5-.255-.975-.375-1.465a55.734,55.734,0,0,1-1.08-5.96c-.125-1-.225-2-.285-3.025-.03-.5-.055-1-.07-1.53s0-1,0-1.6Z" transform="translate(-172.437 -157.762)" fill="#ffb573"/>
      <path id="Path_219353" data-name="Path 219353" d="M218.088,176.007c4.265,3.265,4.1,9.42,4.1,9.42l-7.63,1.825s-2.34-6.19-1.39-8.455C214.153,176.438,215.688,174.167,218.088,176.007Z" transform="translate(-169.381 -151.819)" fill="#53b553"/>
      <path id="Path_219354" data-name="Path 219354" d="M218.088,176.007c4.265,3.265,4.1,9.42,4.1,9.42l-7.63,1.825s-2.34-6.19-1.39-8.455C214.153,176.438,215.688,174.167,218.088,176.007Z" transform="translate(-169.381 -151.819)" fill="#fff" opacity="0.7"/>
      <path id="Path_219355" data-name="Path 219355" d="M240.075,210.54l1.26-2.12,3.16,3.38a5.3,5.3,0,0,1-4.615.415Z" transform="translate(-182.853 -168.362)" fill="#ffb573"/>
      <path id="Path_219356" data-name="Path 219356" d="M244.345,206.39l4.055,2.39-2.45,2.005-3.16-3.38Z" transform="translate(-184.308 -167.347)" fill="#ffb573"/>
      <path id="Path_219357" data-name="Path 219357" d="M175.49,398.645l4.36.42,2.71-10.215-4.365-.42Z" transform="translate(-150.658 -258.367)" fill="#ffb573"/>
      <path id="Path_219358" data-name="Path 219358" d="M130.79,382.46l3.915,2.05,4.655-9.23-3.915-2.05Z" transform="translate(-128.308 -250.767)" fill="#ffb573"/>
      <path id="Path_219359" data-name="Path 219359" d="M133.268,388.535l-3.5-3.555a.345.345,0,0,0-.46-.04l-3.215,2.365a.715.715,0,0,0-.06,1.06c1.24,1.22,1.9,1.745,3.44,3.31.95.96,2.9,3.225,4.21,4.555s2.69.1,2.265-.565a12.848,12.848,0,0,1-2.35-6.41A1.155,1.155,0,0,0,133.268,388.535Z" transform="translate(-125.826 -256.587)" fill="#263238"/>
      <path id="Path_219360" data-name="Path 219360" d="M178.715,407.05H173.43a.435.435,0,0,0-.415.32l-1.13,4.155a.655.655,0,0,0,.645.835h12.135c1.925,0,2.33-1.945,1.53-2.125-3.57-.79-5.63-1.88-6.73-2.92A1.1,1.1,0,0,0,178.715,407.05Z" transform="translate(-148.843 -267.676)" fill="#263238"/>
      <path id="Path_219361" data-name="Path 219361" d="M183.75,388.86l-1.395,5.265H177.88l1.505-5.685Z" transform="translate(-151.853 -258.372)" opacity="0.2"/>
      <path id="Path_219362" data-name="Path 219362" d="M137.69,373.23l3.92,2.055-2.4,4.755-3.92-2.055Z" transform="translate(-130.558 -250.767)" opacity="0.2"/>
      <path id="Path_219363" data-name="Path 219363" d="M197.285,172.835s1.93.845-4.54,26.445l-17.97-1.555c.935-7.285,1.33-11.795-.865-27.11a53.776,53.776,0,0,1,7.72-.345,57.68,57.68,0,0,1,8.16.705A76.233,76.233,0,0,1,197.285,172.835Z" transform="translate(-149.868 -149.277)" fill="#53b553"/>
      <path id="Path_219364" data-name="Path 219364" d="M197.285,172.835s1.93.845-4.54,26.445l-17.97-1.555c.935-7.285,1.33-11.795-.865-27.11a53.776,53.776,0,0,1,7.72-.345,57.68,57.68,0,0,1,8.16.705A76.233,76.233,0,0,1,197.285,172.835Z" transform="translate(-149.868 -149.277)" fill="#fff" opacity="0.7"/>
      <path id="Path_219365" data-name="Path 219365" d="M187.018,170h-2.225c-.725,1.115,2.335,4.37,6.225,7.57.94-2.915,2.42-2.9,2.42-2.9Z" transform="translate(-155.256 -149.152)" fill="#fff"/>
      <path id="Path_219366" data-name="Path 219366" d="M203.93,171.57s.455.065,1.545.315a5.571,5.571,0,0,1-1,6.335c-.835-3-2.275-2.73-2.275-2.73Z" transform="translate(-164.013 -149.937)" fill="#fff"/>
      <path id="Path_219367" data-name="Path 219367" d="M190.95,152.05c.29,2.67.385,7.5-1.6,9.12a30.051,30.051,0,0,0,6.42,4.56c3.12-2.16,1.74-3.855,1.74-3.855-2.87-.95-2.605-3.115-1.92-5.115Z" transform="translate(-157.588 -140.177)" fill="#ffb573"/>
      <path id="Path_219368" data-name="Path 219368" d="M195.985,155.9l2.745,2.785a8.349,8.349,0,0,0-.38,1.425c-1.1-.255-2.7-1.4-2.72-2.585a4.625,4.625,0,0,1,.355-1.625Z" transform="translate(-160.728 -142.102)" opacity="0.2"/>
      <path id="Path_219369" data-name="Path 219369" d="M213.143,134.63c1.84,1.63,2.38,5.6.63,8.295A36.5,36.5,0,0,1,213.143,134.63Z" transform="translate(-169.471 -131.467)" fill="#263238"/>
      <path id="Path_219370" data-name="Path 219370" d="M191.216,135.182c-.32,4.4-.545,6.25,1.355,8.785,2.86,3.815,8.33,3.24,9.955-.97,1.465-3.795,1.74-10.345-2.295-12.655a6,6,0,0,0-9.015,4.84Z" transform="translate(-158.414 -128.913)" fill="#ffb573"/>
      <path id="Path_219371" data-name="Path 219371" d="M189.358,138.112c3.25-.125,5.05-4.375,4.235-6.17,3.685,1.92,9.265,3.43,8.645.96-.835-3.335-4.87-5.78-9.835-4C189.528,130.152,187.068,132.9,189.358,138.112Z" transform="translate(-157.141 -128.303)" fill="#263238"/>
      <path id="Path_219372" data-name="Path 219372" d="M188.243,146.142a3.25,3.25,0,0,0,1.29,2.1c.92.655,1.76-.075,1.825-1.14.06-.965-.345-2.465-1.425-2.695a1.445,1.445,0,0,0-1.69,1.74Z" transform="translate(-157.017 -136.339)" fill="#ffb573"/>
      <path id="Path_219373" data-name="Path 219373" d="M193.415,227.19s4.065,26.525,1.8,43.565c-1.715,12.875-12.78,40.655-12.78,40.655l-7.185-.2s7.42-26.925,8.955-37.5c2.625-18.11-3.95-47.645-3.95-47.645Z" transform="translate(-150.538 -177.187)" fill="#263238"/>
      <path id="Path_219374" data-name="Path 219374" d="M193.725,239.18l-3.835,6.045a185.451,185.451,0,0,1,2.195,21.65C197.475,257.225,194.945,244.285,193.725,239.18Z" transform="translate(-157.858 -183.742)" opacity="0.2"/>
      <path id="Path_219375" data-name="Path 219375" d="M182.83,394.4l-9.03-.245.55-2.9,9.33.055Z" transform="translate(-149.813 -259.777)" fill="#53b553"/>
      <path id="Path_219376" data-name="Path 219376" d="M169.82,226.49s-3,29.37-9.855,45.35c-5.545,12.9-18.765,33.535-18.765,33.535l-5.28-3.09s8.5-22.945,12.7-31.545c10.235-21.085.715-38,7.165-45.5Z" transform="translate(-130.873 -176.772)" fill="#263238"/>
      <path id="Path_219377" data-name="Path 219377" d="M140.9,379.835l-6.735-3.7,1.1-2.88,7.175,4.05Z" transform="translate(-129.993 -250.782)" fill="#53b553"/>
      <path id="Path_219378" data-name="Path 219378" d="M174.311,222.936l-.95,1.54c-.07.115.065.26.275.275l18.845,1.63c.16,0,.3-.055.32-.155l.305-1.6c0-.11-.115-.215-.29-.23l-18.2-1.575A.34.34,0,0,0,174.311,222.936Z" transform="translate(-149.585 -175.563)" fill="#53b553"/>
      <path id="Path_219379" data-name="Path 219379" d="M179.164,225.208l-.5-.04c-.1,0-.165-.065-.155-.125l.41-2.07c0-.065.1-.1.2-.1l.5.04c.1,0,.17.065.155.125l-.4,2.07A.2.2,0,0,1,179.164,225.208Z" transform="translate(-152.167 -175.59)" fill="#263238"/>
      <path id="Path_219380" data-name="Path 219380" d="M208.193,227.719l-.5-.04c-.1,0-.17-.065-.155-.125l.41-2.07c0-.06.1-.105.195-.1l.5.04c.1,0,.165.065.155.125l-.41,2.07C208.378,227.694,208.268,227.729,208.193,227.719Z" transform="translate(-166.681 -176.845)" fill="#263238"/>
      <path id="Path_219381" data-name="Path 219381" d="M193.674,226.464l-.5-.045c-.1,0-.165-.065-.155-.125l.41-2.07c0-.06.1-.1.2-.1l.5.045c.1,0,.165.065.155.125l-.41,2.07C193.864,226.429,193.774,226.469,193.674,226.464Z" transform="translate(-159.422 -176.215)" fill="#263238"/>
      <path id="Path_219382" data-name="Path 219382" d="M205.19,144.623c-.05.355.1.67.33.7s.46-.23.5-.585-.1-.67-.335-.7S205.235,144.268,205.19,144.623Z" transform="translate(-165.504 -136.169)" fill="#263238"/>
      <path id="Path_219383" data-name="Path 219383" d="M213.212,145.7c-.045.355.1.67.335.7s.46-.23.5-.585-.1-.67-.33-.7S213.262,145.348,213.212,145.7Z" transform="translate(-169.515 -136.709)" fill="#263238"/>
      <path id="Path_219384" data-name="Path 219384" d="M214,145l.89-.13S214.37,145.475,214,145Z" transform="translate(-169.913 -136.587)" fill="#263238"/>
      <path id="Path_219385" data-name="Path 219385" d="M209.735,147.07a9.688,9.688,0,0,0,.96,2.435,1.54,1.54,0,0,1-1.295.07Z" transform="translate(-167.613 -137.687)" fill="#ed893e"/>
      <path id="Path_219386" data-name="Path 219386" d="M203.583,152.711a2.915,2.915,0,0,1-1.65-1.365.088.088,0,0,1,.16-.075,2.85,2.85,0,0,0,2.155,1.42.085.085,0,0,1,0,.17A3.048,3.048,0,0,1,203.583,152.711Z" transform="translate(-163.876 -139.762)" fill="#263238"/>
      <path id="Path_219387" data-name="Path 219387" d="M201.423,140.283a.2.2,0,0,1-.075-.055.17.17,0,0,1,0-.245,2.03,2.03,0,0,1,1.83-.46.17.17,0,0,1,.115.215.175.175,0,0,1-.215.12,1.7,1.7,0,0,0-1.5.39A.19.19,0,0,1,201.423,140.283Z" transform="translate(-163.561 -133.885)" fill="#263238"/>
      <path id="Path_219388" data-name="Path 219388" d="M214.883,142.232a.211.211,0,0,1-.07-.045,1.72,1.72,0,0,0-1.435-.6.165.165,0,0,1-.2-.145.175.175,0,0,1,.145-.2,2.055,2.055,0,0,1,1.745.71.175.175,0,0,1-.185.28Z" transform="translate(-169.501 -134.768)" fill="#263238"/>
      <path id="Path_219389" data-name="Path 219389" d="M221.39,213.077a8.066,8.066,0,0,1,15.36,4.93l-3.11,9.73L218.28,222.8Z" transform="translate(-172.053 -167.889)" fill="#53b553"/>
      <path id="Path_219390" data-name="Path 219390" d="M221.39,213.077a8.066,8.066,0,0,1,15.36,4.93l-3.11,9.73L218.28,222.8Z" transform="translate(-172.053 -167.889)" opacity="0.3"/>
      <path id="Path_219391" data-name="Path 219391" d="M191.33,203.339l-2.81,8.75a1,1,0,0,0,.65,1.265l14.2,4.56,3.12-9.71a8.065,8.065,0,0,1,10.14-5.21l-15.155-4.87A8.075,8.075,0,0,0,191.33,203.339Z" transform="translate(-157.149 -163.021)" fill="#53b553"/>
      <path id="Path_219392" data-name="Path 219392" d="M208.2,209.025l3.915-12.185a.32.32,0,0,0-.255-.41l-4-.59-.5,1.58,2.915.935-3.3,10.27Z" transform="translate(-166.403 -162.072)" fill="#263238"/>
      <path id="Path_219393" data-name="Path 219393" d="M205.2,219.827a1.5,1.5,0,1,0,.744-.877A1.5,1.5,0,0,0,205.2,219.827Z" transform="translate(-165.476 -173.544)" fill="#263238"/>
      <path id="Path_219394" data-name="Path 219394" d="M218.955,239.56l19.7,6.325a.57.57,0,0,0,.72-.37h0a.565.565,0,0,0-.37-.72l-20.79-6.675h0a1.145,1.145,0,0,0,.74,1.44Z" transform="translate(-171.993 -183.212)" fill="#53b553"/>
      <path id="Path_219395" data-name="Path 219395" d="M218.955,239.56l8.05,2.585a.575.575,0,0,0,.725-.37h0a.575.575,0,0,0-.37-.72l-9.145-2.935h0A1.145,1.145,0,0,0,218.955,239.56Z" transform="translate(-171.993 -183.212)" opacity="0.2"/>
      <path id="Path_219396" data-name="Path 219396" d="M167.582,181.9l-.275.305-.31.355c-.21.24-.42.5-.62.745-.41.5-.8,1.035-1.165,1.575a26.805,26.805,0,0,0-3.53,6.97c-.2.62-.385,1.24-.53,1.875-.05.185-.055.26-.08.345a2.1,2.1,0,0,0,0,.22,1.15,1.15,0,0,0,0,.235c0,.09.17.3.58.5a6.355,6.355,0,0,0,1.545.47,21.171,21.171,0,0,0,3.89.255,39.64,39.64,0,0,0,4.12-.265c1.38-.145,2.78-.325,4.135-.53l.545,2.165a45.8,45.8,0,0,1-8.575,1.9,21.5,21.5,0,0,1-4.625.1,9.5,9.5,0,0,1-2.57-.61,5.755,5.755,0,0,1-1.38-.79,4.5,4.5,0,0,1-1.2-1.435,5.1,5.1,0,0,1-.385-3.365,22,22,0,0,1,.5-2.27,26,26,0,0,1,1.56-4.305,29.7,29.7,0,0,1,2.255-4c.43-.635.89-1.25,1.37-1.855.245-.3.5-.6.75-.89l.4-.435c.145-.155.26-.28.46-.47Z" transform="translate(-141.425 -153.502)" fill="#ffb573"/>
      <path id="Path_219397" data-name="Path 219397" d="M191.2,210.275l3.5-1.855.155,3.76s-2.5,1.035-3.93-.1Z" transform="translate(-158.378 -168.362)" fill="#ffb573"/>
      <path id="Path_219398" data-name="Path 219398" d="M201.37,207.85l-.525,3.465-2.2.58-.155-3.76Z" transform="translate(-162.158 -168.077)" fill="#ffb573"/>
      <path id="Path_219399" data-name="Path 219399" d="M168.62,170.926c-2.2.39-5.29,6.71-5.29,6.71l5.555,5s4.415-4.82,4.18-7.69C172.865,172.521,171.425,170.426,168.62,170.926Z" transform="translate(-144.578 -149.577)" fill="#53b553"/>
      <path id="Path_219400" data-name="Path 219400" d="M168.62,170.926c-2.2.39-5.29,6.71-5.29,6.71l5.555,5s4.415-4.82,4.18-7.69C172.865,172.521,171.425,170.426,168.62,170.926Z" transform="translate(-144.578 -149.577)" fill="#fff" opacity="0.7"/>
      <path id="Path_219401" data-name="Path 219401" d="M142.51,394.547a.672.672,0,0,1-.175,0c-.555-.03-1.145-.88-1.45-1.38a.085.085,0,0,1,0-.1.08.08,0,0,1,.09-.035c.18.035,1.735.385,1.93.91a.35.35,0,0,1-.06.34.66.66,0,0,1-.335.26Zm-1.365-1.27c.445.685.885,1.1,1.2,1.115a.415.415,0,0,0,.36-.2.16.16,0,0,0,.035-.17C142.62,393.707,141.685,393.407,141.145,393.277Z" transform="translate(-133.349 -260.669)" fill="#53b553"/>
      <path id="Path_219402" data-name="Path 219402" d="M142.344,392.328a3.159,3.159,0,0,1-1.415.06.119.119,0,0,1-.06-.15c.04-.035.95-.925,1.585-.88a.5.5,0,0,1,.4.21.36.36,0,0,1,.04.44,1,1,0,0,1-.55.32Zm-1.205-.08c.5.07,1.435-.055,1.63-.34.03-.045.055-.115-.035-.23a.335.335,0,0,0-.27-.145c-.435-.03-1.065.48-1.325.715Z" transform="translate(-133.343 -259.83)" fill="#53b553"/>
      <path id="Path_219403" data-name="Path 219403" d="M187.809,407.308a6.954,6.954,0,0,1-1.435-.185.085.085,0,0,1,0-.16c.215-.105,2.13-1,2.61-.66a.29.29,0,0,1,.125.27.64.64,0,0,1-.26.5,1.745,1.745,0,0,1-1.04.235Zm-1.135-.3a3.3,3.3,0,0,0,2.05-.08.5.5,0,0,0,.19-.365.11.11,0,0,0-.05-.115c-.27-.185-1.4.21-2.205.56Z" transform="translate(-156.072 -267.265)" fill="#53b553"/>
      <path id="Path_219404" data-name="Path 219404" d="M186.374,406.06a.105.105,0,0,1-.055,0,.1.1,0,0,1-.03-.09c0-.08.455-1.965,1.5-1.845.26.035.33.16.345.265.065.5-1.14,1.445-1.715,1.685Zm1.31-1.785c-.66,0-1.045,1.1-1.175,1.54.625-.33,1.5-1.115,1.445-1.42,0-.025,0-.1-.2-.115Z" transform="translate(-156.057 -266.211)" fill="#53b553"/>
      <path id="Path_219405" data-name="Path 219405" d="M206,143.92l.885-.13S206.36,144.4,206,143.92Z" transform="translate(-165.913 -136.047)" fill="#263238"/>
    </g>
    <g id="freepik--E-mails--inject-1" transform="translate(139.73 155.496)">
      <path id="Path_219406" data-name="Path 219406" d="M245.44,216.658l-19.36,4a1.29,1.29,0,0,1-1.5-1l-.9-4.2-.325-1.55.57-1.77a6.358,6.358,0,0,1,.285-.745.534.534,0,0,1,.05-.11,7.715,7.715,0,0,1,1.275-2l1-.21,16.6-3.445a1.29,1.29,0,0,1,1.5,1l1.765,8.5A1.29,1.29,0,0,1,245.44,216.658Z" transform="translate(-223.35 -205.587)" fill="#53b553"/>
      <path id="Path_219407" data-name="Path 219407" d="M245.395,206.16l-9.34,9.5-2-.81-7.78-3.155-1.1-.445a7.715,7.715,0,0,1,1.275-2l1-.21,16.6-3.445a1.3,1.3,0,0,1,1.34.565Z" transform="translate(-224.265 -205.57)" opacity="0.3"/>
      <path id="Path_219408" data-name="Path 219408" d="M245.345,206.195l-11.34,8.705-.74.57-7.125-3.535-1.06-.5a.534.534,0,0,1,.05-.11,7.715,7.715,0,0,1,1.275-2l1-.21,16.6-3.445A1.3,1.3,0,0,1,245.345,206.195Z" transform="translate(-224.215 -205.605)" fill="#53b553"/>
      <path id="Path_219409" data-name="Path 219409" d="M245.345,206.195l-11.34,8.705-.74.57-7.125-3.535-1.06-.5a.534.534,0,0,1,.05-.11,7.715,7.715,0,0,1,1.275-2l1-.21,16.6-3.445A1.3,1.3,0,0,1,245.345,206.195Z" transform="translate(-224.215 -205.605)" fill="#fff" opacity="0.2"/>
      <path id="Path_219410" data-name="Path 219410" d="M292.206,247.141l-5.9,6.36a1.29,1.29,0,0,1-1.815.065l-14.47-13.475a1.285,1.285,0,0,1-.065-1.815l5.92-6.36a1.28,1.28,0,0,1,1.82-.065l14.465,13.475a1.285,1.285,0,0,1,.325,1.4A1.18,1.18,0,0,1,292.206,247.141Z" transform="translate(-246.481 -218.536)" fill="#53b553"/>
      <path id="Path_219411" data-name="Path 219411" d="M299.105,246.736l-13.16-2.145-3.055-13a1.3,1.3,0,0,1,1.425.225l14.465,13.475A1.285,1.285,0,0,1,299.105,246.736Z" transform="translate(-253.12 -218.521)" opacity="0.3"/>
      <path id="Path_219412" data-name="Path 219412" d="M299.105,246.781l-12.815-3.82-3.4-11.28a1.3,1.3,0,0,1,1.425.225l14.465,13.475A1.285,1.285,0,0,1,299.105,246.781Z" transform="translate(-253.12 -218.566)" fill="#53b553"/>
      <path id="Path_219413" data-name="Path 219413" d="M299.105,246.781l-12.815-3.82-3.4-11.28a1.3,1.3,0,0,1,1.425.225l14.465,13.475A1.285,1.285,0,0,1,299.105,246.781Z" transform="translate(-253.12 -218.566)" fill="#fff" opacity="0.2"/>
      <path id="Path_219414" data-name="Path 219414" d="M310.346,283.243l6.5,7.59a1.4,1.4,0,0,1-.215,2.03l-14.12,11a1.115,1.115,0,0,1-1.47-.29l-5.085-5.8a1.539,1.539,0,0,1-.235-.37,1.075,1.075,0,0,1,.115-1.16l12.5-13.055a1.345,1.345,0,0,1,1.57-.3,1.5,1.5,0,0,1,.44.355Z" transform="translate(-259.476 -244.162)" fill="#53b553"/>
      <path id="Path_219415" data-name="Path 219415" d="M309.926,282.924l-3.105,13.81-11.06.7a1.075,1.075,0,0,1,.115-1.16l12.5-13.055A1.345,1.345,0,0,1,309.926,282.924Z" transform="translate(-259.496 -244.184)" opacity="0.3"/>
      <path id="Path_219416" data-name="Path 219416" d="M309.916,282.921l-5.2,14.655-8.97-.14a1.075,1.075,0,0,1,.115-1.16l12.5-13.055A1.345,1.345,0,0,1,309.916,282.921Z" transform="translate(-259.486 -244.181)" fill="#53b553"/>
      <path id="Path_219417" data-name="Path 219417" d="M309.916,282.921l-5.2,14.655-8.97-.14a1.075,1.075,0,0,1,.115-1.16l12.5-13.055A1.345,1.345,0,0,1,309.916,282.921Z" transform="translate(-259.486 -244.181)" fill="#fff" opacity="0.2"/>
    </g>
  </g>
</svg>
