<svg id="iconGooglePlayEN_noinline.9892833785b26dd5896b7c70b089f684" xmlns="http://www.w3.org/2000/svg" xmlns:xlink="http://www.w3.org/1999/xlink" width="135" height="40" viewBox="0 0 135 40">
  <defs>
    <linearGradient id="linear-gradient" x1="0.908" y1="-72.808" x2="-0.382" y2="-73.48" gradientUnits="objectBoundingBox">
      <stop offset="0" stop-color="#00a0ff"/>
      <stop offset="0" stop-color="#00a1ff"/>
      <stop offset="0.3" stop-color="#00beff"/>
      <stop offset="0.5" stop-color="#00d2ff"/>
      <stop offset="0.8" stop-color="#00dfff"/>
      <stop offset="1" stop-color="#00e3ff"/>
    </linearGradient>
    <linearGradient id="linear-gradient-2" x1="1.074" y1="-216.447" x2="-1.31" y2="-216.447" gradientUnits="objectBoundingBox">
      <stop offset="0" stop-color="#ffe000"/>
      <stop offset="0.4" stop-color="#ffbd00"/>
      <stop offset="0.8" stop-color="orange"/>
      <stop offset="1" stop-color="#ff9c00"/>
    </linearGradient>
    <linearGradient id="linear-gradient-3" x1="0.862" y1="-143.251" x2="-0.497" y2="-145.013" gradientUnits="objectBoundingBox">
      <stop offset="0" stop-color="#ff3a44"/>
      <stop offset="1" stop-color="#c31162"/>
    </linearGradient>
    <linearGradient id="linear-gradient-4" x1="-0.186" y1="-140.685" x2="0.419" y2="-141.47" gradientUnits="objectBoundingBox">
      <stop offset="0" stop-color="#32a071"/>
      <stop offset="0.1" stop-color="#2da771"/>
      <stop offset="0.5" stop-color="#15cf74"/>
      <stop offset="0.8" stop-color="#06e775"/>
      <stop offset="1" stop-color="#00f076"/>
    </linearGradient>
  </defs>
  <path id="Path_219029" data-name="Path 219029" d="M130.2,40H4.7A4.7,4.7,0,0,1,0,35.3V4.7A4.7,4.7,0,0,1,4.7,0H130.2A4.781,4.781,0,0,1,135,4.7V35.2A4.8,4.8,0,0,1,130.2,40Z" fill="#a6a6a6"/>
  <path id="Path_219030" data-name="Path 219030" d="M134,35.3a3.8,3.8,0,0,1-3.8,3.8H4.7A3.8,3.8,0,0,1,.9,35.3V4.7A3.8,3.8,0,0,1,4.7.9H130.2A3.8,3.8,0,0,1,134,4.7Z" transform="translate(0)"/>
  <path id="Path_219031" data-name="Path 219031" d="M47.4,10.2a2.568,2.568,0,0,1-.8,2,3.1,3.1,0,0,1-5.3-2.3,3.073,3.073,0,0,1,3.1-3.1l1.2.2a1.6,1.6,0,0,1,.9.7l-.5.5a2,2,0,0,0-1.6-.7,2.263,2.263,0,0,0-2.3,2.3v.1a2.334,2.334,0,0,0,4,1.7,1.845,1.845,0,0,0,.5-1.2H44.4V9.8h2.9l.1.4ZM52,7.7H49.3V9.6h2.5v.7H49.3v1.9H52V13H48.5V7H52ZM55.3,13h-.8V7.7H52.8V7H57v.7H55.3Zm4.6,0V7h.8v6Zm4.2,0h-.8V7.7H61.6V7h4.1v.7H64V13Zm9.5-.8a3.1,3.1,0,0,1-4.4,0,3.111,3.111,0,0,1,4.4-4.4,3.1,3.1,0,0,1,0,4.4Zm-3.8-.5a2.354,2.354,0,0,0,3.3,0,2.477,2.477,0,0,0,0-3.4,2.354,2.354,0,0,0-3.3,0,2.478,2.478,0,0,0,0,3.4ZM75.6,13V7h.9l2.9,4.7V7h.8v6h-.8L76.3,8.1V13h-.7Z" transform="translate(0)" fill="#fff" stroke="#fff" stroke-width="0.2"/>
  <path id="Path_219032" data-name="Path 219032" d="M68.1,21.8a4.2,4.2,0,1,0,.2,0C68.2,21.7,68.2,21.7,68.1,21.8Zm0,6.8a2.608,2.608,0,1,1,2.4-2.8V26a2.413,2.413,0,0,1-2.4,2.6h0Zm-9.3-6.8a4.2,4.2,0,1,0,.2,0C58.9,21.7,58.9,21.7,58.8,21.8Zm0,6.8a2.608,2.608,0,1,1,2.4-2.8V26a2.475,2.475,0,0,1-2.4,2.6h0ZM47.7,23.1v1.8H52a4.3,4.3,0,0,1-1,2.3,4.224,4.224,0,0,1-3.3,1.3,4.8,4.8,0,0,1,0-9.6A4.6,4.6,0,0,1,51,20.2l1.3-1.3a6.653,6.653,0,1,0-5.1,11.3h.5a6.1,6.1,0,0,0,4.6-1.8,6.661,6.661,0,0,0,1.6-4.2l-.1-1.1H47.7Zm45.4,1.4a3.894,3.894,0,0,0-7.6,1.3v.3a4.14,4.14,0,0,0,4.1,4.2h.2a4,4,0,0,0,3.5-1.9l-1.4-1a2.437,2.437,0,0,1-2.1,1.2,2.332,2.332,0,0,1-2.1-1.3L93.4,25l-.3-.5Zm-5.9,1.4a2.351,2.351,0,0,1,2.2-2.5,1.7,1.7,0,0,1,1.6.9l-3.8,1.6ZM82.6,30h1.9V17.5H82.6Zm-3-7.3a3.445,3.445,0,0,0-2.3-1,4.257,4.257,0,0,0,0,8.5,2.865,2.865,0,0,0,2.2-1h.1v.6a2.213,2.213,0,0,1-2.3,2.5,2.162,2.162,0,0,1-2.1-1.5l-1.6.7A4,4,0,0,0,77.4,34c2.2,0,4-1.3,4-4.4V22H79.7Zm-2.2,5.9A2.7,2.7,0,0,1,75,25.8a2.666,2.666,0,0,1,2.4-2.4,2.506,2.506,0,0,1,2.3,2.5V26a2.443,2.443,0,0,1-2.2,2.6h-.1Zm24.4-11.1H97.3V30h1.9V25.3h2.6a3.912,3.912,0,0,0,.6-7.8Zm0,6H99.2V19.2h2.7a2.112,2.112,0,0,1,2.1,2.1,2.289,2.289,0,0,1-2.2,2.2Zm11.5-1.8a3.454,3.454,0,0,0-3.3,1.9l1.7.7a1.682,1.682,0,0,1,1.7-.9,1.805,1.805,0,0,1,2,1.6v.1a4.486,4.486,0,0,0-1.9-.5c-1.8,0-3.6,1-3.6,2.8a3,3,0,0,0,3,2.8h.1a2.526,2.526,0,0,0,2.4-1.2h.1v1h1.8V25.2c-.1-2.2-1.8-3.5-4-3.5Zm-.2,6.8c-.6,0-1.5-.3-1.5-1.1,0-1,1.1-1.3,2-1.3a3.287,3.287,0,0,1,1.7.4A2.05,2.05,0,0,1,113.1,28.5ZM123.7,22l-2.1,5.4h-.1L119.3,22h-2l3.3,7.6-1.9,4.2h1.9L125.7,22h-2Zm-16.8,8h1.9V17.5h-1.9Z" transform="translate(0)" fill="#fff"/>
  <path id="Path_219033" data-name="Path 219033" d="M10.4,7.5A1.792,1.792,0,0,0,10,8.9V31a1.872,1.872,0,0,0,.5,1.4l.1.1L23,20.1v-.3Z" transform="translate(0)" fill="url(#linear-gradient)"/>
  <path id="Path_219034" data-name="Path 219034" d="M27,24.3l-4.1-4.1v-.3L27,15.8h.1L32,18.6c1.4.8,1.4,2.1,0,2.9l-4.9,2.8H27Z" fill="url(#linear-gradient-2)"/>
  <path id="Path_219035" data-name="Path 219035" d="M27.1,24.2,22.9,20,10.4,32.5a1.807,1.807,0,0,0,2.1.1l14.6-8.4" fill="url(#linear-gradient-3)"/>
  <path id="Path_219036" data-name="Path 219036" d="M27.1,15.8,12.5,7.5a1.658,1.658,0,0,0-2.1,0L22.9,20l4.2-4.2Z" fill="url(#linear-gradient-4)"/>
  <path id="Path_219037" data-name="Path 219037" d="M27,24.1,12.5,32.3a1.817,1.817,0,0,1-2,0l-.1.1.1.1a1.817,1.817,0,0,0,2,0l14.6-8.3-.1-.1Z" opacity="0.2"/>
  <path id="Path_219038" data-name="Path 219038" d="M10.4,32.3a2.389,2.389,0,0,1-.5-1.4v.2a1.872,1.872,0,0,0,.5,1.4ZM32,21.3l-5,2.8.1.1L32,21.4A1.806,1.806,0,0,0,33,20,1.887,1.887,0,0,1,32,21.3Z" opacity="0.12"/>
  <path id="Path_219039" data-name="Path 219039" d="M12.5,7.6,32,18.7A1.887,1.887,0,0,1,33,20a1.663,1.663,0,0,0-1-1.4L12.5,7.6C11.1,6.7,10,7.4,10,8.9V9C10,7.5,11.1,6.8,12.5,7.6Z" fill="#fff" opacity="0.3"/>
</svg>
