<svg xmlns="http://www.w3.org/2000/svg" xmlns:xlink="http://www.w3.org/1999/xlink" width="49" height="49" viewBox="0 0 49 49">
  <defs>
    <clipPath id="clip-path">
      <rect id="Rectangle_11473" data-name="Rectangle 11473" width="39" height="39" transform="translate(-0.063 0.136)" fill="#53b553" stroke="#707070" stroke-width="1"/>
    </clipPath>
  </defs>
  <g id="Group_73002" data-name="Group 73002" transform="translate(-0.09 -0.289)">
    <rect id="Rectangle_11479" data-name="Rectangle 11479" width="49" height="49" rx="10" transform="translate(0.09 0.289)" fill="#eff1f7"/>
    <g id="Mask_Group_29516" data-name="Mask Group 29516" transform="translate(5.153 5.153)" clip-path="url(#clip-path)">
      <g id="whats" transform="translate(5.362 4.282)">
        <g id="Layer_x0020_1" transform="translate(0 0)">
          <path id="Path_219002" data-name="Path 219002" d="M17.826,16.075c-.545.223-.893,1.075-1.246,1.511a.522.522,0,0,1-.675.146,9.5,9.5,0,0,1-4.741-4.061.581.581,0,0,1,.074-.793,3.211,3.211,0,0,0,.861-1.4c.2-1.2-1.359-4.907-3.425-3.226C2.731,13.1,18.59,25.944,21.452,19,22.261,17.026,18.729,15.705,17.826,16.075Zm-3.436,10.2a11.867,11.867,0,0,1-5.981-1.617,1.264,1.264,0,0,0-.967-.127l-3.935,1.08,1.371-3.02a1.256,1.256,0,0,0-.125-1.255,11.876,11.876,0,1,1,9.637,4.938ZM14.39,0A14.39,14.39,0,0,0,2.3,22.192L.11,27.008a1.257,1.257,0,0,0,1.145,1.777c.811,0,5.231-1.389,6.356-1.7A14.392,14.392,0,1,0,14.39,0Z" transform="translate(0.003 0)" fill="#39ae41"/>
        </g>
      </g>
    </g>
  </g>
</svg>
