<svg xmlns="http://www.w3.org/2000/svg" xmlns:xlink="http://www.w3.org/1999/xlink" width="49" height="49" viewBox="0 0 49 49">
  <defs>
    <clipPath id="clip-path">
      <rect id="Rectangle_11475" data-name="Rectangle 11475" width="39" height="39" transform="translate(-0.063 0.145)" fill="#53b553" stroke="#707070" stroke-width="1"/>
    </clipPath>
    <linearGradient id="linear-gradient" x1="0.5" x2="0.5" y2="1" gradientUnits="objectBoundingBox">
      <stop offset="0" stop-color="#7623be"/>
      <stop offset="0.492" stop-color="#c3256b"/>
      <stop offset="1" stop-color="#d98541"/>
    </linearGradient>
  </defs>
  <g id="Group_73108" data-name="Group 73108" transform="translate(-0.09 -0.299)">
    <rect id="Rectangle_11481" data-name="Rectangle 11481" width="49" height="49" rx="10" transform="translate(0.09 0.298)" fill="#eff1f7"/>
    <g id="Mask_Group_29518" data-name="Mask Group 29518" transform="translate(5.153 5.153)" clip-path="url(#clip-path)">
      <g id="svgexport-7" transform="translate(4.673 4.673)">
        <path id="Path_219003" data-name="Path 219003" d="M29.214,8.611a10.756,10.756,0,0,0-.681-3.556,7.181,7.181,0,0,0-1.69-2.6,7.183,7.183,0,0,0-2.6-1.69,10.754,10.754,0,0,0-3.556-.68C19.129.017,18.63,0,14.651,0S10.173.017,8.61.088A10.758,10.758,0,0,0,5.054.769a7.181,7.181,0,0,0-2.6,1.69A7.182,7.182,0,0,0,.769,5.054,10.756,10.756,0,0,0,.088,8.61C.017,10.173,0,10.672,0,14.651s.017,4.478.089,6.041a10.754,10.754,0,0,0,.681,3.556,7.18,7.18,0,0,0,1.69,2.595,7.179,7.179,0,0,0,2.6,1.69,10.75,10.75,0,0,0,3.556.681c1.563.071,2.062.088,6.041.088s4.478-.017,6.041-.088a10.752,10.752,0,0,0,3.556-.681,7.49,7.49,0,0,0,4.285-4.285,10.753,10.753,0,0,0,.681-3.556c.071-1.563.088-2.062.088-6.041s-.017-4.478-.088-6.041ZM26.577,20.572a8.106,8.106,0,0,1-.5,2.721,4.852,4.852,0,0,1-2.781,2.781,8.106,8.106,0,0,1-2.721.5c-1.545.071-2.008.085-5.92.085s-4.376-.015-5.921-.085a8.109,8.109,0,0,1-2.721-.5,4.541,4.541,0,0,1-1.685-1.1,4.539,4.539,0,0,1-1.1-1.685,8.106,8.106,0,0,1-.5-2.721c-.07-1.545-.085-2.008-.085-5.92s.015-4.376.085-5.921a8.112,8.112,0,0,1,.5-2.721,4.542,4.542,0,0,1,1.1-1.685A4.536,4.536,0,0,1,6.01,3.23a8.1,8.1,0,0,1,2.721-.5c1.545-.07,2.008-.085,5.92-.085h0c3.912,0,4.376.015,5.921.086a8.108,8.108,0,0,1,2.721.5,4.543,4.543,0,0,1,1.685,1.1,4.536,4.536,0,0,1,1.1,1.685,8.1,8.1,0,0,1,.5,2.721c.07,1.545.085,2.008.085,5.92s-.015,4.376-.085,5.921Zm0,0" transform="translate(0 0)" fill="url(#linear-gradient)"/>
        <path id="Path_219004" data-name="Path 219004" d="M132.063,124.539a7.524,7.524,0,1,0,7.524,7.524A7.524,7.524,0,0,0,132.063,124.539Zm0,12.407a4.884,4.884,0,1,1,4.884-4.884A4.884,4.884,0,0,1,132.063,136.946Zm0,0" transform="translate(-117.411 -117.411)" fill="url(#linear-gradient)"/>
        <path id="Path_219005" data-name="Path 219005" d="M365.446,90.384a1.758,1.758,0,1,1-1.758-1.758A1.758,1.758,0,0,1,365.446,90.384Zm0,0" transform="translate(-341.216 -83.553)" fill="url(#linear-gradient)"/>
      </g>
    </g>
  </g>
</svg>
