<svg xmlns="http://www.w3.org/2000/svg" xmlns:xlink="http://www.w3.org/1999/xlink" width="49" height="49" viewBox="0 0 49 49">
  <defs>
    <clipPath id="clip-path">
      <rect id="Rectangle_11474" data-name="Rectangle 11474" width="38" height="39" transform="translate(0.458 0.145)" fill="#53b553" stroke="#707070" stroke-width="1"/>
    </clipPath>
    <linearGradient id="linear-gradient" x1="0.5" x2="0.5" y2="1" gradientUnits="objectBoundingBox">
      <stop offset="0" stop-color="#00e4f0"/>
      <stop offset="1" stop-color="#006ff0"/>
    </linearGradient>
  </defs>
  <g id="Group_73107" data-name="Group 73107" transform="translate(0.389 -0.299)">
    <rect id="Rectangle_11480" data-name="Rectangle 11480" width="49" height="49" rx="10" transform="translate(-0.389 0.298)" fill="#eff1f7"/>
    <g id="Mask_Group_29517" data-name="Mask Group 29517" transform="translate(5.153 5.153)" clip-path="url(#clip-path)">
      <g id="web" transform="translate(5.318 5.318)">
        <g id="Group_72983" data-name="Group 72983" transform="translate(0 0)">
          <g id="Group_72982" data-name="Group 72982">
            <path id="Path_218933" data-name="Path 218933" d="M23.91,4.1A14.006,14.006,0,1,0,4.1,23.91,14.006,14.006,0,1,0,23.91,4.1ZM5.264,5.264A12.333,12.333,0,0,1,9.518,2.48a11.548,11.548,0,0,0-1.172,1.8A16.135,16.135,0,0,0,7.266,6.858,25.3,25.3,0,0,1,4.4,6.223,12.607,12.607,0,0,1,5.264,5.264ZM3.4,7.637a25.378,25.378,0,0,0,3.417.81,23.847,23.847,0,0,0-.605,4.738H1.671A12.252,12.252,0,0,1,3.4,7.637ZM3.315,20.224a12.255,12.255,0,0,1-1.645-5.4H6.22a23.823,23.823,0,0,0,.594,4.606A26.63,26.63,0,0,0,3.315,20.224Zm1.949,2.525a12.58,12.58,0,0,1-.976-1.1,26.566,26.566,0,0,1,2.966-.626,16.164,16.164,0,0,0,1.09,2.608,11.358,11.358,0,0,0,1.286,1.943A12.33,12.33,0,0,1,5.264,22.748Zm7.921,3.41a6.124,6.124,0,0,1-3.389-3.3,14.287,14.287,0,0,1-.884-2.056c1.353-.149,2.793-.237,4.272-.258Zm0-7.254a46.293,46.293,0,0,0-4.738.3,22.039,22.039,0,0,1-.584-4.379h5.321v4.077Zm0-5.72H7.86a22.071,22.071,0,0,1,.592-4.5,45.618,45.618,0,0,0,4.732.332Zm0-5.809c-1.485-.03-2.922-.127-4.265-.285A14.285,14.285,0,0,1,9.8,5.055a6.124,6.124,0,0,1,3.389-3.3V7.376Zm11.475.349a12.256,12.256,0,0,1,1.682,5.46H21.8A23.877,23.877,0,0,0,21.2,8.5,26.835,26.835,0,0,0,24.66,7.724Zm-1.911-2.46A12.591,12.591,0,0,1,23.674,6.3a26.819,26.819,0,0,1-2.911.608,16.174,16.174,0,0,0-1.1-2.623A11.548,11.548,0,0,0,18.5,2.48,12.333,12.333,0,0,1,22.748,5.264Zm-7.921,9.564h5.321a22.009,22.009,0,0,1-.591,4.41,45.662,45.662,0,0,0-4.73-.329Zm0-1.643V9.024a46.344,46.344,0,0,0,4.741-.3,22.094,22.094,0,0,1,.583,4.459Zm0-11.426h0a6.124,6.124,0,0,1,3.389,3.3,14.306,14.306,0,0,1,.889,2.071c-1.355.148-2.8.236-4.277.256Zm0,24.4V20.553c1.484.029,2.919.125,4.262.282a14.277,14.277,0,0,1-.874,2.027A6.124,6.124,0,0,1,14.828,26.159Zm7.921-3.41a12.328,12.328,0,0,1-4.367,2.827,11.358,11.358,0,0,0,1.286-1.943,16.129,16.129,0,0,0,1.077-2.566,25.277,25.277,0,0,1,2.928.649A12.6,12.6,0,0,1,22.748,22.748Zm1.905-2.45a25.379,25.379,0,0,0-3.465-.821,23.8,23.8,0,0,0,.6-4.65h4.549A12.256,12.256,0,0,1,24.654,20.3Z" transform="translate(0 0)" fill="url(#linear-gradient)"/>
          </g>
        </g>
      </g>
    </g>
  </g>
</svg>
