<svg xmlns="http://www.w3.org/2000/svg" xmlns:xlink="http://www.w3.org/1999/xlink" width="55" height="55" viewBox="0 0 55 55">
  <defs>
    <clipPath id="clip-path">
      <rect id="Rectangle_11469" data-name="Rectangle 11469" width="30" height="30" transform="translate(271.714 755.714)" fill="#53b553" stroke="#707070" stroke-width="1"/>
    </clipPath>
  </defs>
  <g id="Group_30963" data-name="Group 30963" transform="translate(-833 -1008)">
    <g id="Ellipse_615" data-name="Ellipse 615" transform="translate(833 1008)" fill="#fff" stroke="#f4f4f8" stroke-width="1">
      <circle cx="27.5" cy="27.5" r="27.5" stroke="none"/>
      <circle cx="27.5" cy="27.5" r="27" fill="none"/>
    </g>
    <g id="Mask_Group_29514" data-name="Mask Group 29514" transform="translate(573.786 264.786)" clip-path="url(#clip-path)">
      <path id="Icon_metro-attachment" data-name="Icon metro-attachment" d="M14.013,7.335,12.939,6.261,7.57,11.63a2.278,2.278,0,1,0,3.222,3.221l6.444-6.442A3.8,3.8,0,0,0,11.866,3.04L5.1,9.8l-.014.014a5.295,5.295,0,0,0,7.489,7.487l.014-.014h0l4.618-4.617L16.132,11.6l-4.618,4.617-.014.014a3.776,3.776,0,1,1-5.341-5.339l.015-.014h0l6.766-6.764a2.278,2.278,0,0,1,3.222,3.221L9.718,13.777A.759.759,0,1,1,8.643,12.7l5.37-5.369Z" transform="translate(275.773 760.322)" fill="#53b553"/>
    </g>
  </g>
</svg>
