<svg id="Group_73152" data-name="Group 73152" xmlns="http://www.w3.org/2000/svg" xmlns:xlink="http://www.w3.org/1999/xlink" width="34" height="34" viewBox="0 0 34 34">
  <defs>
    <clipPath id="clip-path">
      <rect id="Rectangle_17740" data-name="Rectangle 17740" width="24" height="24" fill="#53b553" stroke="#707070" stroke-width="1"/>
    </clipPath>
  </defs>
  <g id="Ellipse_752" data-name="Ellipse 752" fill="#f6f8fa" stroke="#36b55b" stroke-width="1">
    <circle cx="17" cy="17" r="17" stroke="none"/>
    <circle cx="17" cy="17" r="16.5" fill="none"/>
  </g>
  <g id="Mask_Group_29436" data-name="Mask Group 29436" transform="translate(5 5)" clip-path="url(#clip-path)">
    <path id="Icon_awesome-linkedin-in" data-name="Icon awesome-linkedin-in" d="M3.046,13.608H.225V4.523H3.046ZM1.634,3.284A1.642,1.642,0,1,1,3.268,1.635,1.648,1.648,0,0,1,1.634,3.284ZM13.6,13.608H10.789V9.186c0-1.054-.021-2.406-1.467-2.406-1.467,0-1.692,1.145-1.692,2.33v4.5H4.813V4.523H7.519V5.762h.039A2.964,2.964,0,0,1,10.228,4.3c2.855,0,3.38,1.88,3.38,4.322v4.99Z" transform="translate(5.196 5.196)" fill="#53b553"/>
  </g>
</svg>
