<svg xmlns="http://www.w3.org/2000/svg" xmlns:xlink="http://www.w3.org/1999/xlink" width="16" height="16" viewBox="0 0 16 16">
  <defs>
    <clipPath id="clip-path">
      <rect id="Rectangle_18072" data-name="Rectangle 18072" width="16" height="16" fill="#fff" stroke="#707070" stroke-width="1"/>
    </clipPath>
  </defs>
  <g id="Mask_Group_29590" data-name="Mask Group 29590" clip-path="url(#clip-path)">
    <g id="kids" transform="translate(0.942)">
      <g id="Group_73461" data-name="Group 73461" transform="translate(2.331 3.594)">
        <path id="Path_219565" data-name="Path 219565" d="M3.511,4.708a.238.238,0,0,0-.238.238V13.9a.238.238,0,0,0,.476,0V4.946A.238.238,0,0,0,3.511,4.708Z" transform="translate(-3.273 -3.594)" fill="#aa776d"/>
        <path id="Path_219566" data-name="Path 219566" d="M12.386,4.708a.238.238,0,0,0-.238.238V13.9a.238.238,0,1,0,.476,0V4.946A.238.238,0,0,0,12.386,4.708Z" transform="translate(-3.273 -3.594)" fill="#aa776d"/>
        <path id="Path_219567" data-name="Path 219567" d="M8.043,3.594a.238.238,0,0,0-.238.238V14.7a.238.238,0,0,0,.476,0V3.832A.238.238,0,0,0,8.043,3.594Z" transform="translate(-3.273 -3.594)" fill="#aa776d"/>
      </g>
      <path id="Path_219568" data-name="Path 219568" d="M3.578,7.387,4.01,8.716a.07.07,0,0,0,.067.049h1.4a.07.07,0,0,1,.041.127l-1.13.821a.07.07,0,0,0-.026.079l.432,1.329a.07.07,0,0,1-.108.079l-1.13-.821a.07.07,0,0,0-.083,0L2.34,11.2a.07.07,0,0,1-.108-.079l.432-1.329a.07.07,0,0,0-.026-.079l-1.13-.821a.07.07,0,0,1,.041-.127h1.4a.07.07,0,0,0,.067-.049l.432-1.329A.07.07,0,0,1,3.578,7.387Z" transform="translate(-0.942)" fill="#c7a0cf"/>
      <circle id="Ellipse_823" data-name="Ellipse 823" cx="0.633" cy="0.633" r="0.633" transform="translate(1.936 12.923)" fill="#f77fa4"/>
      <path id="Path_219569" data-name="Path 219569" d="M12.328,7.269,11.022,9.221a.07.07,0,0,0,0,.078l1.306,1.952a.07.07,0,0,0,.117,0L13.75,9.3a.07.07,0,0,0,0-.078L12.445,7.269A.07.07,0,0,0,12.328,7.269Z" transform="translate(-0.942)" fill="#73e7e6"/>
      <g id="Group_73462" data-name="Group 73462" transform="translate(6.375 7.584)">
        <circle id="Ellipse_824" data-name="Ellipse 824" cx="0.633" cy="0.633" r="0.633" transform="translate(4.436 5.339)" fill="#f77fa4"/>
        <circle id="Ellipse_825" data-name="Ellipse 825" cx="0.715" cy="0.715" r="0.715" transform="translate(0)" fill="#f77fa4"/>
      </g>
      <path id="Path_219570" data-name="Path 219570" d="M8.337,13.823a2.178,2.178,0,0,1,1.409-2.037,2.177,2.177,0,1,0,0,4.075A2.177,2.177,0,0,1,8.337,13.823Z" transform="translate(-0.942)" fill="#ff9f40"/>
      <path id="Path_219571" data-name="Path 219571" d="M9.747,11.786c-1.713.156-2.277,1.105-2.277,2.037a2,2,0,0,0,2.183,2.07l.094-.033a2.177,2.177,0,0,1,0-4.075Z" transform="translate(-0.942)" fill="#f49138"/>
      <path id="Path_219572" data-name="Path 219572" d="M8.77,15.99c.069.007.139.01.209.01a2.178,2.178,0,0,0,.409-.039C9.2,15.975,8.976,15.984,8.77,15.99Z" transform="translate(-0.942)" fill="#ff9f40"/>
      <path id="Path_219573" data-name="Path 219573" d="M14.521,6.4a.537.537,0,0,1-.4-.18A5.936,5.936,0,0,0,11.683,4.7,10.975,10.975,0,0,0,8,4.1a10.976,10.976,0,0,0-3.684.616A5.936,5.936,0,0,0,1.883,6.245a.538.538,0,1,1-.806-.713c1.36-1.538,4.01-2.5,6.917-2.5s5.561.942,6.928,2.474a.538.538,0,0,1-.4.9Z" transform="translate(-0.942)" fill="#5c576b"/>
      <path id="Path_219574" data-name="Path 219574" d="M8.065,3.234A1.617,1.617,0,1,1,9.682,1.617,1.619,1.619,0,0,1,8.065,3.234Zm0-2.758A1.141,1.141,0,1,0,9.206,1.617,1.142,1.142,0,0,0,8.065.476Z" transform="translate(-0.942)" fill="#f26666"/>
      <path id="Path_219575" data-name="Path 219575" d="M14.925,6.215l.022-.026.011-.014.018-.027.009-.014c.007-.011.013-.023.019-.035l0-.008c.007-.014.012-.028.018-.043l.006-.017c0-.009.006-.018.008-.028l.005-.02c0-.009,0-.017.005-.026s0-.014,0-.021,0-.018,0-.027,0-.021,0-.032,0-.02,0-.031,0-.017,0-.025,0-.014,0-.021,0-.017,0-.026l0-.02c0-.009,0-.018-.006-.026l-.005-.018a.535.535,0,0,0-.114-.207,5.456,5.456,0,0,0-.883-.787L14,4.767a.685.685,0,0,1-.91.174,7.364,7.364,0,0,0-1.407-.67A10.975,10.975,0,0,0,8,3.671a10.976,10.976,0,0,0-3.684.616A5.945,5.945,0,0,0,1.889,5.806a.546.546,0,0,1-.732.08.535.535,0,0,1-.169-.214.538.538,0,0,0,.158.639.545.545,0,0,0,.742-.07,5.943,5.943,0,0,1,2.424-1.52A10.975,10.975,0,0,1,8,4.1a10.975,10.975,0,0,1,3.687.6,7,7,0,0,1,1.712.873h0l.107.079.056.044.063.05.053.043.075.063.035.03q.052.046.1.093l.034.033.072.072.031.031c.032.034.064.068.1.1a.538.538,0,0,0,.76.043c.013-.011.025-.023.036-.035Z" transform="translate(-0.942)" fill="#4f4b5e"/>
      <path id="Path_219576" data-name="Path 219576" d="M12.445,7.269a.07.07,0,0,0-.058-.031v4.045a.07.07,0,0,0,.058-.031L13.75,9.3a.07.07,0,0,0,0-.078Z" transform="translate(-0.942)" fill="#65d1cb"/>
      <path id="Path_219577" data-name="Path 219577" d="M8.033,7.584v1.43a.715.715,0,0,0,0-1.43Z" transform="translate(-0.942)" fill="#e56795"/>
      <path id="Path_219578" data-name="Path 219578" d="M5.474,8.764h-1.4a.07.07,0,0,1-.067-.049L3.578,7.387a.069.069,0,0,0-.071-.048v3.025a.07.07,0,0,1,.046.013l1.13.821a.07.07,0,0,0,.108-.079L4.359,9.791a.07.07,0,0,1,.026-.079l1.13-.821A.07.07,0,0,0,5.474,8.764Z" transform="translate(-0.942)" fill="#b18cba"/>
      <g id="Group_73463" data-name="Group 73463" transform="translate(2.565 12.923)">
        <path id="Path_219579" data-name="Path 219579" d="M3.511,12.923h0v1.266h0a.633.633,0,1,0,0-1.266Z" transform="translate(-3.507 -12.923)" fill="#e56795"/>
        <path id="Path_219580" data-name="Path 219580" d="M12.386,12.923h0v1.266h0a.633.633,0,1,0,0-1.266Z" transform="translate(-3.507 -12.923)" fill="#e56795"/>
      </g>
    </g>
  </g>
</svg>
