<svg xmlns="http://www.w3.org/2000/svg" xmlns:xlink="http://www.w3.org/1999/xlink" width="16" height="16" viewBox="0 0 16 16">
  <defs>
    <clipPath id="clip-path">
      <rect id="Rectangle_18072" data-name="Rectangle 18072" width="16" height="16" fill="#fff" stroke="#707070" stroke-width="1"/>
    </clipPath>
  </defs>
  <g id="Mask_Group_29587" data-name="Mask Group 29587" clip-path="url(#clip-path)">
    <g id="sport_2" data-name="sport 2" transform="translate(0 3.324)">
      <g id="Group_73436" data-name="Group 73436">
        <path id="Path_219502" data-name="Path 219502" d="M5.89,9.613A2.829,2.829,0,1,1,3.062,6.785,2.828,2.828,0,0,1,5.89,9.613Z" transform="translate(0 -3.324)" fill="#eef7ff"/>
        <path id="Path_219503" data-name="Path 219503" d="M5.89,9.613a2.829,2.829,0,0,1-3.422,2.765,2.829,2.829,0,0,0,0-5.531A2.829,2.829,0,0,1,5.89,9.613Z" transform="translate(0 -3.324)" fill="#d8e5ef"/>
        <g id="Group_73432" data-name="Group 73432" transform="translate(0 0.604)">
          <g id="Group_73427" data-name="Group 73427" transform="translate(0 2.623)">
            <path id="Path_219504" data-name="Path 219504" d="M3.062,6.551A3.063,3.063,0,1,0,6.124,9.613,3.066,3.066,0,0,0,3.062,6.551Zm0,5.656A2.594,2.594,0,1,1,5.656,9.613,2.6,2.6,0,0,1,3.062,12.207Z" transform="translate(0 -6.551)" fill="#46637f"/>
            <path id="Path_219505" data-name="Path 219505" d="M15.766,9.613a2.829,2.829,0,1,1-2.828-2.828A2.828,2.828,0,0,1,15.766,9.613Z" transform="translate(0 -6.551)" fill="#eef7ff"/>
            <path id="Path_219506" data-name="Path 219506" d="M15.766,9.613a2.829,2.829,0,0,1-3.406,2.769,2.829,2.829,0,0,0,0-5.538,2.829,2.829,0,0,1,3.406,2.769Z" transform="translate(0 -6.551)" fill="#d8e5ef"/>
            <path id="Path_219507" data-name="Path 219507" d="M12.938,6.551A3.063,3.063,0,1,0,16,9.613,3.066,3.066,0,0,0,12.938,6.551Zm0,5.656a2.594,2.594,0,1,1,2.594-2.594,2.6,2.6,0,0,1-2.594,2.594Z" transform="translate(0 -6.551)" fill="#46637f"/>
          </g>
          <path id="Path_219508" data-name="Path 219508" d="M7.834,8.644,5.8,3.928l-.43.187L6.06,5.746,2.9,8.856l.329.334L6.261,6.206,7.4,8.831Z" transform="translate(0 -3.928)" fill="#33e279"/>
          <ellipse id="Ellipse_812" data-name="Ellipse 812" cx="0.955" cy="0.955" rx="0.955" ry="0.955" transform="translate(7.046 4.73)" fill="#eef7ff"/>
          <g id="Group_73431" data-name="Group 73431" transform="translate(2.828 4.496)">
            <g id="Group_73430" data-name="Group 73430">
              <g id="Group_73429" data-name="Group 73429">
                <g id="Group_73428" data-name="Group 73428">
                  <path id="Path_219509" data-name="Path 219509" d="M8,8.424l-4.96.366a.234.234,0,0,0,.017.468h.017L7,8.967a1.187,1.187,0,0,0,0,1.292L3.079,9.97a.234.234,0,0,0-.035.467L8,10.8H8A1.189,1.189,0,0,0,8,8.424Zm0,1.91-.122-.009a.721.721,0,0,1,0-1.423l.122-.009a.721.721,0,0,1,0,1.441Z" transform="translate(-2.828 -8.424)" fill="#46637f"/>
                </g>
              </g>
            </g>
          </g>
        </g>
        <g id="Group_73434" data-name="Group 73434" transform="translate(4.484)">
          <path id="Path_219510" data-name="Path 219510" d="M4.79,3.324a.3.3,0,0,0-.306.3.633.633,0,0,0,.635.632H6.13a.633.633,0,0,0,.635-.632.3.3,0,0,0-.306-.3Z" transform="translate(-4.484 -3.324)" fill="#f7904b"/>
          <g id="Group_73433" data-name="Group 73433" transform="translate(3.282)">
            <path id="Path_219511" data-name="Path 219511" d="M12.922,8.986,10.9,3.793h1.327a.071.071,0,0,1,.071.07.4.4,0,0,1-.4.4.234.234,0,0,0,0,.469.869.869,0,0,0,.869-.866.54.54,0,0,0-.54-.538h-1.67a.234.234,0,0,0-.218.319L11.1,5.611,7.822,9.461a.234.234,0,1,0,.357.3L11.3,6.107l1.188,3.049a.234.234,0,0,0,.437-.17Z" transform="translate(-7.766 -3.324)" fill="#33e279"/>
          </g>
        </g>
        <g id="Group_73435" data-name="Group 73435" transform="translate(2.238 5.465)">
          <ellipse id="Ellipse_813" data-name="Ellipse 813" cx="0.824" cy="0.825" rx="0.824" ry="0.825" fill="#46637f"/>
          <ellipse id="Ellipse_814" data-name="Ellipse 814" cx="0.824" cy="0.825" rx="0.824" ry="0.825" transform="translate(9.876)" fill="#46637f"/>
        </g>
      </g>
    </g>
  </g>
</svg>
