<svg xmlns="http://www.w3.org/2000/svg" xmlns:xlink="http://www.w3.org/1999/xlink" width="16" height="16" viewBox="0 0 16 16">
  <defs>
    <clipPath id="clip-path">
      <rect id="Rectangle_18072" data-name="Rectangle 18072" width="16" height="16" fill="#fff" stroke="#707070" stroke-width="1"/>
    </clipPath>
  </defs>
  <g id="Mask_Group_29589" data-name="Mask Group 29589" clip-path="url(#clip-path)">
    <g id="pets_2" data-name="pets 2">
      <g id="Group_73460" data-name="Group 73460">
        <g id="Group_73439" data-name="Group 73439">
          <circle id="Ellipse_822" data-name="Ellipse 822" cx="8" cy="8" r="8" fill="#ffceab"/>
        </g>
        <g id="Group_73440" data-name="Group 73440" transform="translate(0.583 1.52)">
          <path id="Path_219519" data-name="Path 219519" d="M9.59,1.771a.126.126,0,0,1-.126.126h-.79a.126.126,0,0,1,0-.251h.79a.126.126,0,0,1,.126.126Z" transform="translate(-0.708 -1.645)" fill="#f4bd98"/>
          <path id="Path_219520" data-name="Path 219520" d="M9.948,1.771a.126.126,0,0,1,.126-.126h1.582a.126.126,0,0,1,0,.251H10.074A.126.126,0,0,1,9.948,1.771Z" transform="translate(-0.708 -1.645)" fill="#f4bd98"/>
          <path id="Path_219521" data-name="Path 219521" d="M4.85,2.338a.126.126,0,0,1-.126.126H4.209a.126.126,0,0,1,0-.251h.515a.126.126,0,0,1,.126.126Z" transform="translate(-0.708 -1.645)" fill="#f4bd98"/>
          <path id="Path_219522" data-name="Path 219522" d="M3.81,2.338a.126.126,0,0,1-.126.126H3.489a.126.126,0,0,1,0-.251h.195a.126.126,0,0,1,.126.126Z" transform="translate(-0.708 -1.645)" fill="#f4bd98"/>
          <path id="Path_219523" data-name="Path 219523" d="M1.5,11.122H.708q.051.127.107.251H1.5a.126.126,0,0,0,0-.251Z" transform="translate(-0.708 -1.645)" fill="#f4bd98"/>
          <path id="Path_219524" data-name="Path 219524" d="M2.061,11.373H1.943a.126.126,0,0,1-.126-.126h0a.126.126,0,0,1,.126-.126h.118a.126.126,0,0,1,.126.126h0a.126.126,0,0,1-.126.126Z" transform="translate(-0.708 -1.645)" fill="#f4bd98"/>
          <path id="Path_219525" data-name="Path 219525" d="M5.049,15.511h.565a.126.126,0,0,0,.126-.126h0a.126.126,0,0,0-.126-.126H4.508C4.685,15.35,4.865,15.434,5.049,15.511Z" transform="translate(-0.708 -1.645)" fill="#f4bd98"/>
          <path id="Path_219526" data-name="Path 219526" d="M7.251,15.26H6.132a.126.126,0,0,0,0,.251H7.251a.126.126,0,1,0,0-.251Z" transform="translate(-0.708 -1.645)" fill="#f4bd98"/>
          <path id="Path_219527" data-name="Path 219527" d="M9.891,13.819h1.594a.126.126,0,0,1,0,.251H9.891a.126.126,0,0,1,0-.251Z" transform="translate(-0.708 -1.645)" fill="#f4bd98"/>
          <path id="Path_219528" data-name="Path 219528" d="M10.814,10.336h1.594a.126.126,0,0,1,.126.126h0a.126.126,0,0,1-.126.126H10.814a.126.126,0,0,1,0-.251Z" transform="translate(-0.708 -1.645)" fill="#f4bd98"/>
          <path id="Path_219529" data-name="Path 219529" d="M11.937,13.945a.126.126,0,0,1,.126-.126H12.2a.126.126,0,0,1,0,.251h-.135a.126.126,0,0,1-.126-.126Z" transform="translate(-0.708 -1.645)" fill="#f4bd98"/>
          <path id="Path_219530" data-name="Path 219530" d="M13.777,4.709a.126.126,0,0,1,.126-.126h.209a.126.126,0,1,1,0,.251H13.9A.126.126,0,0,1,13.777,4.709Z" transform="translate(-0.708 -1.645)" fill="#f4bd98"/>
          <path id="Path_219531" data-name="Path 219531" d="M14.7,4.834h.721c-.038-.084-.077-.168-.118-.251h-.6a.126.126,0,1,0,0,.251Z" transform="translate(-0.708 -1.645)" fill="#f4bd98"/>
          <path id="Path_219532" data-name="Path 219532" d="M2.124,7.291A.126.126,0,0,1,2,7.417H1.752a.126.126,0,0,1,0-.251H2a.126.126,0,0,1,.126.126Z" transform="translate(-0.708 -1.645)" fill="#f4bd98"/>
          <path id="Path_219533" data-name="Path 219533" d="M2.328,7.291a.126.126,0,0,1,.126-.126h.74a.126.126,0,1,1,0,.251h-.74A.126.126,0,0,1,2.328,7.291Z" transform="translate(-0.708 -1.645)" fill="#f4bd98"/>
          <path id="Path_219534" data-name="Path 219534" d="M13.086,8.419h1.381a.126.126,0,1,1,0,.251H13.086a.126.126,0,1,1,0-.251Z" transform="translate(-0.708 -1.645)" fill="#f4bd98"/>
          <path id="Path_219535" data-name="Path 219535" d="M15.514,8.545a.126.126,0,0,1-.126.126h-.417a.126.126,0,0,1,0-.251h.417a.126.126,0,0,1,.126.126Z" transform="translate(-0.708 -1.645)" fill="#f4bd98"/>
        </g>
        <g id="Group_73459" data-name="Group 73459" transform="translate(2.506 2.088)">
          <g id="Group_73441" data-name="Group 73441" transform="translate(0.2 0.251)">
            <path id="Path_219536" data-name="Path 219536" d="M7.829,7.542A2.473,2.473,0,0,1,8.8,7.55a3.685,3.685,0,0,1,2.156,1.479,4.474,4.474,0,0,1,.976,2.559,1.549,1.549,0,0,1-.738,1.548,1.844,1.844,0,0,1-1.81.1,2,2,0,0,1-.244-.15c-.711-.507-.97-.515-1.672-.012a1.828,1.828,0,0,1-1.931.146,1.51,1.51,0,0,1-.885-1.367A4.489,4.489,0,0,1,7.735,7.562l.094-.02Z" transform="translate(-2.831 -2.464)" fill="#f4bd98"/>
            <path id="Path_219537" data-name="Path 219537" d="M7.678,6.059a1.114,1.114,0,0,1-1.649.368,2.527,2.527,0,0,1-.444-3.539,1.2,1.2,0,0,1,1.961.187,3.045,3.045,0,0,1,.471,1.69A3.414,3.414,0,0,1,7.678,6.059Z" transform="translate(-2.831 -2.464)" fill="#f4bd98"/>
            <path id="Path_219538" data-name="Path 219538" d="M8.6,4.766a2.757,2.757,0,0,1,.4-1.593,1.245,1.245,0,0,1,2.247,0,2.626,2.626,0,0,1-.412,3.053,1.209,1.209,0,0,1-2.062-.46,3.329,3.329,0,0,1-.17-1Z" transform="translate(-2.831 -2.464)" fill="#f4bd98"/>
            <path id="Path_219539" data-name="Path 219539" d="M11.045,7.6a2.474,2.474,0,0,1,1-1.963.989.989,0,0,1,1.463.295,2.3,2.3,0,0,1-.893,3.023A1.07,1.07,0,0,1,11.065,8c-.014-.107-.011-.216-.02-.4Z" transform="translate(-2.831 -2.464)" fill="#f4bd98"/>
            <path id="Path_219540" data-name="Path 219540" d="M5.545,7.7a1.778,1.778,0,0,1,0,.227,1.21,1.21,0,0,1-.676,1.068A1.138,1.138,0,0,1,3.64,8.732,2.4,2.4,0,0,1,2.954,6.2a1.04,1.04,0,0,1,1.721-.48A2.6,2.6,0,0,1,5.545,7.7Z" transform="translate(-2.831 -2.464)" fill="#f4bd98"/>
          </g>
          <g id="Group_73442" data-name="Group 73442" transform="translate(0)">
            <path id="Path_219541" data-name="Path 219541" d="M8.6,7.3c2.58.545,4.124,4.579,2.395,5.586a1.826,1.826,0,0,1-2.054-.053c-.711-.507-.97-.515-1.672-.012a1.828,1.828,0,0,1-1.931.146A1.51,1.51,0,0,1,4.458,11.6C4.284,9.563,6.433,6.84,8.6,7.3Z" transform="translate(-2.631 -2.213)" fill="#f34b50"/>
            <path id="Path_219542" data-name="Path 219542" d="M7.478,5.808a1.114,1.114,0,0,1-1.649.368,2.527,2.527,0,0,1-.444-3.539,1.2,1.2,0,0,1,1.961.187,3.045,3.045,0,0,1,.471,1.69,3.414,3.414,0,0,1-.339,1.294Z" transform="translate(-2.631 -2.213)" fill="#f34b50"/>
            <path id="Path_219543" data-name="Path 219543" d="M8.4,4.515a2.757,2.757,0,0,1,.4-1.593,1.245,1.245,0,0,1,2.247,0,2.626,2.626,0,0,1-.412,3.053,1.209,1.209,0,0,1-2.062-.46A3.329,3.329,0,0,1,8.4,4.515Z" transform="translate(-2.631 -2.213)" fill="#f34b50"/>
            <path id="Path_219544" data-name="Path 219544" d="M10.845,7.347a2.474,2.474,0,0,1,1-1.963.989.989,0,0,1,1.463.295A2.3,2.3,0,0,1,12.418,8.7a1.07,1.07,0,0,1-1.554-.951c-.014-.107-.011-.216-.02-.4Z" transform="translate(-2.631 -2.213)" fill="#f34b50"/>
            <path id="Path_219545" data-name="Path 219545" d="M5.343,7.673A1.21,1.21,0,0,1,4.668,8.74a1.138,1.138,0,0,1-1.228-.259,2.4,2.4,0,0,1-.685-2.531,1.04,1.04,0,0,1,1.721-.48,2.683,2.683,0,0,1,.869,2.2Z" transform="translate(-2.631 -2.213)" fill="#f34b50"/>
          </g>
          <g id="Group_73443" data-name="Group 73443" transform="translate(0.51 0.22)">
            <path id="Path_219546" data-name="Path 219546" d="M11,12.886a1.844,1.844,0,0,1-1.81.1,2.063,2.063,0,0,1-.243-.151c-.712-.507-.971-.515-1.672-.011a1.821,1.821,0,0,1-1.93.146,1.392,1.392,0,0,1-.6-.489,1.532,1.532,0,0,0,.251.141,1.828,1.828,0,0,0,1.93-.146c.7-.505.961-.5,1.672.011a1.947,1.947,0,0,0,.244.149,1.841,1.841,0,0,0,1.808-.1,1.549,1.549,0,0,0,.738-1.549,4.471,4.471,0,0,0-.976-2.558c-.089-.115-.182-.226-.277-.331a5.09,5.09,0,0,1,.626.68,4.471,4.471,0,0,1,.976,2.558A1.552,1.552,0,0,1,11,12.886Z" transform="translate(-3.14 -2.433)" fill="#e53946"/>
            <path id="Path_219547" data-name="Path 219547" d="M7.816,4.514a3.4,3.4,0,0,1-.339,1.294,1.113,1.113,0,0,1-1.648.369,1.8,1.8,0,0,1-.454-.423c.034.026.069.051.1.074a1.115,1.115,0,0,0,1.649-.369,3.427,3.427,0,0,0,.338-1.294A3.042,3.042,0,0,0,7,2.476c-.01-.015-.02-.03-.03-.043a1.46,1.46,0,0,1,.379.39,3.051,3.051,0,0,1,.471,1.69Z" transform="translate(-3.14 -2.433)" fill="#e53946"/>
            <path id="Path_219548" data-name="Path 219548" d="M10.941,5.594c-.02.028-.038.056-.056.084a2.13,2.13,0,0,1-.257.3,1.194,1.194,0,0,1-1.892-.131,1.223,1.223,0,0,0,1.543-.218,2.626,2.626,0,0,0,.412-3.053Q10.649,2.5,10.6,2.44a1.588,1.588,0,0,1,.438.482,2.656,2.656,0,0,1-.1,2.673Z" transform="translate(-3.14 -2.433)" fill="#e53946"/>
            <path id="Path_219549" data-name="Path 219549" d="M12.419,8.7a1.018,1.018,0,0,1-1.356-.371,1.06,1.06,0,0,0,1.007.021,2.3,2.3,0,0,0,.894-3.023s0,0,0,0a1.16,1.16,0,0,1,.351.352A2.3,2.3,0,0,1,12.419,8.7Z" transform="translate(-3.14 -2.433)" fill="#e53946"/>
            <path id="Path_219550" data-name="Path 219550" d="M5.344,7.672a1.214,1.214,0,0,1-.677,1.069A1.141,1.141,0,0,1,3.439,8.48a1.783,1.783,0,0,1-.3-.31,1.111,1.111,0,0,0,1.179.221,1.216,1.216,0,0,0,.676-1.067A1.76,1.76,0,0,0,5,7.1a2.756,2.756,0,0,0-.548-1.645l.026.018a2.6,2.6,0,0,1,.869,1.976,2.081,2.081,0,0,1,0,.226Z" transform="translate(-3.14 -2.433)" fill="#e53946"/>
          </g>
          <g id="Group_73458" data-name="Group 73458" transform="translate(0.245 0.246)">
            <g id="Group_73444" data-name="Group 73444" transform="translate(5.579 5.079)">
              <path id="Path_219551" data-name="Path 219551" d="M10.5,9.061a.082.082,0,0,1-.065-.032A3.263,3.263,0,0,0,8.52,7.7a.082.082,0,0,1,.034-.16,3.416,3.416,0,0,1,2.013,1.389.082.082,0,0,1-.065.132Z" transform="translate(-8.455 -7.538)" fill="#ff6c77"/>
            </g>
            <g id="Group_73445" data-name="Group 73445" transform="translate(3.727 5.088)">
              <path id="Path_219552" data-name="Path 219552" d="M6.685,8.128a.082.082,0,0,1-.045-.151,3.08,3.08,0,0,1,.954-.427.082.082,0,0,1,.039.159,2.916,2.916,0,0,0-.9.4.082.082,0,0,1-.045.013Z" transform="translate(-6.603 -7.548)" fill="#ff6c77"/>
            </g>
            <g id="Group_73446" data-name="Group 73446" transform="translate(1.819 5.96)">
              <path id="Path_219553" data-name="Path 219553" d="M4.785,11.654a.082.082,0,0,1-.081-.075A4.139,4.139,0,0,1,6.059,8.442a.082.082,0,0,1,.113.118,3.97,3.97,0,0,0-1.305,3,.082.082,0,0,1-.075.089Z" transform="translate(-4.694 -8.419)" fill="#ff6c77"/>
            </g>
            <g id="Group_73447" data-name="Group 73447" transform="translate(2.667 0.001)">
              <path id="Path_219554" data-name="Path 219554" d="M5.625,2.943a.082.082,0,0,1-.06-.138,1.006,1.006,0,0,1,.73-.345.082.082,0,1,1,0,.164.844.844,0,0,0-.61.293A.082.082,0,0,1,5.625,2.943Z" transform="translate(-5.543 -2.46)" fill="#ff6c77"/>
            </g>
            <g id="Group_73448" data-name="Group 73448" transform="translate(2.225 0.752)">
              <path id="Path_219555" data-name="Path 219555" d="M5.2,4.542a.082.082,0,0,1-.081-.072,2.349,2.349,0,0,1,.151-1.21.082.082,0,1,1,.151.065A2.184,2.184,0,0,0,5.283,4.45a.082.082,0,0,1-.071.092H5.2Z" transform="translate(-5.1 -3.211)" fill="#ff6c77"/>
            </g>
            <g id="Group_73449" data-name="Group 73449" transform="translate(6.957)">
              <path id="Path_219556" data-name="Path 219556" d="M10.759,3.174a.082.082,0,0,1-.07-.039.94.94,0,0,0-.774-.512.082.082,0,0,1,0-.164,1.1,1.1,0,0,1,.915.59.082.082,0,0,1-.07.125Z" transform="translate(-9.833 -2.459)" fill="#ff6c77"/>
            </g>
            <g id="Group_73450" data-name="Group 73450" transform="translate(6.115 0.157)">
              <path id="Path_219557" data-name="Path 219557" d="M9.073,3.174A.082.082,0,0,1,9,3.049a1.341,1.341,0,0,1,.383-.418.082.082,0,1,1,.093.135,1.18,1.18,0,0,0-.335.368A.082.082,0,0,1,9.073,3.174Z" transform="translate(-8.991 -2.617)" fill="#ff6c77"/>
            </g>
            <g id="Group_73451" data-name="Group 73451" transform="translate(5.762 0.921)">
              <path id="Path_219558" data-name="Path 219558" d="M8.723,4.58A.082.082,0,0,1,8.641,4.5a2.532,2.532,0,0,1,.171-1.071.082.082,0,1,1,.152.06,2.369,2.369,0,0,0-.16,1,.082.082,0,0,1-.078.086h0Z" transform="translate(-8.637 -3.38)" fill="#ff6c77"/>
            </g>
            <g id="Group_73452" data-name="Group 73452" transform="translate(0.103 2.973)">
              <path id="Path_219559" data-name="Path 219559" d="M3.06,6.148a.081.081,0,0,1-.029-.005.082.082,0,0,1-.048-.106.817.817,0,0,1,.744-.6.082.082,0,0,1,0,.164.663.663,0,0,0-.591.5.082.082,0,0,1-.077.053Z" transform="translate(-2.978 -5.432)" fill="#ff6c77"/>
            </g>
            <g id="Group_73453" data-name="Group 73453" transform="translate(0 4.003)">
              <path id="Path_219560" data-name="Path 219560" d="M3.1,7.528a.082.082,0,0,1-.077-.053,2.256,2.256,0,0,1-.149-.936.08.08,0,0,1,.087-.077.082.082,0,0,1,.077.087,2.091,2.091,0,0,0,.138.868.082.082,0,0,1-.047.106.083.083,0,0,1-.029.005Z" transform="translate(-2.875 -6.462)" fill="#ff6c77"/>
            </g>
            <g id="Group_73454" data-name="Group 73454" transform="translate(0.26 5.153)">
              <path id="Path_219561" data-name="Path 219561" d="M3.646,8.308a.082.082,0,0,1-.052-.018,1.825,1.825,0,0,1-.449-.557.082.082,0,1,1,.144-.077,1.664,1.664,0,0,0,.407.507.082.082,0,0,1-.052.146Z" transform="translate(-3.136 -7.612)" fill="#ff6c77"/>
            </g>
            <g id="Group_73455" data-name="Group 73455" transform="translate(9.504 2.966)">
              <path id="Path_219562" data-name="Path 219562" d="M13.036,5.938a.082.082,0,0,1-.069-.037.608.608,0,0,0-.506-.312.082.082,0,0,1,0-.164.767.767,0,0,1,.644.387.082.082,0,0,1-.069.126Z" transform="translate(-12.38 -5.425)" fill="#ff6c77"/>
            </g>
            <g id="Group_73456" data-name="Group 73456" transform="translate(8.593 3.112)">
              <path id="Path_219563" data-name="Path 219563" d="M11.55,6.223a.082.082,0,0,1-.068-.128,1.926,1.926,0,0,1,.507-.509.082.082,0,0,1,.094.134,1.763,1.763,0,0,0-.464.467.082.082,0,0,1-.068.036Z" transform="translate(-11.468 -5.571)" fill="#ff6c77"/>
            </g>
            <g id="Group_73457" data-name="Group 73457" transform="translate(8.216 3.961)">
              <path id="Path_219564" data-name="Path 219564" d="M11.173,7.434h-.007a.082.082,0,0,1-.075-.088,2.959,2.959,0,0,1,.192-.874.082.082,0,0,1,.152.061,2.8,2.8,0,0,0-.181.826.082.082,0,0,1-.081.075Z" transform="translate(-11.091 -6.421)" fill="#ff6c77"/>
            </g>
          </g>
        </g>
      </g>
    </g>
  </g>
</svg>
