<svg xmlns="http://www.w3.org/2000/svg" xmlns:xlink="http://www.w3.org/1999/xlink" width="16" height="16" viewBox="0 0 16 16">
  <defs>
    <clipPath id="clip-path">
      <rect id="Rectangle_18072" data-name="Rectangle 18072" width="16" height="16" fill="#fff" stroke="#707070" stroke-width="1"/>
    </clipPath>
  </defs>
  <g id="Mask_Group_29585" data-name="Mask Group 29585" clip-path="url(#clip-path)">
    <g id="mobile_2" data-name="mobile 2" transform="translate(3.862)">
      <path id="Path_219467" data-name="Path 219467" d="M11.31,0H4.69a.828.828,0,0,0-.828.828V15.172A.828.828,0,0,0,4.69,16H11.31a.828.828,0,0,0,.828-.828V.828A.828.828,0,0,0,11.31,0ZM6.9,1.1A.276.276,0,0,1,7.172.828H8.828A.276.276,0,0,1,9.1,1.1h0a.276.276,0,0,1-.276.276H7.172A.276.276,0,0,1,6.9,1.1ZM6.069.828a.276.276,0,1,1-.276.276A.276.276,0,0,1,6.069.828ZM8,15.448a.552.552,0,1,1,.552-.552A.552.552,0,0,1,8,15.448Zm3.586-4.966v3.31H4.414V2.207h7.172v8.276Z" transform="translate(-3.862)" fill="#707384"/>
      <path id="Path_219468" data-name="Path 219468" d="M4.414,10.483H6.621a.276.276,0,1,1,.552,0h.552a.276.276,0,1,1,.552,0h.552a.276.276,0,1,1,.552,0h2.207V2.207H4.414Zm4.966-6.9a.276.276,0,0,1,.276-.276h1.1a.276.276,0,0,1,.276.276v1.1a.276.276,0,0,1-.276.276h-1.1a.276.276,0,0,1-.276-.276Zm0,2.207a.276.276,0,0,1,.276-.276h1.1a.276.276,0,0,1,.276.276V6.9a.276.276,0,0,1-.276.276h-1.1A.276.276,0,0,1,9.379,6.9ZM9.379,8a.276.276,0,0,1,.276-.276h1.1A.276.276,0,0,1,11.035,8V9.1a.276.276,0,0,1-.276.276h-1.1A.276.276,0,0,1,9.379,9.1ZM7.172,3.586a.276.276,0,0,1,.276-.276h1.1a.276.276,0,0,1,.276.276v1.1a.276.276,0,0,1-.276.276h-1.1a.276.276,0,0,1-.276-.276Zm0,2.207a.276.276,0,0,1,.276-.276h1.1a.276.276,0,0,1,.276.276V6.9a.276.276,0,0,1-.276.276h-1.1A.276.276,0,0,1,7.172,6.9ZM7.172,8a.276.276,0,0,1,.276-.276h1.1A.276.276,0,0,1,8.828,8V9.1a.276.276,0,0,1-.276.276h-1.1A.276.276,0,0,1,7.172,9.1ZM4.966,3.586a.276.276,0,0,1,.276-.276h1.1a.276.276,0,0,1,.276.276v1.1a.276.276,0,0,1-.276.276h-1.1a.276.276,0,0,1-.276-.276Zm0,2.207a.276.276,0,0,1,.276-.276h1.1a.276.276,0,0,1,.276.276V6.9a.276.276,0,0,1-.276.276h-1.1A.276.276,0,0,1,4.966,6.9ZM4.966,8a.276.276,0,0,1,.276-.276h1.1A.276.276,0,0,1,6.621,8V9.1a.276.276,0,0,1-.276.276h-1.1A.276.276,0,0,1,4.966,9.1Z" transform="translate(-3.862)" fill="#63afdb"/>
      <path id="Path_219469" data-name="Path 219469" d="M9.1,10.759a.276.276,0,0,1-.276-.276H8.276a.276.276,0,0,1-.552,0H7.172a.276.276,0,1,1-.552,0H4.414v3.31h7.172v-3.31H9.379A.276.276,0,0,1,9.1,10.759ZM6.621,12.69a.276.276,0,0,1-.276.276h-1.1a.276.276,0,0,1-.276-.276v-1.1a.276.276,0,0,1,.276-.276h1.1a.276.276,0,0,1,.276.276Zm2.207,0a.276.276,0,0,1-.276.276h-1.1a.276.276,0,0,1-.276-.276v-1.1a.276.276,0,0,1,.276-.276h1.1a.276.276,0,0,1,.276.276Zm.828-1.379h1.1a.276.276,0,0,1,.276.276v1.1a.276.276,0,0,1-.276.276h-1.1a.276.276,0,0,1-.276-.276v-1.1A.276.276,0,0,1,9.655,11.31Z" transform="translate(-3.862)" fill="#468cbe"/>
      <g id="Group_73423" data-name="Group 73423" transform="translate(1.931 0.828)">
        <path id="Path_219470" data-name="Path 219470" d="M7.172,1.379H8.828A.276.276,0,0,0,9.1,1.1h0A.276.276,0,0,0,8.828.828H7.172A.276.276,0,0,0,6.9,1.1h0A.276.276,0,0,0,7.172,1.379Z" transform="translate(-5.793 -0.828)" fill="#464655"/>
        <circle id="Ellipse_803" data-name="Ellipse 803" cx="0.276" cy="0.276" r="0.276" transform="translate(0)" fill="#464655"/>
        <circle id="Ellipse_804" data-name="Ellipse 804" cx="0.552" cy="0.552" r="0.552" transform="translate(1.655 13.517)" fill="#464655"/>
      </g>
      <path id="Path_219471" data-name="Path 219471" d="M8.552,11.31h-1.1a.276.276,0,0,0-.276.276v1.1a.276.276,0,0,0,.276.276h1.1a.276.276,0,0,0,.276-.276v-1.1A.276.276,0,0,0,8.552,11.31ZM8,12.69a.552.552,0,1,1,.552-.552A.552.552,0,0,1,8,12.69Z" transform="translate(-3.862)" fill="#63afdb"/>
      <path id="Path_219472" data-name="Path 219472" d="M9.379,12.69a.276.276,0,0,0,.276.276h1.1a.276.276,0,0,0,.276-.276v-1.1a.276.276,0,0,0-.276-.276h-1.1a.276.276,0,0,0-.276.276Z" transform="translate(-3.862)" fill="#ff6469"/>
      <path id="Path_219473" data-name="Path 219473" d="M6.345,11.31h-1.1a.276.276,0,0,0-.276.276v1.1a.276.276,0,0,0,.276.276h1.1a.276.276,0,0,0,.276-.276v-1.1A.276.276,0,0,0,6.345,11.31Z" transform="translate(-3.862)" fill="#00dccd"/>
      <path id="Path_219474" data-name="Path 219474" d="M7.448,9.379h1.1A.276.276,0,0,0,8.828,9.1V8a.276.276,0,0,0-.276-.276h-1.1A.276.276,0,0,0,7.172,8V9.1A.276.276,0,0,0,7.448,9.379Z" transform="translate(-3.862)" fill="#ffdc69"/>
      <path id="Path_219475" data-name="Path 219475" d="M9.655,9.379h1.1a.276.276,0,0,0,.276-.276V8a.276.276,0,0,0-.276-.276h-1.1A.276.276,0,0,0,9.379,8V9.1A.276.276,0,0,0,9.655,9.379Zm0-.828a.276.276,0,0,1,.276-.276h.552a.276.276,0,0,1,.276.276h0a.276.276,0,0,1-.276.276H9.931a.276.276,0,0,1-.276-.276Z" transform="translate(-3.862)" fill="#fff"/>
      <path id="Path_219476" data-name="Path 219476" d="M5.241,9.379h1.1A.276.276,0,0,0,6.621,9.1V8a.276.276,0,0,0-.276-.276h-1.1A.276.276,0,0,0,4.965,8V9.1A.276.276,0,0,0,5.241,9.379Zm0-.828a.276.276,0,0,1,.276-.276h.552a.276.276,0,0,1,.276.276h0a.276.276,0,0,1-.276.276H5.517a.276.276,0,0,1-.276-.276Z" transform="translate(-3.862)" fill="#468cbe"/>
      <path id="Path_219477" data-name="Path 219477" d="M7.448,7.172h1.1A.276.276,0,0,0,8.828,6.9v-1.1a.276.276,0,0,0-.276-.276h-1.1a.276.276,0,0,0-.276.276V6.9A.276.276,0,0,0,7.448,7.172Zm0-.828a.276.276,0,0,1,.276-.276h.552a.276.276,0,0,1,.276.276h0a.276.276,0,0,1-.276.276H7.724a.276.276,0,0,1-.276-.276Z" transform="translate(-3.862)" fill="#464655"/>
      <path id="Path_219478" data-name="Path 219478" d="M9.655,7.172h1.1a.276.276,0,0,0,.276-.276v-1.1a.276.276,0,0,0-.276-.276h-1.1a.276.276,0,0,0-.276.276V6.9A.276.276,0,0,0,9.655,7.172Z" transform="translate(-3.862)" fill="#ffa055"/>
      <path id="Path_219479" data-name="Path 219479" d="M5.241,7.172h1.1A.276.276,0,0,0,6.621,6.9v-1.1a.276.276,0,0,0-.276-.276h-1.1a.276.276,0,0,0-.276.276V6.9A.276.276,0,0,0,5.241,7.172Zm.552-1.379a.552.552,0,1,1-.552.552A.552.552,0,0,1,5.793,5.793Z" transform="translate(-3.862)" fill="#a0d778"/>
      <path id="Path_219480" data-name="Path 219480" d="M7.448,4.966h1.1a.276.276,0,0,0,.276-.276v-1.1a.276.276,0,0,0-.276-.276h-1.1a.276.276,0,0,0-.276.276v1.1A.276.276,0,0,0,7.448,4.966Z" transform="translate(-3.862)" fill="#ff6469"/>
      <path id="Path_219481" data-name="Path 219481" d="M9.655,4.966h1.1a.276.276,0,0,0,.276-.276v-1.1a.276.276,0,0,0-.276-.276h-1.1a.276.276,0,0,0-.276.276v1.1A.276.276,0,0,0,9.655,4.966Zm.552-1.379a.552.552,0,1,1-.552.552A.552.552,0,0,1,10.207,3.586Z" transform="translate(-3.862)" fill="#00dccd"/>
      <g id="Group_73424" data-name="Group 73424" transform="translate(1.103 3.31)">
        <path id="Path_219482" data-name="Path 219482" d="M5.241,4.966h1.1a.276.276,0,0,0,.276-.276v-1.1a.276.276,0,0,0-.276-.276h-1.1a.276.276,0,0,0-.276.276v1.1A.276.276,0,0,0,5.241,4.966Z" transform="translate(-4.965 -3.31)" fill="#ffdc69"/>
        <circle id="Ellipse_805" data-name="Ellipse 805" cx="0.552" cy="0.552" r="0.552" transform="translate(0.276 2.483)" fill="#ffdc69"/>
        <circle id="Ellipse_806" data-name="Ellipse 806" cx="0.552" cy="0.552" r="0.552" transform="translate(2.483 8.276)" fill="#ffdc69"/>
      </g>
      <circle id="Ellipse_807" data-name="Ellipse 807" cx="0.552" cy="0.552" r="0.552" transform="translate(5.793 3.586)" fill="#ff6469"/>
      <path id="Path_219483" data-name="Path 219483" d="M7.724,6.621h.552a.276.276,0,0,0,.276-.276h0a.276.276,0,0,0-.276-.276H7.724a.276.276,0,0,0-.276.276h0A.276.276,0,0,0,7.724,6.621Z" transform="translate(-3.862)" fill="#468cbe"/>
      <path id="Path_219484" data-name="Path 219484" d="M9.931,8.828h.552a.276.276,0,0,0,.276-.276h0a.276.276,0,0,0-.276-.276H9.931a.276.276,0,0,0-.276.276h0A.276.276,0,0,0,9.931,8.828Z" transform="translate(-3.862)" fill="#ff6469"/>
      <path id="Path_219485" data-name="Path 219485" d="M5.517,8.828h.552a.276.276,0,0,0,.276-.276h0a.276.276,0,0,0-.276-.276H5.517a.276.276,0,0,0-.276.276h0A.276.276,0,0,0,5.517,8.828Z" transform="translate(-3.862)" fill="#fff"/>
      <circle id="Ellipse_808" data-name="Ellipse 808" cx="0.276" cy="0.276" r="0.276" transform="translate(2.759 10.207)" fill="#464655"/>
      <g id="Group_73425" data-name="Group 73425" transform="translate(3.862 10.207)">
        <circle id="Ellipse_809" data-name="Ellipse 809" cx="0.276" cy="0.276" r="0.276" transform="translate(0)" fill="#fff"/>
        <circle id="Ellipse_810" data-name="Ellipse 810" cx="0.276" cy="0.276" r="0.276" transform="translate(1.103)" fill="#fff"/>
      </g>
    </g>
  </g>
</svg>
