<svg xmlns="http://www.w3.org/2000/svg" xmlns:xlink="http://www.w3.org/1999/xlink" width="16" height="16" viewBox="0 0 16 16">
  <defs>
    <clipPath id="clip-path">
      <rect id="Rectangle_18072" data-name="Rectangle 18072" width="16" height="16" fill="#fff" stroke="#707070" stroke-width="1"/>
    </clipPath>
  </defs>
  <g id="Mask_Group_29597" data-name="Mask Group 29597" clip-path="url(#clip-path)">
    <g id="services" transform="translate(0 0)">
      <g id="Group_73495" data-name="Group 73495">
        <g id="Group_73491" data-name="Group 73491" transform="translate(0.027 0)">
          <path id="Path_219703" data-name="Path 219703" d="M5.434,7.666,3.112,5.344A.129.129,0,0,0,3,5.307,2.665,2.665,0,0,1,.078,2.145a.267.267,0,0,1,.45-.139L1.82,3.3a.266.266,0,0,0,.272.064l.847-.282a.266.266,0,0,0,.168-.168l.282-.847a.266.266,0,0,0-.064-.272L2.033.5A.267.267,0,0,1,2.172.05,2.661,2.661,0,0,1,5.332,2.975a.13.13,0,0,0,.036.107l7.547,7.547a.129.129,0,0,0,.107.036,2.665,2.665,0,0,1,2.927,3.162.267.267,0,0,1-.45.139l-1.292-1.292a.266.266,0,0,0-.272-.064l-.847.282a.266.266,0,0,0-.168.168l-.282.847a.266.266,0,0,0,.064.272l1.292,1.292a.267.267,0,0,1-.139.45A2.661,2.661,0,0,1,10.7,13a.13.13,0,0,0-.036-.107Z" transform="translate(-0.027 0)" fill="#babdce"/>
          <g id="Group_73487" data-name="Group 73487" transform="translate(3.647 3.648)">
            <g id="Group_73486" data-name="Group 73486">
              <path id="Path_219704" data-name="Path 219704" d="M3.916,4.506a.241.241,0,0,1-.17-.411l.376-.376a.241.241,0,1,1,.341.341l-.376.376A.24.24,0,0,1,3.916,4.506Z" transform="translate(-3.675 -3.648)" fill="#9da3b3"/>
            </g>
          </g>
          <g id="Group_73490" data-name="Group 73490" transform="translate(11.467 11.467)">
            <g id="Group_73489" data-name="Group 73489">
              <g id="Group_73488" data-name="Group 73488">
                <path id="Path_219705" data-name="Path 219705" d="M11.735,12.325a.241.241,0,0,1-.17-.411l.376-.376a.241.241,0,0,1,.341.341l-.376.376a.24.24,0,0,1-.17.071Z" transform="translate(-11.494 -11.467)" fill="#9da3b3"/>
              </g>
            </g>
          </g>
          <path id="Path_219706" data-name="Path 219706" d="M15.221,11.429a2.654,2.654,0,0,0-2.2-.763.129.129,0,0,1-.107-.036L5.368,3.082a.13.13,0,0,1-.036-.107A2.661,2.661,0,0,0,2.32.026,2.661,2.661,0,0,1,4.593,2.975a.13.13,0,0,0,.036.107l7.547,7.547a.129.129,0,0,0,.107.036A2.664,2.664,0,0,1,15.232,13.7l.267.267a.267.267,0,0,0,.45-.139,2.659,2.659,0,0,0-.729-2.4Z" transform="translate(-0.027 0)" fill="#9da3b3"/>
        </g>
        <g id="Group_73494" data-name="Group 73494">
          <path id="Path_219707" data-name="Path 219707" d="M2.747,15.511.489,13.253l-.2.2a1,1,0,0,0,0,1.413l.846.846a1,1,0,0,0,1.413,0Z" transform="translate(0 0)" fill="#ff9259"/>
          <path id="Path_219708" data-name="Path 219708" d="M2.308,15.072l-.628.615a1.027,1.027,0,0,1-.281.2,1.029,1.029,0,0,0,1.174-.2l.175-.175Z" transform="translate(0 0)" fill="#ff7169"/>
          <path id="Path_219709" data-name="Path 219709" d="M8.635,8.495,7.505,7.365,14.332.539a.266.266,0,0,1,.094-.061l1.213-.46a.266.266,0,0,1,.343.343l-.46,1.213a.266.266,0,0,1-.061.094Z" transform="translate(0 0)" fill="#e6ebef"/>
          <path id="Path_219710" data-name="Path 219710" d="M15.639.018l-.4.151a.261.261,0,0,1,0,.193l-.46,1.213a.266.266,0,0,1-.061.094L8.265,8.125l.37.37,6.827-6.827a.266.266,0,0,0,.061-.094l.46-1.213a.266.266,0,0,0-.343-.343Z" transform="translate(0 0)" fill="#dae2ed"/>
          <path id="Path_219711" data-name="Path 219711" d="M8.507,9.376l-.163,1.142a.533.533,0,0,1-.151.3L7.152,11.859,5.27,12.989,4.1,14.908l-.753.753a.532.532,0,0,1-.753,0L.339,13.4a.532.532,0,0,1,0-.753l.79-.79L3.011,10.73,4.141,8.848,5.181,7.807a.532.532,0,0,1,.3-.151l1.142-.163,1.318.753Z" transform="translate(0 0)" fill="#ff7169"/>
          <path id="Path_219712" data-name="Path 219712" d="M7.942,8.246,7.92,8.233l-.329,2.284a.532.532,0,0,1-.151.3L2.6,15.661a.532.532,0,0,0,.753,0l.753-.753L5.27,12.989l1.882-1.129,1.041-1.041a.532.532,0,0,0,.151-.3l.163-1.142Z" transform="translate(0 0)" fill="#ff5178"/>
          <path id="Path_219713" data-name="Path 219713" d="M5.6,7.639l-.123.018a.533.533,0,0,0-.3.151l-.045.045,3.012,3.012.045-.045a.532.532,0,0,0,.151-.3l.018-.123Z" transform="translate(0 0)" fill="#ff5178"/>
          <path id="Path_219714" data-name="Path 219714" d="M8.895,9.764,6.236,7.105a.25.25,0,0,1,0-.353l.4-.4a.25.25,0,0,1,.353,0L9.648,9.011a.25.25,0,0,1,0,.353l-.4.4a.25.25,0,0,1-.353,0Z" transform="translate(0 0)" fill="#ff9259"/>
          <path id="Path_219715" data-name="Path 219715" d="M9.643,9.006,6.994,6.357a.257.257,0,0,0-.364,0l-.188.188L8.9,9.006a.257.257,0,0,1,0,.364l-.2.2.188.188a.257.257,0,0,0,.364,0l.389-.389a.257.257,0,0,0,0-.364Z" transform="translate(0 0)" fill="#ff7169"/>
          <path id="Path_219716" data-name="Path 219716" d="M1.845,12.649a.532.532,0,1,1-.753-.753L4.177,8.811a.532.532,0,1,1,.753.753Z" transform="translate(0 0)" fill="#ff9259"/>
          <path id="Path_219717" data-name="Path 219717" d="M4.1,14.908a.532.532,0,0,1-.753-.753L6.436,11.07a.532.532,0,0,1,.753.753Z" transform="translate(0 0)" fill="#ff9259"/>
          <g id="Group_73493" data-name="Group 73493" transform="translate(2.357 10.076)">
            <g id="Group_73492" data-name="Group 73492">
              <path id="Path_219718" data-name="Path 219718" d="M2.6,13.643a.241.241,0,0,1-.17-.411l3.085-3.085a.241.241,0,1,1,.341.341L2.768,13.573A.24.24,0,0,1,2.6,13.643Z" transform="translate(-2.357 -10.076)" fill="#ff5178"/>
            </g>
          </g>
          <path id="Path_219719" data-name="Path 219719" d="M7.189,11.07,3.351,14.908a.532.532,0,0,0,.753,0l3.085-3.085A.532.532,0,0,0,7.189,11.07Z" transform="translate(0 0)" fill="#ff7169"/>
        </g>
      </g>
    </g>
  </g>
</svg>
