<svg xmlns="http://www.w3.org/2000/svg" xmlns:xlink="http://www.w3.org/1999/xlink" width="24" height="24" viewBox="0 0 24 24">
  <defs>
    <clipPath id="clip-path">
      <rect id="Rectangle_11500" data-name="Rectangle 11500" width="24" height="24" fill="#fff" stroke="#707070" stroke-width="1"/>
    </clipPath>
  </defs>
  <g id="Mask_Group_29527" data-name="Mask Group 29527" clip-path="url(#clip-path)">
    <g id="language_2" data-name="language 2" transform="translate(4.823 4.823)">
      <g id="Group_64276" data-name="Group 64276" transform="translate(3.372 3.841)">
        <g id="Group_64275" data-name="Group 64275">
          <path id="Path_218851" data-name="Path 218851" d="M120.809,137h-.18l-.336,1.682h.853Z" transform="translate(-120.293 -137)" fill="#2d3142"/>
        </g>
      </g>
      <g id="Group_64278" data-name="Group 64278" transform="translate(10.692 7.205)">
        <g id="Group_64277" data-name="Group 64277">
          <path id="Path_218852" data-name="Path 218852" d="M381.374,257a4.395,4.395,0,0,0,.69,1.219,4.438,4.438,0,0,0,.718-1.219Z" transform="translate(-381.374 -257)" fill="#2d3142"/>
        </g>
      </g>
      <g id="Group_64280" data-name="Group 64280" transform="translate(6.803 2.551)">
        <g id="Group_64279" data-name="Group 64279">
          <path id="Path_218853" data-name="Path 218853" d="M248.952,91H243.73l1.089,8.738a1.305,1.305,0,0,1-.312.957l-1.844,2.108h6.289a1.263,1.263,0,0,0,1.262-1.262V92.29A1.287,1.287,0,0,0,248.952,91Zm0,4.654h-.112a5.336,5.336,0,0,1-1.013,1.842c.309.282.639.514.968.774a.42.42,0,0,1-.526.656c-.357-.282-.692-.517-1.027-.825-.335.307-.642.543-1,.825a.42.42,0,0,1-.526-.656c.328-.259.631-.491.94-.774a5.308,5.308,0,0,1-.985-1.842h-.112a.421.421,0,1,1,0-.841h1.262v-.421a.421.421,0,0,1,.841,0v.421h1.29a.421.421,0,1,1,0,.841Z" transform="translate(-242.663 -91)" fill="#2d3142"/>
        </g>
      </g>
      <g id="Group_64282" data-name="Group 64282" transform="translate(0)">
        <g id="Group_64281" data-name="Group 64281">
          <path id="Path_218854" data-name="Path 218854" d="M6.845,1.105A1.263,1.263,0,0,0,5.593,0H1.262A1.263,1.263,0,0,0,0,1.262v9.308a1.263,1.263,0,0,0,1.262,1.262H7.893c.123-.14.226-.228.23-.411C8.124,11.374,6.851,1.151,6.845,1.105ZM5.157,8.038a.42.42,0,0,1-.495-.33L4.393,6.364H3.2L2.936,7.708a.42.42,0,0,1-.825-.165l.841-4.205A.421.421,0,0,1,3.364,3h.869a.421.421,0,0,1,.412.338l.841,4.205A.421.421,0,0,1,5.157,8.038Z" transform="translate(0)" fill="#2d3142"/>
        </g>
      </g>
      <g id="Group_64284" data-name="Group 64284" transform="translate(4.913 12.672)">
        <g id="Group_64283" data-name="Group 64283">
          <path id="Path_218855" data-name="Path 218855" d="M175.261,452l.072.577a1.272,1.272,0,0,0,.727.977L177.472,452Z" transform="translate(-175.261 -452)" fill="#2d3142"/>
        </g>
      </g>
    </g>
  </g>
</svg>
