<svg xmlns="http://www.w3.org/2000/svg" xmlns:xlink="http://www.w3.org/1999/xlink" width="16" height="16" viewBox="0 0 16 16">
  <defs>
    <clipPath id="clip-path">
      <rect id="Rectangle_18072" data-name="Rectangle 18072" width="16" height="16" fill="#fff" stroke="#707070" stroke-width="1"/>
    </clipPath>
  </defs>
  <g id="Mask_Group_29584" data-name="Mask Group 29584" clip-path="url(#clip-path)">
    <g id="car_2" data-name="car 2" transform="translate(0 1.82)">
      <path id="Path_219452" data-name="Path 219452" d="M.222,8.689a2.343,2.343,0,0,1,.49-1.308,4.029,4.029,0,0,0,.782-1.528A18.677,18.677,0,0,1,2.8,3.043,2.254,2.254,0,0,1,4.451,1.955a46.955,46.955,0,0,1,7.1,0A2.257,2.257,0,0,1,13.2,3.043,18.729,18.729,0,0,1,14.5,5.854a4.029,4.029,0,0,0,.782,1.528,2.343,2.343,0,0,1,.489,1.308c.05,1.031-.249,1.257-.516,3.589a.363.363,0,0,1-.361.321H1.1a.363.363,0,0,1-.361-.321C.663,11.624.44,10.3.44,10.3A4.857,4.857,0,0,1,.222,8.689Z" transform="translate(0.001 -1.82)" fill="#e95353"/>
      <path id="Path_219453" data-name="Path 219453" d="M1.781,5.8A20.114,20.114,0,0,1,3.01,3.2a2.033,2.033,0,0,1,1.469-.988,45.049,45.049,0,0,1,7.033,0,2.034,2.034,0,0,1,1.469.988,20.466,20.466,0,0,1,1.234,2.6A79.282,79.282,0,0,1,1.781,5.8Z" transform="translate(0.005 -1.82)" fill="#168de2"/>
      <path id="Path_219454" data-name="Path 219454" d="M13.05,6.972a2.284,2.284,0,0,1,.428.188,5.262,5.262,0,0,0,.694.333c.4.151.466.377.466.377l.035.047a.636.636,0,0,1-.63.97,7.686,7.686,0,0,1-1.737-.464A.622.622,0,0,1,11.927,8c0-.018-.009-.037-.012-.055A.874.874,0,0,1,13.05,6.972Z" transform="translate(-10.677 -1.82)" fill="#fff"/>
      <path id="Path_219455" data-name="Path 219455" d="M13.593,10.566h.862a.146.146,0,0,1,.1.249l-.862.862a.146.146,0,0,1-.249-.1v-.862A.145.145,0,0,1,13.593,10.566Z" transform="translate(-12.047 -1.82)" fill="#ffe21f"/>
      <path id="Path_219456" data-name="Path 219456" d="M13.5,12.277a.364.364,0,0,0,.361.322h1.658v.962a.617.617,0,0,1-.617.617H13.859a.617.617,0,0,1-.617-.617V10.55C13.311,10.967,13.444,11.8,13.5,12.277Z" transform="translate(-12.759 -1.82)" fill="#454545"/>
      <path id="Path_219457" data-name="Path 219457" d="M14.391,5.127a.5.5,0,0,1,.49-.376H15.3a.482.482,0,0,1,.483.483v.3H16l-.126.3h-.485a1.747,1.747,0,0,1-.728-.158A.482.482,0,0,1,14.391,5.127Z" transform="translate(-14.379 -1.82)" fill="#ed6262"/>
      <circle id="Ellipse_799" data-name="Ellipse 799" cx="0.607" cy="0.607" r="0.607" transform="translate(1.493 5.322)" fill="#ffbd49"/>
      <circle id="Ellipse_800" data-name="Ellipse 800" cx="0.446" cy="0.446" r="0.446" transform="translate(2.874 5.962)" fill="#ffdb6f"/>
      <path id="Path_219458" data-name="Path 219458" d="M4.474,8.228l.7,1.213h5.658l.7-1.213Z" transform="translate(0 -1.82)" fill="#6f6f6f"/>
      <path id="Path_219459" data-name="Path 219459" d="M1.327,7.916c.011-.016.022-.031.035-.047,0,0,.068-.225.466-.377a5.291,5.291,0,0,0,.694-.333,2.3,2.3,0,0,1,.428-.188.874.874,0,0,1,1.135.971c0,.018-.008.037-.012.055a.623.623,0,0,1-.378.424,7.684,7.684,0,0,1-1.737.464A.636.636,0,0,1,1.327,7.916Z" transform="translate(10.678 -1.82)" fill="#fff"/>
      <path id="Path_219460" data-name="Path 219460" d="M1.546,10.566h.862a.145.145,0,0,1,.146.146v.862a.146.146,0,0,1-.249.1l-.862-.862A.146.146,0,0,1,1.546,10.566Z" transform="translate(12.048 -1.82)" fill="#ffe21f"/>
      <path id="Path_219461" data-name="Path 219461" d="M2.264,12.069c.9-1.552,1.929-1.5,1.929-1.5h7.616s1.031-.049,1.929,1.5h1.551l-.019.2a.364.364,0,0,1-.362.331H1.094a.364.364,0,0,1-.363-.33l-.019-.2Z" transform="translate(0 -1.82)" fill="#777"/>
      <path id="Path_219462" data-name="Path 219462" d="M2.14,12.6a.364.364,0,0,0,.361-.322c.054-.477.188-1.311.256-1.727v3.012a.617.617,0,0,1-.617.617H1.1a.617.617,0,0,1-.617-.617V12.6H2.14Z" transform="translate(12.759 -1.82)" fill="#454545"/>
      <path id="Path_219463" data-name="Path 219463" d="M.221,5.53v-.3A.482.482,0,0,1,.7,4.751h.416a.5.5,0,0,1,.49.376.482.482,0,0,1-.27.545,1.749,1.749,0,0,1-.728.158H.126L0,5.529H.221Z" transform="translate(14.379 -1.82)" fill="#ed6262"/>
      <circle id="Ellipse_801" data-name="Ellipse 801" cx="0.607" cy="0.607" r="0.607" transform="translate(13.294 5.322)" fill="#ffbd49"/>
      <circle id="Ellipse_802" data-name="Ellipse 802" cx="0.446" cy="0.446" r="0.446" transform="translate(12.234 5.962)" fill="#ffdb6f"/>
      <g id="Group_73422" data-name="Group 73422" transform="translate(4.593 9.17)">
        <path id="Path_219464" data-name="Path 219464" d="M4.775,10.99h6.449a.183.183,0,0,1,0,.365H4.775a.183.183,0,0,1,0-.365Z" transform="translate(-4.593 -10.99)" fill="#6f6f6f"/>
        <path id="Path_219465" data-name="Path 219465" d="M4.775,11.719h6.449a.183.183,0,0,1,0,.365H4.775a.183.183,0,0,1,0-.365Z" transform="translate(-4.593 -10.99)" fill="#6f6f6f"/>
      </g>
      <path id="Path_219466" data-name="Path 219466" d="M2.456,4.254v.062a.442.442,0,0,0,.463.443.462.462,0,0,0,.418-.468v-.9a.37.37,0,0,1,.387-.367h.015a.371.371,0,0,1,.387.367v.812a.442.442,0,0,0,.468.438.457.457,0,0,0,.418-.463V3.475A.392.392,0,0,1,5.4,3.087h.03a.369.369,0,0,1,.368.368v.918a.446.446,0,0,0,.468.443.458.458,0,0,0,.413-.468V3.117a.351.351,0,0,1,.373-.347h.03a.37.37,0,0,1,.372.368V4.395a.44.44,0,0,0,.88.015V3.354a.462.462,0,0,1,.418-.468.442.442,0,0,1,.463.443l0,.975a.442.442,0,0,0,.463.443A.458.458,0,0,0,10.1,4.3V3.153a.458.458,0,0,1,.416-.464.443.443,0,0,1,.465.442v1.2a.445.445,0,0,0,.466.431.458.458,0,0,0,.413-.468v-.9a.374.374,0,0,1,.392-.367h.01a.372.372,0,0,1,.392.367v.812a.438.438,0,0,0,.463.438.448.448,0,0,0,.41-.4c.233.482.463,1,.687,1.56A79.158,79.158,0,0,1,1.78,5.8Q2.115,4.962,2.456,4.254Z" transform="translate(0.005 -1.82)" fill="#3aa2eb"/>
    </g>
  </g>
</svg>
