<svg xmlns="http://www.w3.org/2000/svg" xmlns:xlink="http://www.w3.org/1999/xlink" width="24" height="24" viewBox="0 0 24 24">
  <defs>
    <clipPath id="clip-path">
      <rect id="Rectangle_17953" data-name="Rectangle 17953" width="24" height="24" transform="translate(1367 1489)" fill="#fff" stroke="#707070" stroke-width="1"/>
    </clipPath>
  </defs>
  <g id="Mask_Group_29557" data-name="Mask Group 29557" transform="translate(-1367 -1489)" clip-path="url(#clip-path)">
    <g id="profile_line" data-name="profile line" transform="translate(1372.795 1493.562)">
      <path id="Path_219317" data-name="Path 219317" d="M6.983,7.166a3.467,3.467,0,0,0,2.533-1.05,3.467,3.467,0,0,0,1.05-2.533,3.467,3.467,0,0,0-1.05-2.533A3.468,3.468,0,0,0,6.983,0,3.467,3.467,0,0,0,4.449,1.05,3.467,3.467,0,0,0,3.4,3.583a3.467,3.467,0,0,0,1.05,2.533A3.468,3.468,0,0,0,6.983,7.166Zm-1.917-5.5A2.59,2.59,0,0,1,6.983.872,2.59,2.59,0,0,1,8.9,1.666a2.59,2.59,0,0,1,.794,1.917A2.59,2.59,0,0,1,8.9,5.5a2.59,2.59,0,0,1-1.917.794A2.591,2.591,0,0,1,5.066,5.5a2.59,2.59,0,0,1-.794-1.917A2.59,2.59,0,0,1,5.066,1.666Zm0,0" transform="translate(-0.871)" fill="#2d3142"/>
      <path id="Path_219318" data-name="Path 219318" d="M12.381,13.914a8.85,8.85,0,0,0-.121-.94,7.406,7.406,0,0,0-.231-.945,4.668,4.668,0,0,0-.389-.881,3.323,3.323,0,0,0-.586-.763,2.583,2.583,0,0,0-.842-.529,2.908,2.908,0,0,0-1.074-.194,1.09,1.09,0,0,0-.582.247c-.175.114-.379.245-.607.391a3.476,3.476,0,0,1-.785.346,3.048,3.048,0,0,1-1.92,0,3.466,3.466,0,0,1-.784-.346c-.226-.144-.43-.276-.607-.391a1.089,1.089,0,0,0-.582-.247A2.9,2.9,0,0,0,2.2,9.855a2.581,2.581,0,0,0-.842.529,3.323,3.323,0,0,0-.586.763,4.677,4.677,0,0,0-.388.882,7.423,7.423,0,0,0-.231.945,8.789,8.789,0,0,0-.121.94c-.02.284-.03.58-.03.878a2.47,2.47,0,0,0,.734,1.869,2.641,2.641,0,0,0,1.89.689H9.787a2.641,2.641,0,0,0,1.89-.689,2.469,2.469,0,0,0,.734-1.869C12.411,14.493,12.4,14.2,12.381,13.914Zm-1.3,2.116a1.778,1.778,0,0,1-1.289.449H2.624a1.778,1.778,0,0,1-1.289-.449,1.613,1.613,0,0,1-.463-1.237c0-.279.009-.554.028-.818a7.928,7.928,0,0,1,.109-.847,6.547,6.547,0,0,1,.2-.833,3.808,3.808,0,0,1,.316-.717,2.463,2.463,0,0,1,.43-.564,1.713,1.713,0,0,1,.56-.348,2.006,2.006,0,0,1,.687-.132c.031.016.085.047.173.1.179.117.386.25.614.4a4.319,4.319,0,0,0,.985.44,3.919,3.919,0,0,0,2.456,0,4.324,4.324,0,0,0,.986-.441c.234-.149.434-.279.614-.4.088-.057.142-.088.173-.1a2.007,2.007,0,0,1,.687.132,1.716,1.716,0,0,1,.56.348,2.456,2.456,0,0,1,.43.564,3.8,3.8,0,0,1,.316.716,6.532,6.532,0,0,1,.2.833,7.994,7.994,0,0,1,.109.847h0c.019.263.028.538.028.818A1.613,1.613,0,0,1,11.076,16.03Zm0,0" transform="translate(0 -2.475)" fill="#2d3142"/>
    </g>
  </g>
</svg>
