<svg xmlns="http://www.w3.org/2000/svg" xmlns:xlink="http://www.w3.org/1999/xlink" width="14" height="14" viewBox="0 0 14 14">
  <defs>
    <clipPath id="clip-path">
      <rect id="Rectangle_17882" data-name="Rectangle 17882" width="14" height="14" fill="#fff" stroke="#707070" stroke-width="1"/>
    </clipPath>
  </defs>
  <g id="Mask_Group_29534" data-name="Mask Group 29534" clip-path="url(#clip-path)">
    <g id="svgexport-6_5_" data-name="svgexport-6 (5)" transform="translate(2 2)">
      <g id="Page-1">
        <g id="_045---CAD-Measuring" data-name="045---CAD-Measuring">
          <path id="Shape" d="M13.509,5.886v2.3H8.723l-.532.532v4.787h-2.3L5,12.623V5.886L5.886,5h6.737Z" transform="translate(-4.114 -4.114)" fill="#3b97d3"/>
          <rect id="Rectangle-path" width="2" height="2" rx="1" fill="#84b5cb"/>
          <rect id="Rectangle-path-2" data-name="Rectangle-path" width="2" height="2" rx="1" transform="translate(0 8)" fill="#84b5cb"/>
          <rect id="Rectangle-path-3" data-name="Rectangle-path" width="2" height="2" rx="1" transform="translate(8)" fill="#84b5cb"/>
          <path id="Shape-2" data-name="Shape" d="M28.318,23v4.432l-.886.886H23V23.532L23.532,23Z" transform="translate(-18.923 -18.923)" fill="#2980ba"/>
          <rect id="Rectangle-path-4" data-name="Rectangle-path" width="1" height="1" rx="0.5" transform="translate(4 4)" fill="#84b5cb"/>
          <path id="Shape-3" data-name="Shape" d="M31.836,30.418a.177.177,0,0,0-.177.177v.813l-2.054-2.054h.813a.177.177,0,1,0,0-.355H29.177a.177.177,0,0,0-.177.177v1.241a.177.177,0,1,0,.355,0v-.813l2.054,2.054H30.6a.177.177,0,1,0,0,.355h1.241a.177.177,0,0,0,.177-.177V30.6A.177.177,0,0,0,31.836,30.418Z" transform="translate(-23.859 -23.859)" fill="#fff"/>
          <g id="Group_73396" data-name="Group 73396" transform="translate(2.482 2.482)">
            <path id="Shape-4" data-name="Shape" d="M14.355,50.177v.355H14v-.355a.177.177,0,1,1,.355,0Z" transform="translate(-14 -43.618)" fill="#f3d55b"/>
            <path id="Shape-5" data-name="Shape" d="M14.177,44.709A.177.177,0,0,1,14,44.532v-.355a.177.177,0,1,1,.355,0v.355A.177.177,0,0,1,14.177,44.709Z" transform="translate(-14 -38.682)" fill="#f3d55b"/>
            <path id="Shape-6" data-name="Shape" d="M14.177,38.709A.177.177,0,0,1,14,38.532v-.355a.177.177,0,1,1,.355,0v.355A.177.177,0,0,1,14.177,38.709Z" transform="translate(-14 -33.745)" fill="#f3d55b"/>
            <path id="Shape-7" data-name="Shape" d="M14.177,32.709A.177.177,0,0,1,14,32.532v-.355a.177.177,0,1,1,.355,0v.355A.177.177,0,0,1,14.177,32.709Z" transform="translate(-14 -28.809)" fill="#f3d55b"/>
            <path id="Shape-8" data-name="Shape" d="M14.177,26.709A.177.177,0,0,1,14,26.532v-.355a.177.177,0,1,1,.355,0v.355A.177.177,0,0,1,14.177,26.709Z" transform="translate(-14 -23.873)" fill="#f3d55b"/>
            <path id="Shape-9" data-name="Shape" d="M14.177,20.709A.177.177,0,0,1,14,20.532v-.355a.177.177,0,1,1,.355,0v.355A.177.177,0,0,1,14.177,20.709Z" transform="translate(-14 -18.936)" fill="#f3d55b"/>
            <path id="Shape-10" data-name="Shape" d="M20.532,14.355h-.355a.177.177,0,1,1,0-.355h.355a.177.177,0,1,1,0,.355Z" transform="translate(-18.936 -14)" fill="#f3d55b"/>
            <path id="Shape-11" data-name="Shape" d="M26.532,14.355h-.355a.177.177,0,1,1,0-.355h.355a.177.177,0,1,1,0,.355Z" transform="translate(-23.873 -14)" fill="#f3d55b"/>
            <path id="Shape-12" data-name="Shape" d="M32.532,14.355h-.355a.177.177,0,1,1,0-.355h.355a.177.177,0,1,1,0,.355Z" transform="translate(-28.809 -14)" fill="#f3d55b"/>
            <path id="Shape-13" data-name="Shape" d="M38.532,14.355h-.355a.177.177,0,1,1,0-.355h.355a.177.177,0,1,1,0,.355Z" transform="translate(-33.745 -14)" fill="#f3d55b"/>
            <path id="Shape-14" data-name="Shape" d="M44.532,14.355h-.355a.177.177,0,1,1,0-.355h.355a.177.177,0,1,1,0,.355Z" transform="translate(-38.682 -14)" fill="#f3d55b"/>
            <path id="Shape-15" data-name="Shape" d="M50.532,14v.355h-.355a.177.177,0,1,1,0-.355Z" transform="translate(-43.618 -14)" fill="#f3d55b"/>
            <path id="Shape-16" data-name="Shape" d="M14.177,14.709A.177.177,0,0,1,14,14.532v-.355A.177.177,0,0,1,14.177,14h.355a.177.177,0,1,1,0,.355h-.177v.177A.177.177,0,0,1,14.177,14.709Z" transform="translate(-14 -14)" fill="#f3d55b"/>
          </g>
          <rect id="Rectangle-path-5" data-name="Rectangle-path" width="2" height="2" rx="1" transform="translate(8 8)" fill="#84b5cb"/>
        </g>
      </g>
    </g>
  </g>
</svg>
