<svg xmlns="http://www.w3.org/2000/svg" xmlns:xlink="http://www.w3.org/1999/xlink" width="498" height="224" viewBox="0 0 498 224">
  <defs>
    <clipPath id="clip-path">
      <rect id="Rectangle_18008" data-name="Rectangle 18008" width="498" height="224" rx="9" fill="#fff" stroke="#e3e7ef" stroke-width="1"/>
    </clipPath>
  </defs>
  <g id="Mask_Group_29574" data-name="Mask Group 29574" clip-path="url(#clip-path)">
    <g id="mapPlaceholder_noinline.af3a4b7300a65b66f974eed7023840ac" transform="translate(-5.711 -53.704)">
      <path id="Path_219330" data-name="Path 219330" d="M509.623.516H.287V331.245H509.623Z" transform="translate(-0.244 -0.177)" fill="#e6e4e0"/>
      <path id="Path_219331" data-name="Path 219331" d="M98.843,237.994l3.311-3.311L92.9,223.775l-.34-9.592.976-2.334,2.971-5.306,7.937-6.579,10.951-8.277,7.6-2.971h2.632l2.674,1.273,10.229,9.975,27.8-24.193a12.9,12.9,0,0,0-6.621-5.263A145.546,145.546,0,0,1,137.553,159.6a68.122,68.122,0,0,1-10.908-12.564,52.93,52.93,0,0,0-11.587-11.587,39.685,39.685,0,0,0-11.587-1.316,14.559,14.559,0,0,1-7.6-2.971,18.846,18.846,0,0,1-4.966-7.937,17.461,17.461,0,0,1,0-5.942c0-2.674,3.99-18.548,4.287-20.543A9.962,9.962,0,0,0,93.92,90.8a5.305,5.305,0,0,0-4.329-2.334l-27.462-.976a18.888,18.888,0,0,1-7.258-2.971,10.018,10.018,0,0,1-3.99-5.6c-.34-1.7-5.6-21.859-7.258-24.193-1.7-2.292-6.282-8.913-11.248-10.569a28.014,28.014,0,0,0-11.587,0L.287,46.823v102.5l9.253,8.913,5.645,1.358,5.6,2.632,3.65,4.966,3.311,9.253,22.5,24.83,34.041,37.351,4.966.679,9.592-1.358ZM509.623.516H380.634l22.156,26.4,21.18,25.467L411.746,63.631v1.316l4.244,5.645,3.693-3.311,1.952-.34,2.674,1.316,42.02,39.686,43.294,48Zm-201.1,0H285.727l-7,4.287-8.913,19.864-3.99,3.311,4.669,5.942L308.478.516ZM264.208,20.338l7.937-17.19L274.14.516h-33.4l20.161,22.5Z" transform="translate(-0.244 -0.177)" fill="#c0e3a5"/>
      <path id="Path_219332" data-name="Path 219332" d="M392.694,172.5l-22.835-9.592-15.535-17.572-7.64-8.277-4.924-1.316h-8.913l-5.688-2.292-5.306-7.6-1.316-6.621L322.533,111l2.632-12.267V92.112l-1.995-1.655-6.621-1.273L302.669,88.5l-9.253.637-5.306-1.952-5.6-4.966L279.2,71.611l-4.669-15.535-5.263-6.621L263.96,45.8l-6.579-.3-9.932,1.273-14.559,1.7V.516h46.265l4.329,8.277L298.34,22.375l22.2,15.832,21.477,16.553,11.036,9.932,5.942,8.234,8.913,19.185,7.937,18.209,13.243,28.438,7.937,18.506.976,8.913-1.655,5.051-1.655,1.655-1.952-.34Z" transform="translate(-232.89 -0.177)" fill="#8aceec"/>
      <path id="Path_219333" data-name="Path 219333" d="M466.627,331.355l-39.049-41-35.7-37.054L350.2,209.327l-11.248-13.243L321.423,169.3l-5.942-7.3-15.874-16.553-37.351-38.625L241.712,83.648,204.361,39.633,183.521,16.5,170.278.626h-4.626l30.136,35.059,21.477,24.788,12.224,14.219-.34,1.019L218.538,78l1.358,3.99L231.483,78h1.273l19.864,23.514,18.888,19.822,29.711,31.112,13.922,14.856,19.185,28.141,7.64,9.89,15.492,16.553L415.4,282.417l33.4,34.72,13.243,13.879,4.626.34ZM71.382,204.021a28.82,28.82,0,0,0,11.587-7.258,33.447,33.447,0,0,0,4.966-13.243,18.845,18.845,0,0,1,1.655-7.937q5.514-5.566,11.248-10.908l1.655-1.7,2.971-9.55,2.292-6.282a51.682,51.682,0,0,1,4.669,4.966s16.553,15.535,18.845,17.19,10.229,5.263,10.229,5.263a56.489,56.489,0,0,0,11.587,3.65l6.621,7.3L162,183.521l-4.626-5.942a12.224,12.224,0,0,0,8.616-7.3c2.632-5.942-1.7-17.53-2.334-19.185l-4.287-10.229-14.559-30.433s-15.535-36.375-20.8-43.336A114.178,114.178,0,0,0,107.46,50.541L80.974,31.017S57.5,13.529,54.871,10.558A64.942,64.942,0,0,1,49.226.626H44.939a32.174,32.174,0,0,0,5.942,11.885A96.994,96.994,0,0,0,63.105,23.462L98.843,48.249,115.4,62.468a60.863,60.863,0,0,1,9.932,13.582l5.6,12.224,15.535,33.064-6.621,2.334a26.145,26.145,0,0,1-6.579.637c-3.311-.34-5.645-2.334-8.913-2.632a32.088,32.088,0,0,0-10.272,3.311s-3.311,1.273-3.311,1.952l-1.995,5.942-1.995,8.956a26.823,26.823,0,0,0-2.971-.679l-9.932-2.292a103.61,103.61,0,0,1-9.932-6.282,48.134,48.134,0,0,1-7.216-9.593,10.908,10.908,0,0,1-.722-5.306A56.794,56.794,0,0,1,78,109.752s2.971-13.243,1.316-15.874a5.263,5.263,0,0,0-5.263-2.292H62.808A34.083,34.083,0,0,1,48.249,86.28,42.274,42.274,0,0,1,36.025,74.4a92.313,92.313,0,0,1-2.334-14.9c0-1.995-2.292-8.277-7.64-9.592a29.414,29.414,0,0,0-11.885.34c-1.952,0-13.879,3.311-13.879,3.311V57.5l14.219-3.311s9.253-1.316,11.587,0c2.292,1.316,2.632,3.311,3.947,6.621,1.358,2.632,1.019,9.932,2.674,13.879L30.72,78A175.911,175.911,0,0,0,20.109,93.538a50.633,50.633,0,0,0-2.971,14.219,88.508,88.508,0,0,0,0,10.611,54.842,54.842,0,0,0,1.7,8.574l3.268,7.3L8.9,123.971a31.705,31.705,0,0,0-6.282-3.311,20.985,20.985,0,0,0-2.334-.637v4.287a13.583,13.583,0,0,1,1.995,0,28.525,28.525,0,0,1,4.966,3.311,211.745,211.745,0,0,0,18.166,13.243l2.037,4.584,7.937,15.2a66.51,66.51,0,0,1,5.306,12.224l2.632,11.587a46.945,46.945,0,0,0,6.282,12.564,20.5,20.5,0,0,0,13.243,8.277h1.995a24.448,24.448,0,0,0,6.579-1.316h0ZM92.9,142.816c3.947,1.019,9.592,1.995,12.224,2.971a56.251,56.251,0,0,1-2.292,6.324c-1.019,1.273-1.995,7.937-3.311,9.253l-7.3,7.6s-5.6,4.966-6.282,6.282a29.837,29.837,0,0,0-1.316,6.621s-.976,9.932-4.287,13.243a20.163,20.163,0,0,1-8.277,4.966,21.18,21.18,0,0,1-7.3,1.273A16.553,16.553,0,0,1,50.2,190.779a76.229,76.229,0,0,1-5.942-17.53L40.949,163.02,31.7,145.83a99.83,99.83,0,0,0,25.467,10.908,46.265,46.265,0,0,0,19.525.34,19.864,19.864,0,0,0,11.248-7.64,32.428,32.428,0,0,0,3.311-7.258q.988.347,1.995.637Zm68.124,9.932a51.275,51.275,0,0,1,2.632,12.9,15.874,15.874,0,0,1-3.311,7.64,10.908,10.908,0,0,1-6.918,1.952,87.014,87.014,0,0,1-12.224-4.626,75.088,75.088,0,0,1-7.64-3.947L117.01,151.432l-7.895-7.64v-.637l2.292-9.932c0-.976.34-3.947,2.334-5.263a42.319,42.319,0,0,1,8.574-2.674,14.394,14.394,0,0,1,3.311,0,51.571,51.571,0,0,0,7.3,1.995,30.956,30.956,0,0,0,9.89-.637l4.966-2.334,13.243,28.438ZM75.032,96.212c1.995,1.273,1.316,3.311.976,4.966l-2.632,9.89a32.087,32.087,0,0,0-.976,10.951,19.1,19.1,0,0,0,1.995,5.263,42.469,42.469,0,0,0,7.6,8.913,40.239,40.239,0,0,0,6.621,4.669,19.525,19.525,0,0,1-3.311,5.942,16.553,16.553,0,0,1-9.932,6.621,46.6,46.6,0,0,1-17.827-.34,122.07,122.07,0,0,1-25.17-10.908l-4.287-3.311-5.942-12.564a55.262,55.262,0,0,1-1.7-15.535,50.214,50.214,0,0,1,2.971-15.238,140.442,140.442,0,0,1,11.29-17.19A38.71,38.71,0,0,0,45.278,88.954a37.351,37.351,0,0,0,17.53,6.579,41.131,41.131,0,0,0,5.6,0h3.311a5.986,5.986,0,0,1,3.311.679Zm434.591,43.294v-3.947l-1.995-1.995-3.947-4.966a47.938,47.938,0,0,1-1.316-5.942A9.253,9.253,0,0,1,505,117.349a21.18,21.18,0,0,1,4.287-3.311V100.881l-.637,1.995-1.019,8.913-3.947,3.311-1.316-.34L495.4,107.5l-.679-2.971V90.27l.679-5.942,14.219,3.947v-3.99L495.4,80.974l-.976-2.292-.679-7.64.679-4.924,3.947-8.913,11.248,1.57V55.465l-11.248-1.952v-.679l-.34-16.553-.3-1.613v-.3a22.051,22.051,0,0,0-1.358-4.966,84.045,84.045,0,0,1-5.6-8.319,34.084,34.084,0,0,1-2.632-8.616l-.679-1.952a84.335,84.335,0,0,1-.976-9.932v-.3H483.18l.3,6.621,3.311,13.2a21.478,21.478,0,0,0,3.311,5.942l-11.248,1.4c-2.292.679-18.506,4.626-22.156,4.966a76.888,76.888,0,0,1-9.89,0V12.511l-.679-.976-5.942-5.942V4.531L443.494.287h-4.669a8.454,8.454,0,0,1-1.952,3.947,12.9,12.9,0,0,1-4.329,1.7,44.354,44.354,0,0,1-7.6,1.613h-.637a6.336,6.336,0,0,1-1.7-.637l-6.2-6.621h-6.621l5.6,4.626a84,84,0,0,0,6.621,6.621,1.655,1.655,0,0,0,.976,0,7.528,7.528,0,0,0,1.7-.34l13.2-2.971L443.2,13.53V32.715h-5.306a27.462,27.462,0,0,1-7.64-3.99h-.637l-5.6-3.311a84.406,84.406,0,0,1-6.621-6.282v-.34L401.517,2.239,404.148.287h-4.626L380.337,16.161l1.995,2.971,17.19-14.559,1.316,1.358,8.913,9.89,11.927,12.564a49.659,49.659,0,0,0,6.621,2.971L414.42,43.283l1.995,2.632,2.292-1.952.34.3.34.34.637.679,1.019,1.273,7.258,8.956a2.292,2.292,0,0,0,1.7.679l6.239.34,28.777,24.448,5.942,4.329L490.82,96.848l1.316,12.564,9.253,8.277a23.133,23.133,0,0,0-2.632,5.942,33.4,33.4,0,0,0,3.99,9.932,86.414,86.414,0,0,0,6.579,5.942h.3ZM494.089,33.1l.976,6.579V56.229a27.8,27.8,0,0,0-5.306,14.219,50.934,50.934,0,0,0,2.674,15.2l-1.019,6.621-.976,1.019-5.306-2.971-10.611-6.324-11.545-9.253L450.753,64.8,436.534,52.918l-3.99-5.306-.637-6.621v-7.98l3.947,2.334,5.645.976h10.611A98.051,98.051,0,0,0,462,34.667l20.161-4.626,9.932-.976,1.995,3.947ZM428.554,45.915l.679,1.995,4.626,5.306-1.995.34-1.7-.679-9.21-10.611,7.937-6.918-.34,10.611Z" transform="translate(-0.244 -0.287)" fill="#fff" stroke="#e3e7ef" stroke-width="0.057"/>
      <path id="Path_219334" data-name="Path 219334" d="M22.782.516V25.643l-8.616,4.669L1.985,12.061.287.516Z" transform="translate(486.596 -0.177)" fill="#ededd2"/>
      <path id="Path_219335" data-name="Path 219335" d="M474.606,331.355h34.72V317.476l-44.991-52.929,1.7-4.287a78.777,78.777,0,0,1,9.211-7.64l34.083-26.443v-5.6l-44.991,34.72-8.574.679-32.428-37.054.976-2.334L463.7,179.531l7.258,1.358,9.253-6.621,1.019-11.587-6.961-8.616H462.382l-7.64,6.961v9.253l-42.317,35.4-14.219-16.553.34-18.166L387.3,153.427l12.564-10.272,15.874-14.219,14.856-13.2,15.577-18.548,18.506-15.874L461.7,78.682,443.537,94.514l-15.2,17.827-12.564,10.951-32.428,28.1-12.9,5.942-47.283-53.9,8.616-7.258,4.626,3.311,1.273.3.679.679a21.52,21.52,0,0,1,4.329,4.669h.3a80.39,80.39,0,0,0,5.942,7.216l5.645,2.674h.34l1.316.34,1.7-.34c.637-.679,0-2.674-.382-3.311h-.3a90.487,90.487,0,0,1-7.64-4.966l-1.952-2.334v-.552h-.34v-.34h-.34v-.679l-.679-.3a18.7,18.7,0,0,0-3.311-4.669,54.328,54.328,0,0,0-7.937-4.244h-.3l4.626-4.669,5.942,3.311,12.564,1.655,13.243-10.611,3.226-15.535-8.913-12.861-14.6-4.966a66.172,66.172,0,0,0-11.545,3.947,76.152,76.152,0,0,0-6.621,7.3L330.676,76.73l.679,3.311,1.995,3.311L328.384,87.3,315.142,67.477a148.773,148.773,0,0,0-9.253-12.564L288.019,35.049l-2.632-2.334L322.739.669H316.2l-48.26,42.657-9.932-10.611,9.211-8.234,6.621-13.243,2.971-6.621,5.6-3.947h-6.282l-2.971,3.311L264.93,21.806l-9.592,8.277L228.852.287H183.223l74.745,86.333v8.574l-12.224,13.582-17.53,16.553-12.267-14.6,8.913-7.6a6.621,6.621,0,0,0,1.358-3.608,37.053,37.053,0,0,0-1.7-7.937L213.656,61.45a27.463,27.463,0,0,0-4.287-5.942,9.253,9.253,0,0,0-4.669-1.655H192.476l-4.287-8.277-7.3-11.545L167.01,17.477,152.451.287h-7.6L167.01,25.074l9.932,12.267L186.874,52.2l6.918,15.238,5.942,16.214L204.4,95.872v.34a.319.319,0,0,1,0,.637h.3v.34a100.2,100.2,0,0,0,6.282,12.564l13.964,17.53h.34l.3.679L206.7,145.448l-15.2,4.966-14.9,8.277-3.311,8.913-.976,5.306-33.107,29.711-12.224-12.182a6.621,6.621,0,0,0-3.311-1.019H122.7c-1.316.34-7.3,4.966-16.553,12.9l-10.569,9.932a8.616,8.616,0,0,0-1.655,6.621A10.908,10.908,0,0,0,97.23,225.5l7.258,8.913-4.287,3.947a14.856,14.856,0,0,1-7.937,1.995h-.976a20.9,20.9,0,0,1-9.3-1.273c-.976-.382-19.822-21.222-55.9-61.545l-.637-1.019a20.8,20.8,0,0,0-4.669-11.205C17.519,162,8.266,159.667,7.63,159.37l-7.3-6.664v43H3.64L36.7,230.082.329,267.179v10.908l23.132,23.769v7.64L.329,331.653H6.951l21.477-19.822-.679-7.3,24.194,27.122h5.6l-20.5-22.5,11.248-3.311L66.8,289.293l28.438,35.738,3.311,3.99a1.9,1.9,0,0,0,.976,0,2.335,2.335,0,0,0,1.7-.679,1.656,1.656,0,0,0,.3-1.655,3.31,3.31,0,0,0-.34-1.655l-1.952-2.292-29.8-36.375,10.908-9.932,7.98,8.913,29.711,33.107a3.311,3.311,0,0,1,1.7,2.632,39.048,39.048,0,0,1-3.311,10.229h64.813l20.5-17.827,64.516-57.555a30.433,30.433,0,0,0,9.253,0,7.937,7.937,0,0,0,3.311-1.995l7.258-6.239,23.175,25.085,53.9,58.871H372.4L360.812,318.41l-.637-1.655h1.952L374.776,331.7h10.908l-12.267-13.243a9.932,9.932,0,0,1-1.273-4.626,18.506,18.506,0,0,1,3.268-8.574h0l20.84-18.209a2.674,2.674,0,0,1,1.995,0,9.291,9.291,0,0,1,1.316,0,11.587,11.587,0,0,1,5.6,2.971l38.03,41.341h9.89l-44.652-49.618-4.966-.976,15.874-13.243,1.019,1.316,54.244,62.818v-.3Zm-337.351-3.311-5.688,3.311,1.7-8.616,3.947,5.306ZM276.814,226.857,167.689,323.418v-2.632l56.536-49.957,65.492-58.192,24.151-17.869-37.054,32.088ZM147.485,319.131l-6.918-9.253a25.807,25.807,0,0,0,3.311,1.273,23.175,23.175,0,0,0,8.913,1.995h1.655l-6.961,5.942Zm138.582-122.75-13.879,12.224-90.959,80.433-21.817,19.525-2.334.637a23.62,23.62,0,0,1-6.918,0,46.264,46.264,0,0,1-12.9-7.258l-14.219-14.559-3.311-4.669-17.19-19.143a30.017,30.017,0,0,1-.34-9.932,28.779,28.779,0,0,1,2.292-9.253l29.8-27.462,11.248,12.564-1.995,1.655v2.971a1.655,1.655,0,0,0,1.273,0,3.99,3.99,0,0,0,1.358,0l1.7-1.655,14.177,17.19a19.184,19.184,0,0,0,5.306,1.995h0a.679.679,0,0,0,.637,0,15.974,15.974,0,0,0,3.99-.637l34.38-29.457c.34,0,1.316-1.316,1.316-1.995a3.167,3.167,0,0,0-.637-1.952l-4.329-4.966-15.2-18.548-11.587-13.2,14.219-12.564,60.866-53.268,14.219-11.587h6.961l4.626,5.645,44.652,47.623-5.6,9.89L302.62,182.544l-9.932,9.253Zm3.99,41.341,61.8,69.44-63.2-67.487-3.311-.637,3.99-4.287.679,2.971Zm72.75,68.166-2.334-1.995,3.99-3.311,5.306-.976ZM58.521,252.96l18.506,20.2L45.957,301.6l-12.564,3.311L.287,271.806l38.752-39.346,19.525,20.5Zm345.967,17.869L374.734,296.3l-1.358-3.311L401.814,268.2ZM354.87,194.768l52.249,59.21-46.265,39.346h-9.932l-45.331-49.618-6.961-7.937,33.744-29.754s1.995-3.311.976-4.329a.976.976,0,0,0-.976,0,4.269,4.269,0,0,0-2.292.679L296.339,232.8l-1.7-1.995,49.321-45.289h2.632l8.277,9.253Zm60.187,67.148-8.574,6.918-2.334-2.292,8.277-7.64,2.632,2.971Zm-320.16-7.3-6.621-5.942,7.937-1.655-1.273,7.64Zm187.181-9.253a89.937,89.937,0,0,1-9.211,6.961,11.238,11.238,0,0,1-2.674-.679l7.3-6.621a4.967,4.967,0,0,1,2.292-.637h0a8.49,8.49,0,0,1,2.334.976h-.042Zm-79.372-26.443L171.3,246.042a4.287,4.287,0,0,1-2.632.976h-.34a10.993,10.993,0,0,1-3.311-.34h0l-3.947-4.966,34.38-31.07,7.3,8.277Zm-10.569-12.267L158.1,238.062l-6.621-7.895,34.72-30.433,5.942,6.918Zm-55.221-1.273L107.163,232.8l-1.995-1.995L135.6,203.682l1.273,1.7Zm-10.908-9.975,5.942,6.282-28.438,26.146-5.645-7.258a6.76,6.76,0,0,1-.3-3.311,7.938,7.938,0,0,1,1.273-2.971h0l22.241-19.185a6.622,6.622,0,0,1,2.292-.679,3.65,3.65,0,0,1,2.674,1.316v-.34Zm57.215.679-34.38,30.772-10.951-12.9,3.99-3.311,30.73-27.165,10.611,12.606Zm234.8,16.553-.976-1.358,25.127-22.156Zm-23.769-40.025-.679,11.248-20.5-23.175,9.89-4.966,11.248,16.893Zm-64.9-7.3h.34l-2.334,1.019-9.253,6.282-9.592,8.234,9.253-10.569,3.65-5.942,2.971-4.669ZM9.879,177.578A3.311,3.311,0,1,1,8,174.716a3.311,3.311,0,0,1,1.878,2.863Zm464.048-9.932a7.865,7.865,0,1,0,0,.34Zm-297.665,3.311s2.334-7.937,4.669-9.592l18.463-9.975L176.22,170.915Zm44.652-74.406a4.626,4.626,0,0,1,.679,2.632,45.629,45.629,0,0,1-7.3,6.621l-6.621-13.879-1.952-4.669,9.89-3.947Zm107.512-2.334-7.98,6.664-1.019-1.316,1.7-1.316.3-.34h0v-.34a.34.34,0,0,1,.34,0h0v-.34h.34l.3-.34.679-.3a1.359,1.359,0,0,0,0-.34h0l.976-.679.679-.637.976-1.019,1.019-.976h1.655v1.316Zm-33.4-44.991,15.2,17.275,15.535,23.132-8.574,7.937L270.532,45.278l11.587-9.932Zm41.638,37.351H337l-5.942,5.645-1.316-.976,6.282-5.645.679,1.019Zm26.486-28.056,6.621,9.89-2.334,13.243-9.932,7.64-13.582-2.037-4.584-3.268-3.311-5.306-.34-5.942,1.7-9.932,4.584-5.306,8.277-3.311,12.9,4.329ZM207.035,59.794a22.5,22.5,0,0,1,3.947,8.319l3.311,12.224-9.89,3.311-4.966-14.219-4.669-10.272,9.635-.34a5.05,5.05,0,0,1,2.632,1.019h0Z" transform="translate(0.053 -0.287)" fill="#fff" stroke="#e3e7ef" stroke-linejoin="round" stroke-width="0.086"/>
    </g>
  </g>
</svg>
