<svg xmlns="http://www.w3.org/2000/svg" xmlns:xlink="http://www.w3.org/1999/xlink" width="16" height="16" viewBox="0 0 16 16">
  <defs>
    <clipPath id="clip-path">
      <rect id="Rectangle_18072" data-name="Rectangle 18072" width="16" height="16" fill="#fff" stroke="#707070" stroke-width="1"/>
    </clipPath>
  </defs>
  <g id="Mask_Group_29594" data-name="Mask Group 29594" clip-path="url(#clip-path)">
    <g id="properity_2" data-name="properity 2" transform="translate(0.309)">
      <path id="Path_219620" data-name="Path 219620" d="M3.66,7.723H1.753a.108.108,0,0,0-.108.108V9.1a.108.108,0,0,0,.108.108H3.66A.108.108,0,0,0,3.768,9.1V7.831A.108.108,0,0,0,3.66,7.723Z" transform="translate(-0.309)" fill="#55a2f0"/>
      <path id="Path_219621" data-name="Path 219621" d="M3.66,7.723H2.707V9.208H3.66A.108.108,0,0,0,3.768,9.1V7.831A.108.108,0,0,0,3.66,7.723Z" transform="translate(-0.309)" fill="#4b9ee2"/>
      <path id="Path_219622" data-name="Path 219622" d="M12.6,1.823a.238.238,0,0,0-.238.238V4.454a.238.238,0,1,0,.475,0V2.061A.238.238,0,0,0,12.6,1.823Z" transform="translate(-0.309)" fill="#2d5872"/>
      <path id="Path_219623" data-name="Path 219623" d="M13,5.358h-.8a.25.25,0,0,1-.25-.25V4.235a.25.25,0,0,1,.25-.25H13a.25.25,0,0,1,.25.25v.874A.25.25,0,0,1,13,5.358Z" transform="translate(-0.309)" fill="#ff4c4c"/>
      <path id="Path_219624" data-name="Path 219624" d="M14.126,7.892H11.069a.238.238,0,0,1-.238-.238V5.347a.238.238,0,0,1,.238-.238h3.057a.238.238,0,0,1,.238.238V7.654A.238.238,0,0,1,14.126,7.892Z" transform="translate(-0.309)" fill="#f33a3a"/>
      <path id="Path_219625" data-name="Path 219625" d="M15.1,16H9.74V6.248h5.232a.132.132,0,0,1,.132.132Z" transform="translate(-0.309)" fill="#ff4c4c"/>
      <path id="Path_219626" data-name="Path 219626" d="M14.973,6.248H13.516a.132.132,0,0,1,.132.132V16H15.1V6.379A.132.132,0,0,0,14.973,6.248Z" transform="translate(-0.309)" fill="#f33a3a"/>
      <g id="Group_73468" data-name="Group 73468" transform="translate(10.521 7.723)">
        <path id="Path_219627" data-name="Path 219627" d="M14.1,8.572H11.028a.2.2,0,0,1-.2-.2V7.92a.2.2,0,0,1,.2-.2H14.1a.2.2,0,0,1,.2.2v.456A.2.2,0,0,1,14.1,8.572Z" transform="translate(-10.831 -7.723)" fill="#e1effb"/>
        <path id="Path_219628" data-name="Path 219628" d="M14.1,10.52H11.028a.2.2,0,0,1-.2-.2V9.868a.2.2,0,0,1,.2-.2H14.1a.2.2,0,0,1,.2.2v.456A.2.2,0,0,1,14.1,10.52Z" transform="translate(-10.831 -7.723)" fill="#e1effb"/>
        <path id="Path_219629" data-name="Path 219629" d="M14.1,12.468H11.028a.2.2,0,0,1-.2-.2v-.456a.2.2,0,0,1,.2-.2H14.1a.2.2,0,0,1,.2.2v.456A.2.2,0,0,1,14.1,12.468Z" transform="translate(-10.831 -7.723)" fill="#e1effb"/>
        <path id="Path_219630" data-name="Path 219630" d="M14.1,14.416H11.028a.2.2,0,0,1-.2-.2v-.456a.2.2,0,0,1,.2-.2H14.1a.2.2,0,0,1,.2.2v.456A.2.2,0,0,1,14.1,14.416Z" transform="translate(-10.831 -7.723)" fill="#e1effb"/>
      </g>
      <path id="Path_219631" data-name="Path 219631" d="M11.135,16H4.941a.179.179,0,0,1-.179-.179V.466A.179.179,0,0,1,4.941.287h6.194a.179.179,0,0,1,.179.179V15.821A.179.179,0,0,1,11.135,16Z" transform="translate(-0.309)" fill="#ffb125"/>
      <g id="Group_73469" data-name="Group 73469" transform="translate(4.006)">
        <path id="Path_219632" data-name="Path 219632" d="M11.135.287H9.678a.179.179,0,0,1,.179.179V15.821A.179.179,0,0,1,9.678,16h1.457a.179.179,0,0,0,.179-.179V.466A.179.179,0,0,0,11.135.287Z" transform="translate(-4.315)" fill="#ff901d"/>
        <path id="Path_219633" data-name="Path 219633" d="M11.6,0H4.4a.089.089,0,0,0-.089.089v.6A.089.089,0,0,0,4.4.782H11.6a.089.089,0,0,0,.089-.089v-.6A.089.089,0,0,0,11.6,0Z" transform="translate(-4.315)" fill="#ff901d"/>
      </g>
      <g id="Group_73470" data-name="Group 73470" transform="translate(5.266 1.648)">
        <path id="Path_219634" data-name="Path 219634" d="M6.558,2.934H5.687a.111.111,0,0,1-.111-.111V1.759a.111.111,0,0,1,.111-.111h.871a.111.111,0,0,1,.111.111V2.823A.111.111,0,0,1,6.558,2.934Z" transform="translate(-5.576 -1.648)" fill="#e1effb"/>
        <path id="Path_219635" data-name="Path 219635" d="M8.474,2.934H7.6a.111.111,0,0,1-.111-.111V1.759A.111.111,0,0,1,7.6,1.648h.871a.111.111,0,0,1,.111.111V2.823A.111.111,0,0,1,8.474,2.934Z" transform="translate(-5.576 -1.648)" fill="#e1effb"/>
        <path id="Path_219636" data-name="Path 219636" d="M10.389,2.934H9.517a.111.111,0,0,1-.111-.111V1.759a.111.111,0,0,1,.111-.111h.871a.111.111,0,0,1,.111.111V2.823A.111.111,0,0,1,10.389,2.934Z" transform="translate(-5.576 -1.648)" fill="#e1effb"/>
        <path id="Path_219637" data-name="Path 219637" d="M6.558,5.8H5.687a.111.111,0,0,1-.111-.111V4.63a.111.111,0,0,1,.111-.111h.871a.111.111,0,0,1,.111.111V5.694A.111.111,0,0,1,6.558,5.8Z" transform="translate(-5.576 -1.648)" fill="#e1effb"/>
        <path id="Path_219638" data-name="Path 219638" d="M8.474,5.8H7.6a.111.111,0,0,1-.111-.111V4.63A.111.111,0,0,1,7.6,4.518h.871a.111.111,0,0,1,.111.111V5.694A.111.111,0,0,1,8.474,5.8Z" transform="translate(-5.576 -1.648)" fill="#e1effb"/>
        <path id="Path_219639" data-name="Path 219639" d="M10.389,5.8H9.517a.111.111,0,0,1-.111-.111V4.63a.111.111,0,0,1,.111-.111h.871a.111.111,0,0,1,.111.111V5.694A.111.111,0,0,1,10.389,5.8Z" transform="translate(-5.576 -1.648)" fill="#e1effb"/>
        <path id="Path_219640" data-name="Path 219640" d="M6.558,8.675H5.687a.111.111,0,0,1-.111-.111V7.5a.111.111,0,0,1,.111-.111h.871a.111.111,0,0,1,.111.111V8.564A.111.111,0,0,1,6.558,8.675Z" transform="translate(-5.576 -1.648)" fill="#e1effb"/>
        <path id="Path_219641" data-name="Path 219641" d="M8.474,8.675H7.6a.111.111,0,0,1-.111-.111V7.5A.111.111,0,0,1,7.6,7.389h.871a.111.111,0,0,1,.111.111V8.564A.111.111,0,0,1,8.474,8.675Z" transform="translate(-5.576 -1.648)" fill="#e1effb"/>
        <path id="Path_219642" data-name="Path 219642" d="M10.389,8.675H9.517a.111.111,0,0,1-.111-.111V7.5a.111.111,0,0,1,.111-.111h.871A.111.111,0,0,1,10.5,7.5V8.564A.111.111,0,0,1,10.389,8.675Z" transform="translate(-5.576 -1.648)" fill="#e1effb"/>
        <path id="Path_219643" data-name="Path 219643" d="M8.474,11.546H7.6a.111.111,0,0,1-.111-.111V10.37a.111.111,0,0,1,.111-.111h.871a.111.111,0,0,1,.111.111v1.064A.111.111,0,0,1,8.474,11.546Z" transform="translate(-5.576 -1.648)" fill="#e1effb"/>
        <path id="Path_219644" data-name="Path 219644" d="M10.389,11.546H9.517a.111.111,0,0,1-.111-.111V10.37a.111.111,0,0,1,.111-.111h.871a.111.111,0,0,1,.111.111v1.064A.111.111,0,0,1,10.389,11.546Z" transform="translate(-5.576 -1.648)" fill="#e1effb"/>
        <path id="Path_219645" data-name="Path 219645" d="M8.474,14.416H7.6a.111.111,0,0,1-.111-.111V13.241A.111.111,0,0,1,7.6,13.13h.871a.111.111,0,0,1,.111.111V14.3A.111.111,0,0,1,8.474,14.416Z" transform="translate(-5.576 -1.648)" fill="#e1effb"/>
        <path id="Path_219646" data-name="Path 219646" d="M10.389,14.416H9.517a.111.111,0,0,1-.111-.111V13.241a.111.111,0,0,1,.111-.111h.871a.111.111,0,0,1,.111.111V14.3A.111.111,0,0,1,10.389,14.416Z" transform="translate(-5.576 -1.648)" fill="#e1effb"/>
      </g>
      <path id="Path_219647" data-name="Path 219647" d="M7.623,16H1.032A.137.137,0,0,1,.9,15.863V8.881a.137.137,0,0,1,.137-.137h6.59a.137.137,0,0,1,.137.137v6.982A.137.137,0,0,1,7.623,16Z" transform="translate(-0.309)" fill="#61aff6"/>
      <path id="Path_219648" data-name="Path 219648" d="M7.623,8.744H6.139a.137.137,0,0,1,.137.137v6.982A.137.137,0,0,1,6.139,16H7.623a.137.137,0,0,0,.137-.137V8.881A.137.137,0,0,0,7.623,8.744Z" transform="translate(-0.309)" fill="#55a2f0"/>
      <g id="Group_73471" data-name="Group 73471" transform="translate(1.397 9.9)">
        <path id="Path_219649" data-name="Path 219649" d="M2.707,10.724H1.844a.138.138,0,0,1-.137-.137v-.549A.138.138,0,0,1,1.844,9.9h.863a.138.138,0,0,1,.137.137v.549A.138.138,0,0,1,2.707,10.724Z" transform="translate(-1.707 -9.9)" fill="#e1effb"/>
        <path id="Path_219650" data-name="Path 219650" d="M4.715,10.724H3.852a.138.138,0,0,1-.137-.137v-.549A.138.138,0,0,1,3.852,9.9h.863a.138.138,0,0,1,.137.137v.549A.138.138,0,0,1,4.715,10.724Z" transform="translate(-1.707 -9.9)" fill="#e1effb"/>
        <path id="Path_219651" data-name="Path 219651" d="M6.723,10.724H5.86a.138.138,0,0,1-.137-.137v-.549A.138.138,0,0,1,5.86,9.9h.863a.138.138,0,0,1,.137.137v.549A.138.138,0,0,1,6.723,10.724Z" transform="translate(-1.707 -9.9)" fill="#e1effb"/>
        <path id="Path_219652" data-name="Path 219652" d="M2.707,12.652H1.844a.138.138,0,0,1-.137-.137v-.549a.138.138,0,0,1,.137-.137h.863a.138.138,0,0,1,.137.137v.549A.138.138,0,0,1,2.707,12.652Z" transform="translate(-1.707 -9.9)" fill="#e1effb"/>
        <path id="Path_219653" data-name="Path 219653" d="M4.715,12.652H3.852a.138.138,0,0,1-.137-.137v-.549a.138.138,0,0,1,.137-.137h.863a.138.138,0,0,1,.137.137v.549A.138.138,0,0,1,4.715,12.652Z" transform="translate(-1.707 -9.9)" fill="#e1effb"/>
        <path id="Path_219654" data-name="Path 219654" d="M6.723,12.652H5.86a.138.138,0,0,1-.137-.137v-.549a.138.138,0,0,1,.137-.137h.863a.138.138,0,0,1,.137.137v.549A.138.138,0,0,1,6.723,12.652Z" transform="translate(-1.707 -9.9)" fill="#e1effb"/>
        <path id="Path_219655" data-name="Path 219655" d="M2.707,14.58H1.844a.138.138,0,0,1-.137-.137v-.549a.138.138,0,0,1,.137-.137h.863a.138.138,0,0,1,.137.137v.549A.138.138,0,0,1,2.707,14.58Z" transform="translate(-1.707 -9.9)" fill="#e1effb"/>
        <path id="Path_219656" data-name="Path 219656" d="M4.715,14.58H3.852a.138.138,0,0,1-.137-.137v-.549a.138.138,0,0,1,.137-.137h.863a.138.138,0,0,1,.137.137v.549A.138.138,0,0,1,4.715,14.58Z" transform="translate(-1.707 -9.9)" fill="#e1effb"/>
        <path id="Path_219657" data-name="Path 219657" d="M6.723,14.58H5.86a.138.138,0,0,1-.137-.137v-.549a.138.138,0,0,1,.137-.137h.863a.138.138,0,0,1,.137.137v.549A.138.138,0,0,1,6.723,14.58Z" transform="translate(-1.707 -9.9)" fill="#e1effb"/>
      </g>
      <path id="Path_219658" data-name="Path 219658" d="M15.323,15.266H.677a.367.367,0,0,0-.367.367h0A.367.367,0,0,0,.677,16H15.323a.367.367,0,0,0,.367-.367h0A.367.367,0,0,0,15.323,15.266Z" transform="translate(-0.309)" fill="#2d5872"/>
      <path id="Path_219659" data-name="Path 219659" d="M15.688,15.593v-.007c0-.011,0-.022-.006-.033v0q0-.018-.01-.035h0a.368.368,0,0,0-.015-.036h0a.367.367,0,0,0-.331-.21h-1.09v.093a.326.326,0,0,1-.326.326H.677a.367.367,0,0,1-.331-.21.365.365,0,0,0-.036.157h0A.367.367,0,0,0,.677,16H15.323a.367.367,0,0,0,.367-.367h0A.372.372,0,0,0,15.688,15.593Z" transform="translate(-0.309)" fill="#1d4859"/>
    </g>
  </g>
</svg>
