<svg xmlns="http://www.w3.org/2000/svg" xmlns:xlink="http://www.w3.org/1999/xlink" width="16" height="16" viewBox="0 0 16 16">
  <defs>
    <clipPath id="clip-path">
      <rect id="Rectangle_18072" data-name="Rectangle 18072" width="16" height="16" fill="#fff" stroke="#707070" stroke-width="1"/>
    </clipPath>
  </defs>
  <g id="Mask_Group_29592" data-name="Mask Group 29592" clip-path="url(#clip-path)">
    <g id="fashion_3" data-name="fashion 3" transform="translate(0 1.53)">
      <path id="Path_219590" data-name="Path 219590" d="M12.605,9.551h3.116A.278.278,0,0,1,16,9.829v2.849a.278.278,0,0,1-.235.275L6.082,14.47H5.5V9.551Z" transform="translate(0 -1.53)" fill="#017bae"/>
      <path id="Path_219591" data-name="Path 219591" d="M12.605,9.551H5.5V14.47h.579l1.5-.235V12.7a.316.316,0,0,1,.317-.316h0a12.874,12.874,0,0,0,4.878-.821,1.057,1.057,0,0,0,.664-.984V9.551h-.838Z" transform="translate(0 -1.53)" fill="#057399"/>
      <path id="Path_219592" data-name="Path 219592" d="M6.081,13.709a.242.242,0,0,1-.038-.48l.4-.063a.242.242,0,1,1,.076.477l-.4.063a.241.241,0,0,1-.038,0Z" transform="translate(0 -1.53)" fill="#017bae"/>
      <path id="Path_219593" data-name="Path 219593" d="M7.333,13.511a.242.242,0,0,1-.038-.48l.853-.135a.242.242,0,0,1,.076.477l-.853.135a.244.244,0,0,1-.038,0Zm1.707-.271A.242.242,0,0,1,9,12.759l.853-.135a.242.242,0,0,1,.076.477l-.853.135a.241.241,0,0,1-.038,0Zm1.707-.271a.242.242,0,0,1-.038-.48l.853-.135a.242.242,0,1,1,.076.477l-.853.135a.241.241,0,0,1-.038,0Zm1.707-.271a.242.242,0,0,1-.038-.48l.853-.135a.242.242,0,0,1,.076.477l-.853.135a.241.241,0,0,1-.038,0Z" transform="translate(0 -1.53)" fill="#0290cf"/>
      <path id="Path_219594" data-name="Path 219594" d="M7.582,12.985,7.3,13.03a.242.242,0,1,0,.076.477l.211-.033v-.489Z" transform="translate(0 -1.53)" fill="#017bae"/>
      <path id="Path_219595" data-name="Path 219595" d="M14.159,12.427a.242.242,0,0,1-.038-.48l.4-.063a.242.242,0,0,1,.076.477l-.4.063a.244.244,0,0,1-.038,0Z" transform="translate(0 -1.53)" fill="#0290cf"/>
      <path id="Path_219596" data-name="Path 219596" d="M15.722,9.551H14.557v3.592l1.208-.189A.278.278,0,0,0,16,12.679V9.829A.278.278,0,0,0,15.722,9.551Z" transform="translate(0 -1.53)" fill="#99e6fc"/>
      <path id="Path_219597" data-name="Path 219597" d="M15.079,6.883l-1.52-4.255-1.4-1.036a.285.285,0,0,0-.354.014Q9.078,3.922,6.082,1.59a.285.285,0,0,0-.344-.005L4.327,2.628l-.716,2H5.865a.217.217,0,0,1,.217.217v6.623l.034.005a14.128,14.128,0,0,0,6.349-.686.224.224,0,0,0,.14-.208v-1.9l2.373-1.5a.252.252,0,0,0,.1-.3Z" transform="translate(0 -1.53)" fill="#fedf30"/>
      <path id="Path_219598" data-name="Path 219598" d="M6.929,3.8H4.171l-.56.827,1.632,6.715.838.125h0l.847-.107Z" transform="translate(0 -1.53)" fill="#fedf30"/>
      <path id="Path_219599" data-name="Path 219599" d="M8.585,10.665A1.588,1.588,0,0,1,7.012,9.088L6.988,5.224A1.476,1.476,0,0,0,5.512,3.748H5.433a.646.646,0,0,1-.608-.863l.3-.849-.8.592-.716,2H5.865a.217.217,0,0,1,.217.217v6.623l.034.005a14.128,14.128,0,0,0,6.349-.686.224.224,0,0,0,.14-.208v-.408a13.476,13.476,0,0,1-4.02.49Z" transform="translate(0 -1.53)" fill="#fed402"/>
      <path id="Path_219600" data-name="Path 219600" d="M12.465,7.2a14.164,14.164,0,0,1-6.383.683H5.789v.948l.292-.007a14.164,14.164,0,0,0,6.383-.683.224.224,0,0,0,.14-.208V6.988a.224.224,0,0,1-.14.208Z" transform="translate(0 -1.53)" fill="#fe646f"/>
      <path id="Path_219601" data-name="Path 219601" d="M7,7.936q-.456-.019-.923-.057V8.82q.471.038.929.057Z" transform="translate(0 -1.53)" fill="#fd4755"/>
      <path id="Path_219602" data-name="Path 219602" d="M1.345,4.632h1.08l1.187.773,1.127-.773H5.865a.217.217,0,0,1,.217.217V14.47H5.187A.147.147,0,0,1,5.1,14.44L.162,10.69a.4.4,0,0,1-.153-.41L1.133,4.8a.217.217,0,0,1,.212-.171Z" transform="translate(0 -1.53)" fill="#0290cf"/>
      <path id="Path_219603" data-name="Path 219603" d="M5.865,4.632H4.738l-1.127.483L2.424,4.632H1.345a.217.217,0,0,0-.212.171L.792,6.464h5.29V4.849A.217.217,0,0,0,5.865,4.632Z" transform="translate(0 -1.53)" fill="#017bae"/>
      <path id="Path_219604" data-name="Path 219604" d="M2.424,4.632H4.738V6.464H2.424Z" transform="translate(0 -1.53)" fill="#dd7f66"/>
      <path id="Path_219605" data-name="Path 219605" d="M3.189,4.632H2.424V6.464H4.738V5.782h-.4a1.15,1.15,0,0,1-1.15-1.15Z" transform="translate(0 -1.53)" fill="#d6694b"/>
      <path id="Path_219606" data-name="Path 219606" d="M4.631,9.967l-1.253.617a.191.191,0,0,1-.169,0L1.956,9.967A.191.191,0,0,1,1.849,9.8V7.688A.191.191,0,0,1,2.04,7.5H4.546a.191.191,0,0,1,.191.191V9.8a.191.191,0,0,1-.107.172Z" transform="translate(0 -1.53)" fill="#017bae"/>
      <path id="Path_219607" data-name="Path 219607" d="M12.641,1.95l-.485-.358a.285.285,0,0,0-.354.014Q9.078,3.922,6.082,1.59a.285.285,0,0,0-.344-.005l-.5.366.663.512A5.4,5.4,0,0,0,9.022,3.568,4.9,4.9,0,0,0,12,2.478l.6-.5Z" transform="translate(0 -1.53)" fill="#fe646f"/>
      <path id="Path_219608" data-name="Path 219608" d="M15.079,6.883,13.56,2.628,12.6,3.8V8.684l2.373-1.5a.252.252,0,0,0,.1-.3Z" transform="translate(0 -1.53)" fill="#fac600"/>
    </g>
  </g>
</svg>
