<svg xmlns="http://www.w3.org/2000/svg" xmlns:xlink="http://www.w3.org/1999/xlink" width="52" height="52" viewBox="0 0 52 52">
  <defs>
    <clipPath id="clip-path">
      <rect id="Rectangle_2399" data-name="Rectangle 2399" width="52" height="52" transform="translate(0)" fill="#818391" stroke="#707070" stroke-width="1"/>
    </clipPath>
  </defs>
  <g id="Mask_Group_24" data-name="Mask Group 24" clip-path="url(#clip-path)">
    <g id="Icon_ionic-ios-camera" data-name="Icon ionic-ios-camera" transform="translate(9.178 12.712)">
      <path id="Path_5542" data-name="Path 5542" d="M13.957,20.349a5.056,5.056,0,1,0,5.056-5.056A5.056,5.056,0,0,0,13.957,20.349Z" transform="translate(-1.997 -5.894)" fill="#818391"/>
      <path id="Path_5543" data-name="Path 5543" d="M7.2,12.129h4.83A1.438,1.438,0,0,0,13.1,11.65c2.517-2.818,3.465-3.775,4.493-3.775h7.577c1.037,0,2.056.957,4.582,3.784a1.411,1.411,0,0,0,1.055.47h.363V11.42a.711.711,0,0,1,.709-.709h2.3a.711.711,0,0,1,.709.709v.709h.665a2.874,2.874,0,0,1,2.978,2.721v15.6A3.068,3.068,0,0,1,35.562,33.4H7.2a2.841,2.841,0,0,1-2.7-2.951V14.85A2.641,2.641,0,0,1,7.2,12.129Zm13.958,17.76a7.577,7.577,0,1,0-7.214-7.214A7.584,7.584,0,0,0,21.161,29.889Zm-8.153-12.62a1.152,1.152,0,1,0-1.152-1.152A1.15,1.15,0,0,0,13.008,17.269Z" transform="translate(-4.5 -7.875)" fill="#818391"/>
    </g>
  </g>
</svg>
