<svg xmlns="http://www.w3.org/2000/svg" xmlns:xlink="http://www.w3.org/1999/xlink" width="24" height="24" viewBox="0 0 24 24">
  <defs>
    <clipPath id="clip-path">
      <rect id="Rectangle_13" data-name="Rectangle 13" width="24" height="24" transform="translate(310 348)" fill="#cad1e0" stroke="#707070" stroke-width="1"/>
    </clipPath>
  </defs>
  <g id="Mask_Group_2" data-name="Mask Group 2" transform="translate(-310 -348)" clip-path="url(#clip-path)">
    <g id="svgexport-7" transform="translate(312.549 349.911)">
      <g id="Group_14" data-name="Group 14" transform="translate(7.109 7.746)">
        <g id="Group_13" data-name="Group 13">
          <path id="Path_1" data-name="Path 1" d="M13.6,9.141a.394.394,0,1,0-.557.557A2.362,2.362,0,1,1,9.7,13.038a.394.394,0,1,0-.557.557A3.15,3.15,0,1,0,13.6,9.141Z" transform="translate(-9.026 -9.025)" fill="#cad1e0"/>
        </g>
      </g>
      <g id="Group_16" data-name="Group 16" transform="translate(6.301 6.938)">
        <g id="Group_15" data-name="Group 15">
          <path id="Path_2" data-name="Path 2" d="M11.7,8.054A3.119,3.119,0,0,0,8,11.15a3.083,3.083,0,0,0,.055.549.394.394,0,0,0,.387.325.349.349,0,0,0,.069-.006.394.394,0,0,0,.319-.456,2.284,2.284,0,0,1-.043-.412,2.334,2.334,0,0,1,2.775-2.321.394.394,0,1,0,.137-.775Z" transform="translate(-8 -8)" fill="#cad1e0"/>
        </g>
      </g>
      <g id="Group_18" data-name="Group 18" transform="translate(4.926 5.675)">
        <g id="Group_17" data-name="Group 17">
          <path id="Path_3" data-name="Path 3" d="M20.137,10.555a19.131,19.131,0,0,0-5.158-4.114.394.394,0,0,0-.362.7,18.507,18.507,0,0,1,4.69,3.669c-.939,1.017-4.633,4.726-8.528,4.726a9.081,9.081,0,0,1-3.96-.949.393.393,0,0,0-.342.709,9.848,9.848,0,0,0,4.3,1.028c4.852,0,9.176-5.044,9.358-5.259A.393.393,0,0,0,20.137,10.555Z" transform="translate(-6.255 -6.397)" fill="#cad1e0"/>
        </g>
      </g>
      <g id="Group_20" data-name="Group 20" transform="translate(0 4.575)">
        <g id="Group_19" data-name="Group 19" transform="translate(0 0)">
          <path id="Path_4" data-name="Path 4" d="M12.035,5.453A8.132,8.132,0,0,0,9.451,5C4.6,5,.275,10.043.093,10.258a.394.394,0,0,0-.022.48,14.621,14.621,0,0,0,3.613,3.425.391.391,0,0,0,.545-.111.393.393,0,0,0-.11-.545A14.4,14.4,0,0,1,.9,10.534c.907-.985,4.626-4.747,8.549-4.747a7.372,7.372,0,0,1,2.333.412.388.388,0,0,0,.5-.247A.393.393,0,0,0,12.035,5.453Z" transform="translate(0 -5)" fill="#cad1e0"/>
        </g>
      </g>
      <g id="Group_22" data-name="Group 22" transform="translate(2.363 3)">
        <g id="Group_21" data-name="Group 21">
          <path id="Path_5" data-name="Path 5" d="M17.061,3.116a.394.394,0,0,0-.557,0L3.115,16.5a.394.394,0,0,0,.557.557L17.061,3.672A.394.394,0,0,0,17.061,3.116Z" transform="translate(-3 -3)" fill="#cad1e0"/>
        </g>
      </g>
    </g>
  </g>
</svg>
