<svg xmlns="http://www.w3.org/2000/svg" xmlns:xlink="http://www.w3.org/1999/xlink" width="16" height="16" viewBox="0 0 16 16">
  <defs>
    <clipPath id="clip-path">
      <rect id="Rectangle_18072" data-name="Rectangle 18072" width="16" height="16" fill="#fff" stroke="#707070" stroke-width="1"/>
    </clipPath>
  </defs>
  <g id="Mask_Group_29595" data-name="Mask Group 29595" clip-path="url(#clip-path)">
    <g id="education" transform="translate(0 0.081)">
      <g id="Group_73472" data-name="Group 73472">
        <path id="Path_219660" data-name="Path 219660" d="M13.709,7.841a3.26,3.26,0,0,0-.019,2.414l.266.521H2.478s-2.137-1.2,0-3.338L13.857,7.2Z" transform="translate(0 -0.081)" fill="#f1f2f2"/>
        <path id="Path_219661" data-name="Path 219661" d="M13.956,10.777H2.478s-2.137-1.2,0-3.338L13.857,7.2l-.148.637a3.126,3.126,0,0,0-.162.518H3.132a.731.731,0,1,0,0,1.463H13.551a2.81,2.81,0,0,0,.139.434Z" transform="translate(0 -0.081)" fill="#dee1e1"/>
        <path id="Path_219662" data-name="Path 219662" d="M13.782,11.264,3.29,11.248A2.154,2.154,0,0,1,.954,9.189,2.864,2.864,0,0,1,1,8.3,2.277,2.277,0,0,1,3.132,6.815H13.9a.513.513,0,0,1,0,1.027H5.749l-.8.187-.692-.187H3.132a1.249,1.249,0,0,0,0,2.5H13.9a.514.514,0,0,1,.51.574c-.03.255-.36.35-.623.35Z" transform="translate(0 -0.081)" fill="#b7e546"/>
        <path id="Path_219663" data-name="Path 219663" d="M14.4,10.914a.513.513,0,0,1-.51.453l-5.318.319-5.446-.319A2.277,2.277,0,0,1,1.05,8.17v.468a2.276,2.276,0,0,0,2.276,2.276Z" transform="translate(0 -0.081)" fill="#abd641"/>
        <path id="Path_219664" data-name="Path 219664" d="M5.749,9.338v-1.5H4.682L4.3,7.88l.023,1.394a.065.065,0,0,0,.088.06l.268-.065.3-.117a.065.065,0,0,1,.047,0l.632.247A.065.065,0,0,0,5.749,9.338Z" transform="translate(0 -0.081)" fill="#ef5227"/>
        <path id="Path_219665" data-name="Path 219665" d="M4.682,7.842V9.268L4.35,9.4a.065.065,0,0,1-.088-.06v-1.5Z" transform="translate(0 -0.081)" fill="#d83724"/>
        <path id="Path_219666" data-name="Path 219666" d="M12.234,5.508v.73l-.032.324a.227.227,0,0,1-.227.227L3.351,6.755a.226.226,0,0,1-.227-.227L3.06,5.508,7.487,5.3Z" transform="translate(0 -0.081)" fill="#fdcd08"/>
        <path id="Path_219667" data-name="Path 219667" d="M14.891,5.559a.243.243,0,0,1-.243-.243V2.8a.243.243,0,0,1,.485,0V5.316a.243.243,0,0,1-.243.243Z" transform="translate(0 -0.081)" fill="#77777f"/>
        <path id="Path_219668" data-name="Path 219668" d="M14.457,6.117c-.2.5-.406.992-.609,1.491a.453.453,0,0,0,.416.626l.375.032h.911a.453.453,0,0,0,.416-.626L15.544,6.6l-.266-.482h-.821Z" transform="translate(0 -0.081)" fill="#fdcd08"/>
        <path id="Path_219669" data-name="Path 219669" d="M14.783,6.783a1.23,1.23,0,0,0,.76-.184l-.227-.568-.375.112h0l-.489-.065c-.062.152-.152.369-.213.521h0l-.422,1.041a.453.453,0,0,0,.416.625h.518a.453.453,0,0,1-.416-.625l.315-.777A.131.131,0,0,1,14.783,6.783Z" transform="translate(0 -0.081)" fill="#faab18"/>
        <path id="Path_219670" data-name="Path 219670" d="M15.638,5.549a.754.754,0,0,0-.5-.713c-.076-.026-.187.021-.272.021a.636.636,0,0,0-.666.693.658.658,0,0,0,.721.666c.085,0,.141.073.217.047a.754.754,0,0,0,.5-.713Z" transform="translate(0 -0.081)" fill="#fdcd08"/>
        <path id="Path_219671" data-name="Path 219671" d="M15.134,6.262a.736.736,0,0,1-.243.041.754.754,0,0,1,0-1.508.736.736,0,0,1,.243.041.757.757,0,0,0,0,1.427Z" transform="translate(0 -0.081)" fill="#faab18"/>
        <path id="Path_219672" data-name="Path 219672" d="M14.951,3.059,12.816,3.8l-.582-.06-4.143,1.7a1.358,1.358,0,0,1-.888,0L3.06,3.8,2.478,3.8.343,3.059a.272.272,0,0,1,0-.513L7.284.143a1.11,1.11,0,0,1,.727,0l6.941,2.4a.272.272,0,0,1,0,.513Z" transform="translate(0 -0.081)" fill="#868491"/>
        <path id="Path_219673" data-name="Path 219673" d="M12.816,3.578V3.8L8.091,5.433a1.358,1.358,0,0,1-.889,0L2.478,3.8V3.578a.952.952,0,0,1,.784-.938,24.852,24.852,0,0,1,8.77,0,.953.953,0,0,1,.784.938Z" transform="translate(0 -0.081)" fill="#77777f"/>
        <path id="Path_219674" data-name="Path 219674" d="M12.234,3.578v1.93H3.157L3.125,3.643a.37.37,0,0,1,.3-.364c.092-.017.12-.1.213-.113a24.262,24.262,0,0,1,8.287.048.371.371,0,0,1,.3.364Z" transform="translate(0 -0.081)" fill="#868491"/>
        <path id="Path_219675" data-name="Path 219675" d="M12.234,6.238v.356a.227.227,0,0,1-.227.227H3.287a.227.227,0,0,1-.227-.227V5.508L3.351,5.3l.291.212v.568a.162.162,0,0,0,.162.162Z" transform="translate(0 -0.081)" fill="#faab18"/>
        <path id="Path_219676" data-name="Path 219676" d="M3.643,3.166V5.508H3.06V3.578a.37.37,0,0,1,.3-.364l.278-.048Z" transform="translate(0 -0.081)" fill="#77777f"/>
        <path id="Path_219677" data-name="Path 219677" d="M14.564,14.8a3.045,3.045,0,0,1,0-2.33l.1-.437H1.431a2.276,2.276,0,0,0,.1,3.206l13.221.1Z" transform="translate(0 -0.081)" fill="#f1f2f2"/>
        <path id="Path_219678" data-name="Path 219678" d="M14.749,15.337l-13.221-.1a2.276,2.276,0,0,1-.1-3.205l13.3.025-.162.413a3.032,3.032,0,0,0-.145.441H2.276a.731.731,0,1,0,0,1.463H14.424a3.069,3.069,0,0,0,.141.426Z" transform="translate(0 -0.081)" fill="#dee1e1"/>
        <path id="Path_219679" data-name="Path 219679" d="M14.526,15.805,2.563,15.783A2.109,2.109,0,0,1,.2,13.817a2.974,2.974,0,0,1,.083-1.274,2.275,2.275,0,0,1,1.993-1.176H14.751a.513.513,0,0,1,0,1.027H11.66l-.808.179-.68-.179h-7.9a1.249,1.249,0,0,0,0,2.5H14.751a.514.514,0,0,1,.505.606C15.212,15.737,14.778,15.805,14.526,15.805Z" transform="translate(0 -0.081)" fill="#ef5227"/>
        <path id="Path_219680" data-name="Path 219680" d="M15.256,15.5a.514.514,0,0,1-.505.421H2.276a2.276,2.276,0,0,1-1.92-3.5v.8A2.276,2.276,0,0,0,2.632,15.5Z" transform="translate(0 -0.081)" fill="#d83724"/>
        <path id="Path_219681" data-name="Path 219681" d="M11.66,13.9V12.393h-1l-.444.027.024,1.417a.065.065,0,0,0,.088.06l.332-.091.235-.092a.065.065,0,0,1,.047,0l.632.247a.065.065,0,0,0,.088-.06Z" transform="translate(0 -0.081)" fill="#fdcd08"/>
        <path id="Path_219682" data-name="Path 219682" d="M10.658,12.393v1.414l-.4.155a.065.065,0,0,1-.088-.06V12.393Z" transform="translate(0 -0.081)" fill="#faab18"/>
      </g>
    </g>
  </g>
</svg>
