<svg xmlns="http://www.w3.org/2000/svg" xmlns:xlink="http://www.w3.org/1999/xlink" width="24" height="24" viewBox="0 0 24 24">
  <defs>
    <clipPath id="clip-path">
      <rect id="Rectangle_17952" data-name="Rectangle 17952" width="24" height="24" transform="translate(1367 1459)" fill="#fff" stroke="#707070" stroke-width="1"/>
    </clipPath>
  </defs>
  <g id="Mask_Group_29558" data-name="Mask Group 29558" transform="translate(-1367 -1459)" clip-path="url(#clip-path)">
    <g id="favorite_line" data-name="favorite line" transform="translate(1372.168 1464.663)">
      <path id="Path_219319" data-name="Path 219319" d="M9.728.02a4.246,4.246,0,0,0-2.9,1.169A4.246,4.246,0,0,0,3.937.02,3.9,3.9,0,0,0,0,3.956c0,2.58,2.974,5.42,6.567,8.6a.4.4,0,0,0,.53,0c3.593-3.177,6.567-6.018,6.567-8.6A3.9,3.9,0,0,0,9.728.02Zm-2.9,11.7C3.622,8.869.8,6.14.8,3.956A3.1,3.1,0,0,1,3.937.82a3.483,3.483,0,0,1,2.59,1.209.4.4,0,0,0,.611,0A3.483,3.483,0,0,1,9.728.82a3.1,3.1,0,0,1,3.136,3.136C12.864,6.139,10.043,8.869,6.833,11.719Zm0,0" fill="#2d3142"/>
    </g>
  </g>
</svg>
