<svg xmlns="http://www.w3.org/2000/svg" xmlns:xlink="http://www.w3.org/1999/xlink" width="24" height="24" viewBox="0 0 24 24">
  <defs>
    <clipPath id="clip-path">
      <rect id="Rectangle_17951" data-name="Rectangle 17951" width="24" height="24" transform="translate(1367 1427)" fill="#fff" stroke="#707070" stroke-width="1"/>
    </clipPath>
  </defs>
  <g id="Mask_Group_29559" data-name="Mask Group 29559" transform="translate(-1367 -1427)" clip-path="url(#clip-path)">
    <g id="bundle" transform="translate(1369.837 1429.532)">
      <g id="Group_72724" data-name="Group 72724" transform="translate(1.926 3.006)">
        <g id="Path_218882" data-name="Path 218882" transform="translate(-1.947 -5.463)" fill="#2d3142" fill-rule="evenodd">
          <path d="M 9.183383941650391 15.18316268920898 C 8.871674537658691 15.18316268920898 8.564714431762695 15.13021278381348 8.271014213562012 15.02579307556152 L 2.527894496917725 12.98376274108887 C 2.232624292373657 12.87878227233887 2.077814340591431 12.5531530380249 2.182794332504272 12.25787258148193 C 2.263204336166382 12.03170299530029 2.478404521942139 11.87974262237549 2.718294382095337 11.87974262237549 C 2.782974481582642 11.87974262237549 2.847034454345703 11.89086246490479 2.908694505691528 11.91278266906738 L 8.651803970336914 13.95473289489746 C 8.822914123535156 14.0155725479126 9.001764297485352 14.04643249511719 9.183374404907227 14.04643249511719 C 9.364984512329102 14.04643249511719 9.543814659118652 14.0155725479126 9.714884757995605 13.95473289489746 L 15.45801448822021 11.91278266906738 C 15.51967430114746 11.89086246490479 15.5837345123291 11.87974262237549 15.64841461181641 11.87974262237549 C 15.88830471038818 11.87974262237549 16.10349464416504 12.03170299530029 16.18390464782715 12.25787258148193 C 16.23478507995605 12.40093231201172 16.22690391540527 12.55520248413086 16.16172409057617 12.69230270385742 C 16.09654426574707 12.82940292358398 15.9818639755249 12.93290233612061 15.8388147354126 12.98375225067139 L 10.09574413299561 15.02579307556152 C 9.802044868469238 15.13021278381348 9.495084762573242 15.18316268920898 9.183383941650391 15.18316268920898 Z" stroke="none"/>
          <path d="M 2.718294143676758 12.02974224090576 C 2.54172420501709 12.02974224090576 2.38332462310791 12.1416130065918 2.324134826660156 12.3081226348877 C 2.246854782104492 12.52546310424805 2.360803604125977 12.76515293121338 2.578144073486328 12.84243297576904 L 8.321264266967773 14.88445281982422 C 8.876333236694336 15.08181476593018 9.490453720092773 15.08179950714111 10.04548454284668 14.88446235656738 L 15.78857421875 12.84242248535156 C 15.89386463165283 12.80499267578125 15.97827434539795 12.72880268096924 16.02625465393066 12.62789249420166 C 16.0742244720459 12.52699279785156 16.08002471923828 12.41343307495117 16.04256439208984 12.30811309814453 C 15.98336410522461 12.14160251617432 15.82497406005859 12.0297327041626 15.6484546661377 12.02974224090576 C 15.60090446472168 12.02975273132324 15.55374431610107 12.0379524230957 15.50826454162598 12.05412292480469 L 9.765154838562012 14.09606266021729 C 9.390632629394531 14.2292423248291 8.976091384887695 14.22923278808594 8.601554870605469 14.09607219696045 L 2.858434677124023 12.05411243438721 C 2.812953948974609 12.03794288635254 2.765804290771484 12.02974224090576 2.718294143676758 12.02974224090576 M 2.718296051025391 11.7297477722168 C 2.798166275024414 11.7297477722168 2.879388809204102 11.74316787719727 2.958944320678711 11.77145290374756 L 8.702054023742676 13.81340217590332 C 9.013384819030762 13.92410278320312 9.353375434875488 13.92410278320312 9.664624214172363 13.81340217590332 L 15.40776443481445 11.77145290374756 C 15.78158473968506 11.63855266571045 16.19233512878418 11.83380222320557 16.32523345947266 12.20762252807617 C 16.45819473266602 12.58145236968994 16.26288414001465 12.99220275878906 15.88905429840088 13.12509250640869 L 10.14599418640137 15.16712284088135 C 9.523334503173828 15.38851261138916 8.843423843383789 15.38851261138916 8.22076416015625 15.16712284088135 L 2.477643966674805 13.12509250640869 C 2.103843688964844 12.99219226837158 1.908554077148438 12.58145236968994 2.041463851928711 12.20762252807617 L 2.041454315185547 12.20762252807617 C 2.146078109741211 11.91336250305176 2.422887802124023 11.7297477722168 2.718296051025391 11.7297477722168 Z" stroke="none" fill="#fff"/>
        </g>
        <g id="Path_218883" data-name="Path 218883" transform="translate(-1.947 -6.66)" fill="#2d3142" fill-rule="evenodd">
          <path d="M 9.183383941650391 19.43316268920898 C 8.871674537658691 19.43316268920898 8.564714431762695 19.38021278381348 8.271014213562012 19.27579307556152 L 2.527894496917725 17.23376274108887 C 2.232624292373657 17.12878227233887 2.077814340591431 16.80315208435059 2.182794332504272 16.50787353515625 C 2.263204336166382 16.28170204162598 2.478404521942139 16.1297435760498 2.718294382095337 16.1297435760498 C 2.782974481582642 16.1297435760498 2.847034454345703 16.1408634185791 2.908694505691528 16.16278266906738 L 8.651803970336914 18.20473289489746 C 8.822914123535156 18.26557350158691 9.001764297485352 18.29643249511719 9.183374404907227 18.29643249511719 C 9.364984512329102 18.29643249511719 9.543814659118652 18.26557350158691 9.714884757995605 18.20473289489746 L 15.45801448822021 16.16278266906738 C 15.51967430114746 16.1408634185791 15.5837345123291 16.1297435760498 15.64841461181641 16.1297435760498 C 15.88830471038818 16.1297435760498 16.10349464416504 16.28170204162598 16.18390464782715 16.50787353515625 C 16.23478507995605 16.65092277526855 16.22690391540527 16.80520248413086 16.16172409057617 16.94230270385742 C 16.09654426574707 17.07939338684082 15.9818639755249 17.18290328979492 15.83880424499512 17.23376274108887 L 10.09574413299561 19.27579307556152 C 9.802044868469238 19.38021278381348 9.495084762573242 19.43316268920898 9.183383941650391 19.43316268920898 Z" stroke="none"/>
          <path d="M 2.718294143676758 16.27974319458008 C 2.54172420501709 16.27974319458008 2.38332462310791 16.3916130065918 2.324134826660156 16.5581226348877 C 2.246854782104492 16.77546310424805 2.360803604125977 17.01515197753906 2.578144073486328 17.09243202209473 L 8.321264266967773 19.13445281982422 C 8.876333236694336 19.33181571960449 9.490453720092773 19.33180236816406 10.04548454284668 19.13446235656738 L 15.78856468200684 17.09242248535156 C 15.89386463165283 17.05499267578125 15.97827434539795 16.97880172729492 16.02625465393066 16.87789344787598 C 16.0742244720459 16.77699279785156 16.08002471923828 16.66343307495117 16.04256439208984 16.55811309814453 C 15.98336410522461 16.39160346984863 15.82497406005859 16.27973175048828 15.6484546661377 16.27974319458008 C 15.60090446472168 16.27975273132324 15.55374431610107 16.2879524230957 15.50826454162598 16.30412292480469 L 9.765154838562012 18.34606170654297 C 9.390632629394531 18.4792423248291 8.976091384887695 18.4792308807373 8.601554870605469 18.34607315063477 L 2.858434677124023 16.30411338806152 C 2.812953948974609 16.28794288635254 2.765804290771484 16.27974319458008 2.718294143676758 16.27974319458008 M 2.718296051025391 15.9797477722168 C 2.798166275024414 15.9797477722168 2.879388809204102 15.99316787719727 2.958944320678711 16.02145195007324 L 8.702054023742676 18.06340217590332 C 9.013384819030762 18.17410469055176 9.353375434875488 18.17410469055176 9.664624214172363 18.06340217590332 L 15.40776443481445 16.02145195007324 C 15.78158473968506 15.88855361938477 16.19233512878418 16.08380317687988 16.32523345947266 16.45762252807617 C 16.45819473266602 16.83145332336426 16.26288414001465 17.2421932220459 15.88905429840088 17.37509346008301 L 10.14599418640137 19.41712188720703 C 9.523334503173828 19.63851356506348 8.843423843383789 19.63851356506348 8.22076416015625 19.41712188720703 L 2.477643966674805 17.37509346008301 C 2.103843688964844 17.2421932220459 1.908554077148438 16.83145332336426 2.041463851928711 16.45762252807617 L 2.041454315185547 16.45762252807617 C 2.146078109741211 16.16336250305176 2.422887802124023 15.9797477722168 2.718296051025391 15.9797477722168 Z" stroke="none" fill="#fff"/>
        </g>
        <path id="Path_218884" data-name="Path 218884" d="M9.457,3.2a3.2,3.2,0,0,0-2.184,0L2.768,4.837a1.278,1.278,0,0,0,0,2.4L7.273,8.878a3.2,3.2,0,0,0,2.184,0L13.963,7.24a1.278,1.278,0,0,0,0-2.4Z" transform="translate(-1.129 -2.631)" fill="none" stroke="#2d3142" stroke-width="0.8"/>
      </g>
    </g>
  </g>
</svg>
