<svg xmlns="http://www.w3.org/2000/svg" xmlns:xlink="http://www.w3.org/1999/xlink" width="14" height="14" viewBox="0 0 14 14">
  <defs>
    <clipPath id="clip-path">
      <rect id="Rectangle_18052" data-name="Rectangle 18052" width="14" height="14" fill="#fff" stroke="#707070" stroke-width="1"/>
    </clipPath>
  </defs>
  <g id="Mask_Group_29578" data-name="Mask Group 29578" clip-path="url(#clip-path)">
    <g id="svgexport-6" transform="translate(0 1.739)">
      <g id="Group_73393" data-name="Group 73393">
        <path id="Path_219418" data-name="Path 219418" d="M1.719,2.668a.8.8,0,0,0-.565.978L1.56,5.163A.8.8,0,1,0,3.1,4.749L2.7,3.233a.8.8,0,0,0-.978-.565Z" transform="translate(0 -1.739)" fill="#d3effb"/>
        <path id="Path_219419" data-name="Path 219419" d="M3.1,4.749,2.7,3.233a.8.8,0,0,0-.771-.592.8.8,0,0,1,.067.17L2.4,4.327a.8.8,0,0,1-.772,1.006A.8.8,0,0,0,3.1,4.749Z" transform="translate(0 -1.739)" fill="#b1e4f9"/>
        <path id="Path_219420" data-name="Path 219420" d="M4.487,5.755H1.875a.748.748,0,0,0-.748.748L.825,8.58l2.915-.365S4.074,5.755,4.487,5.755Z" transform="translate(0 -1.739)" fill="#d3effb"/>
        <path id="Path_219421" data-name="Path 219421" d="M1.127,7.652l-.257.794H4.3l-.559-.794Z" transform="translate(0 -1.739)" fill="#b1e4f9"/>
        <path id="Path_219422" data-name="Path 219422" d="M12.873,6.5a.748.748,0,0,0-.748-.748H4.857L4.248,8.823l8.625-.609V6.5Z" transform="translate(0 -1.739)" fill="#365e7d"/>
        <path id="Path_219423" data-name="Path 219423" d="M12.125,5.755h-.4a.749.749,0,0,1,.023.185v.266A1.446,1.446,0,0,1,10.3,7.652H4.857L4.248,8.823l8.625-.609V6.5A.748.748,0,0,0,12.125,5.755Z" transform="translate(0 -1.739)" fill="#2b4d66"/>
        <path id="Path_219424" data-name="Path 219424" d="M4.857,8.215V6.5A.748.748,0,0,1,5.6,5.755H4.487a.748.748,0,0,0-.748.748V8.215Z" transform="translate(0 -1.739)" fill="#407093"/>
        <path id="Path_219425" data-name="Path 219425" d="M3.739,7.652V8.58l1.117-.365V7.652Z" transform="translate(0 -1.739)" fill="#365e7d"/>
        <path id="Path_219426" data-name="Path 219426" d="M.783,8.215H13.217v1.74H.783Z" transform="translate(0 -1.739)" fill="#ce9875"/>
        <g id="Group_73392" data-name="Group 73392">
          <path id="Path_219427" data-name="Path 219427" d="M.147,12.261H.98a.147.147,0,0,0,.147-.147v-9.6a.776.776,0,0,0-.776-.776h-.2A.147.147,0,0,0,0,1.886V12.114a.147.147,0,0,0,.147.147Z" transform="translate(0 -1.739)" fill="#d8aa8b"/>
          <path id="Path_219428" data-name="Path 219428" d="M13.02,12.261h.833A.147.147,0,0,0,14,12.114V7.147A.147.147,0,0,0,13.853,7h-.2a.776.776,0,0,0-.776.776v4.338a.147.147,0,0,0,.147.147Z" transform="translate(0 -1.739)" fill="#d8aa8b"/>
        </g>
      </g>
    </g>
  </g>
</svg>
