<svg xmlns="http://www.w3.org/2000/svg" xmlns:xlink="http://www.w3.org/1999/xlink" width="16" height="16" viewBox="0 0 16 16">
  <defs>
    <clipPath id="clip-path">
      <rect id="Rectangle_18072" data-name="Rectangle 18072" width="16" height="16" fill="#fff" stroke="#707070" stroke-width="1"/>
    </clipPath>
  </defs>
  <g id="Mask_Group_29596" data-name="Mask Group 29596" clip-path="url(#clip-path)">
    <g id="constructions" transform="translate(0 0)">
      <g id="Group_73485" data-name="Group 73485">
        <g id="Group_73484" data-name="Group 73484">
          <g id="Group_73473" data-name="Group 73473" transform="translate(9.845 0)">
            <path id="Path_219683" data-name="Path 219683" d="M13.614,6.332l.135-.717a2.5,2.5,0,0,0,.841-.509l.656.232a.272.272,0,0,0,.326-.121l.392-.678a.273.273,0,0,0-.058-.343l-.551-.475a2.486,2.486,0,0,0-.016-.984l.529-.454a.273.273,0,0,0,.059-.343l-.388-.678a.27.27,0,0,0-.325-.121l-.686.242a2.462,2.462,0,0,0-.858-.475L13.545.222A.271.271,0,0,0,13.278,0H12.5a.273.273,0,0,0-.267.222L12.1.939a2.5,2.5,0,0,0-.841.509L10.6,1.216a.272.272,0,0,0-.326.121l-.392.678a.273.273,0,0,0,.058.343l.551.475a2.486,2.486,0,0,0,.016.984l-.529.454a.273.273,0,0,0-.059.343l.388.678a.27.27,0,0,0,.325.121l.686-.242a2.462,2.462,0,0,0,.858.475l.126.687a.271.271,0,0,0,.266.222h.78a.273.273,0,0,0,.267-.222ZM11.922,3.856a1.161,1.161,0,0,1,.426-1.581,1.149,1.149,0,0,1,1.574.423A1.161,1.161,0,0,1,13.5,4.279,1.149,1.149,0,0,1,11.922,3.856Z" transform="translate(-9.845 0)" fill="#86db7b"/>
          </g>
          <g id="Group_73483" data-name="Group 73483" transform="translate(0)">
            <g id="Group_73479" data-name="Group 73479" transform="translate(0)">
              <g id="Group_73478" data-name="Group 73478">
                <path id="Path_219684" data-name="Path 219684" d="M7.034,14.149l.028-9.814a1.6,1.6,0,0,0,1.5-1.654A3.455,3.455,0,0,0,7.192.009L7.187,2.016a.416.416,0,0,1-.415.419L5.754,2.43a.418.418,0,0,1-.412-.423L5.347,0a3.438,3.438,0,0,0-1.39,2.659A1.607,1.607,0,0,0,5.452,4.327l-.028,9.814a.8.8,0,1,0,1.61.008Z" transform="translate(0 0)" fill="#bed0e0"/>
                <g id="Group_73474" data-name="Group 73474" transform="translate(5.424 0.009)">
                  <path id="Path_219685" data-name="Path 219685" d="M7.192.009,7.187,2.016c0,.159-.013.6-.013.717,0,1.008-.845,1.432-1.721,1.595l-.028,9.814a1.8,1.8,0,0,1,.024.2.8.8,0,0,0,1.585-.2l.028-9.814a1.6,1.6,0,0,0,1.5-1.654A3.455,3.455,0,0,0,7.192.009Z" transform="translate(-5.424 -0.009)" fill="#aec2d4"/>
                </g>
                <g id="Group_73477" data-name="Group 73477" transform="translate(0 0)">
                  <path id="Path_219686" data-name="Path 219686" d="M.656,9.027.648,14.072a.88.88,0,0,0,.869.893.877.877,0,0,0,.862-.888l.008-5.054Z" transform="translate(0)" fill="#365dca"/>
                  <path id="Path_219687" data-name="Path 219687" d="M1.422,9.025l-.008,5.051a.9.9,0,0,1-.382.737.845.845,0,0,0,.486.151.877.877,0,0,0,.862-.888l.008-5.054Z" transform="translate(0)" fill="#284eb8"/>
                  <g id="Group_73476" data-name="Group 73476">
                    <g id="Group_73475" data-name="Group 73475">
                      <path id="Path_219688" data-name="Path 219688" d="M2.707,0V2.461L2.1,3.5l0,5.028-1.176,0,0-5.023L.316,2.468V.007Z" transform="translate(0)" fill="#e8f4ff"/>
                      <path id="Path_219689" data-name="Path 219689" d="M2.708,2.461V0l-1.2,0V2.461l-.6,1.028.011.018,0,5.023,1.176,0L2.1,3.5Z" transform="translate(0)" fill="#dceaf7"/>
                      <path id="Path_219690" data-name="Path 219690" d="M.551,9.028l1.93-.006a.56.56,0,0,0,.55-.568h0A.557.557,0,0,0,2.48,7.89L.55,7.885A.57.57,0,0,0,0,8.464H0a.557.557,0,0,0,.551.565Z" transform="translate(0)" fill="#66a8ff"/>
                      <path id="Path_219691" data-name="Path 219691" d="M2.48,7.89.55,7.885l-.043,0,1.007,0a.557.557,0,0,1,.551.565h0a.56.56,0,0,1-.55.568L.5,9.026l.054,0,1.93-.006a.56.56,0,0,0,.55-.568h0A.557.557,0,0,0,2.48,7.89Z" transform="translate(0)" fill="#4d99ff"/>
                    </g>
                    <path id="Path_219692" data-name="Path 219692" d="M2.707,0,.315.007l0,.856L2.707.874Z" transform="translate(0)" fill="#bed0e0"/>
                  </g>
                </g>
              </g>
            </g>
            <g id="Group_73482" data-name="Group 73482" transform="translate(3.289 6.659)">
              <g id="Group_73481" data-name="Group 73481" transform="translate(0.646)">
                <path id="Path_219693" data-name="Path 219693" d="M14.695,13.648H4.227V12.381a5.234,5.234,0,0,1,10.468,0Z" transform="translate(-3.935 -6.659)" fill="#ffb938"/>
                <path id="Path_219694" data-name="Path 219694" d="M10.576,13.648l0-6.716a2.417,2.417,0,0,0-2.23,0l0,6.715Z" transform="translate(-3.935 -6.659)" fill="#ffe645"/>
                <path id="Path_219695" data-name="Path 219695" d="M10.573,6.931a2.417,2.417,0,0,0-1.758-.185,2.414,2.414,0,0,1,.47.185l0,6.716h1.288Z" transform="translate(-3.935 -6.659)" fill="#f5d60c"/>
                <g id="Group_73480" data-name="Group 73480" transform="translate(0 1.375)">
                  <path id="Path_219696" data-name="Path 219696" d="M3.935,12.381v1.266H6.345l0-5.407a.2.2,0,0,0-.33-.159,5.489,5.489,0,0,0-2.077,4.3Z" transform="translate(-3.935 -8.034)" fill="#ffe645"/>
                  <path id="Path_219697" data-name="Path 219697" d="M6.343,8.241a.2.2,0,0,0-.33-.159,5.564,5.564,0,0,0-.957.979l0,4.587H6.345Z" transform="translate(-3.935 -8.034)" fill="#f5d60c"/>
                  <path id="Path_219698" data-name="Path 219698" d="M12.574,8.238l0,5.41h2.409V12.377a5.489,5.489,0,0,0-2.081-4.3.2.2,0,0,0-.33.159Z" transform="translate(-3.935 -8.034)" fill="#ffe645"/>
                  <path id="Path_219699" data-name="Path 219699" d="M14.985,12.377a5.489,5.489,0,0,0-2.081-4.3.2.2,0,0,0-.33.159v.819a5.462,5.462,0,0,1,1.123,3.32v1.271h1.288Z" transform="translate(-3.935 -8.034)" fill="#f5d60c"/>
                </g>
              </g>
              <path id="Path_219700" data-name="Path 219700" d="M12.867,15.523l.19-.1a4.129,4.129,0,0,1,1.922-.475.654.654,0,0,0,.654-.675.661.661,0,0,0-.672-.625h-11a.665.665,0,0,0-.672.631.654.654,0,0,0,.655.675,4.129,4.129,0,0,1,1.922.474l.19.1A4.129,4.129,0,0,0,7.979,16h2.966a4.129,4.129,0,0,0,1.922-.475Z" transform="translate(-3.289 -6.659)" fill="#ffe645"/>
              <path id="Path_219701" data-name="Path 219701" d="M14.96,13.648H13.673a.661.661,0,0,1,.672.625.654.654,0,0,1-.654.675,4.129,4.129,0,0,0-1.922.475l-.19.1A4.129,4.129,0,0,1,9.657,16h1.288a4.129,4.129,0,0,0,1.922-.475l.19-.1a4.129,4.129,0,0,1,1.922-.475.654.654,0,0,0,.654-.675.661.661,0,0,0-.672-.625Z" transform="translate(-3.289 -6.659)" fill="#f5d60c"/>
            </g>
          </g>
        </g>
        <path id="Path_219702" data-name="Path 219702" d="M15.906,4.2l-.551-.475a2.486,2.486,0,0,0-.016-.984l.529-.454a.273.273,0,0,0,.059-.343l-.388-.678a.27.27,0,0,0-.325-.121l-.686.242a2.462,2.462,0,0,0-.858-.475L13.545.222A.271.271,0,0,0,13.278,0H12.5a.273.273,0,0,0-.267.222l-.017.09a3.262,3.262,0,0,1,.058,5.867l.028.152a.271.271,0,0,0,.266.222h.78a.273.273,0,0,0,.267-.222l.135-.717a2.5,2.5,0,0,0,.841-.509l.656.232a.272.272,0,0,0,.326-.121l.392-.678a.273.273,0,0,0-.058-.343Z" transform="translate(0 0)" fill="#6dd45f"/>
      </g>
    </g>
  </g>
</svg>
