<svg xmlns="http://www.w3.org/2000/svg" xmlns:xlink="http://www.w3.org/1999/xlink" width="71" height="71" viewBox="0 0 71 71">
  <defs>
    <clipPath id="clip-path">
      <rect id="Rectangle_17870" data-name="Rectangle 17870" width="35" height="35" transform="translate(98 1948)" fill="#53b553" stroke="#707070" stroke-width="1"/>
    </clipPath>
  </defs>
  <g id="Group_73634" data-name="Group 73634" transform="translate(-1085 -377)">
    <g id="Ellipse_2" data-name="Ellipse 2" transform="translate(1085 377)" fill="#fff" stroke="#cfcfcf" stroke-width="1" stroke-dasharray="3">
      <circle cx="35.5" cy="35.5" r="35.5" stroke="none"/>
      <circle cx="35.5" cy="35.5" r="35" fill="none"/>
    </g>
    <g id="Mask_Group_29484" data-name="Mask Group 29484" transform="translate(1005 -1553)" clip-path="url(#clip-path)">
      <g id="call" transform="translate(103.856 1953.856)">
        <g id="Group_31439" data-name="Group 31439">
          <g id="Group_31438" data-name="Group 31438">
            <path id="Path_20669" data-name="Path 20669" d="M21.418,15.285a13.222,13.222,0,0,1-4.152-.661,1.9,1.9,0,0,0-1.846.389L12.8,16.99a14.47,14.47,0,0,1-6.506-6.5l1.918-2.55a1.882,1.882,0,0,0,.463-1.907,13.242,13.242,0,0,1-.664-4.159A1.871,1.871,0,0,0,6.145,0H1.869A1.871,1.871,0,0,0,0,1.869,21.443,21.443,0,0,0,21.418,23.287a1.871,1.871,0,0,0,1.869-1.869V17.154A1.871,1.871,0,0,0,21.418,15.285Z" fill="#53b553"/>
          </g>
        </g>
      </g>
    </g>
  </g>
</svg>
