<svg xmlns="http://www.w3.org/2000/svg" xmlns:xlink="http://www.w3.org/1999/xlink" width="18" height="18" viewBox="0 0 18 18">
  <defs>
    <clipPath id="clip-path">
      <rect id="Rectangle_11466" data-name="Rectangle 11466" width="18" height="18" fill="#2d3142" stroke="#707070" stroke-width="1"/>
    </clipPath>
  </defs>
  <g id="Mask_Group_29512" data-name="Mask Group 29512" clip-path="url(#clip-path)">
    <g id="view" transform="translate(2.42 4.764)">
      <g id="Group_72946" data-name="Group 72946" transform="translate(4.462 2.118)">
        <g id="Group_72945" data-name="Group 72945">
          <path id="Path_218917" data-name="Path 218917" d="M8.221,6.1a2.118,2.118,0,1,0,2.118,2.118A2.119,2.119,0,0,0,8.221,6.1ZM8.06,7.593a.486.486,0,0,0-.482.482h-.7A1.2,1.2,0,0,1,8.06,6.892Z" transform="translate(-6.103 -6.103)" fill="#2d3142"/>
        </g>
      </g>
      <g id="Group_72948" data-name="Group 72948">
        <g id="Group_72947" data-name="Group 72947">
          <path id="Path_218918" data-name="Path 218918" d="M13.006,7c-.716-.891-3.272-3.8-6.426-3.8S.869,6.113.153,7a.7.7,0,0,0,0,.876c.716.891,3.272,3.8,6.426,3.8s5.711-2.906,6.426-3.8A.7.7,0,0,0,13.006,7ZM6.58,10.509A3.067,3.067,0,1,1,9.647,7.442,3.067,3.067,0,0,1,6.58,10.509Z" transform="translate(0 -3.206)" fill="#2d3142"/>
        </g>
      </g>
    </g>
  </g>
</svg>
