<svg id="Group_73151" data-name="Group 73151" xmlns="http://www.w3.org/2000/svg" xmlns:xlink="http://www.w3.org/1999/xlink" width="34" height="34" viewBox="0 0 34 34">
  <defs>
    <clipPath id="clip-path">
      <rect id="Rectangle_17739" data-name="Rectangle 17739" width="24" height="24" fill="#53b553" stroke="#707070" stroke-width="1"/>
    </clipPath>
  </defs>
  <g id="Ellipse_751" data-name="Ellipse 751" fill="#f6f8fa" stroke="#36b55b" stroke-width="1">
    <circle cx="17" cy="17" r="17" stroke="none"/>
    <circle cx="17" cy="17" r="16.5" fill="none"/>
  </g>
  <g id="Mask_Group_29437" data-name="Mask Group 29437" transform="translate(5 5)" clip-path="url(#clip-path)">
    <path id="Icon_awesome-twitter" data-name="Icon awesome-twitter" d="M11.885,6.062c.008.118.008.235.008.353a7.671,7.671,0,0,1-7.724,7.724A7.672,7.672,0,0,1,0,12.92a5.616,5.616,0,0,0,.656.034,5.437,5.437,0,0,0,3.37-1.16A2.72,2.72,0,0,1,1.488,9.911,3.423,3.423,0,0,0,2,9.953a2.871,2.871,0,0,0,.714-.092A2.715,2.715,0,0,1,.538,7.2V7.163a2.734,2.734,0,0,0,1.227.345,2.719,2.719,0,0,1-.84-3.631,7.717,7.717,0,0,0,5.6,2.841A3.065,3.065,0,0,1,6.455,6.1a2.717,2.717,0,0,1,4.7-1.858,5.345,5.345,0,0,0,1.723-.656,2.707,2.707,0,0,1-1.194,1.5,5.442,5.442,0,0,0,1.563-.42,5.836,5.836,0,0,1-1.362,1.4Z" transform="translate(5.377 3.24)" fill="#53b553"/>
  </g>
</svg>
